<?xml version="1.0" encoding="UTF-8" standalone="no"?>
<!DOCTYPE svg PUBLIC "-//W3C//DTD SVG 1.1//EN"
 "http://www.w3.org/Graphics/SVG/1.1/DTD/svg11.dtd">
<!-- Generated by graphviz version 2.40.1 (20161225.0304)
 -->
<!-- Title: G Pages: 1 -->
<svg width="1267pt" height="911pt"
 viewBox="0.00 0.00 1267.43 910.91" xmlns="http://www.w3.org/2000/svg" xmlns:xlink="http://www.w3.org/1999/xlink">
<g id="graph0" class="graph" transform="scale(1 1) rotate(0) translate(4 906.9138)">
<title>G</title><style>.edge>path:hover{stroke-width:8}</style>
<polygon fill="#ffffff" stroke="transparent" points="-4,4 -4,-906.9138 1263.4325,-906.9138 1263.4325,4 -4,4"/>
<!-- drone_controller_input_layer_drone_physics -->
<g id="node1" class="node">
<title>drone_controller_input_layer_drone_physics</title><style>.edge>path:hover{stroke-width:8}</style>
<ellipse fill="#47c247" stroke="#000000" cx="297.9325" cy="-122.9741" rx="62.8651" ry="28.9828"/>
<text text-anchor="middle" x="297.9325" y="-131.4741" font-family="Helvetica,sans-Serif" font-size="10.00" fill="#000000">drone_controller.</text>
<text text-anchor="middle" x="297.9325" y="-120.4741" font-family="Helvetica,sans-Serif" font-size="10.00" fill="#000000">input_layer.</text>
<text text-anchor="middle" x="297.9325" y="-109.4741" font-family="Helvetica,sans-Serif" font-size="10.00" fill="#000000">drone_physics</text>
</g>
<!-- drone_controller_input_layer_request_handler -->
<g id="node4" class="node">
<title>drone_controller_input_layer_request_handler</title><style>.edge>path:hover{stroke-width:8}</style>
<ellipse fill="#347934" stroke="#000000" cx="297.9325" cy="-28.9914" rx="62.8651" ry="28.9828"/>
<text text-anchor="middle" x="297.9325" y="-37.4914" font-family="Helvetica,sans-Serif" font-size="10.00" fill="#ffffff">drone_controller.</text>
<text text-anchor="middle" x="297.9325" y="-26.4914" font-family="Helvetica,sans-Serif" font-size="10.00" fill="#ffffff">input_layer.</text>
<text text-anchor="middle" x="297.9325" y="-15.4914" font-family="Helvetica,sans-Serif" font-size="10.00" fill="#ffffff">request_handler</text>
</g>
<!-- drone_controller_input_layer_drone_physics&#45;&gt;drone_controller_input_layer_request_handler -->
<g id="edge10" class="edge">
<title>drone_controller_input_layer_drone_physics&#45;&gt;drone_controller_input_layer_request_handler</title><style>.edge>path:hover{stroke-width:8}</style>
<path fill="none" stroke="#000000" d="M297.9325,-93.7526C297.9325,-85.7078 297.9325,-76.8481 297.9325,-68.3329"/>
<polygon fill="#47c247" stroke="#000000" points="301.4326,-68.1948 297.9325,-58.1949 294.4326,-68.1949 301.4326,-68.1948"/>
</g>
<!-- drone_controller_input_layer_drone_state_mapper -->
<g id="node2" class="node">
<title>drone_controller_input_layer_drone_state_mapper</title><style>.edge>path:hover{stroke-width:8}</style>
<ellipse fill="#339933" stroke="#000000" cx="413.9325" cy="-216.9569" rx="74.4932" ry="28.9828"/>
<text text-anchor="middle" x="413.9325" y="-225.4569" font-family="Helvetica,sans-Serif" font-size="10.00" fill="#ffffff">drone_controller.</text>
<text text-anchor="middle" x="413.9325" y="-214.4569" font-family="Helvetica,sans-Serif" font-size="10.00" fill="#ffffff">input_layer.</text>
<text text-anchor="middle" x="413.9325" y="-203.4569" font-family="Helvetica,sans-Serif" font-size="10.00" fill="#ffffff">drone_state_mapper</text>
</g>
<!-- drone_controller_input_layer_drone_state_mapper&#45;&gt;drone_controller_input_layer_request_handler -->
<g id="edge14" class="edge">
<title>drone_controller_input_layer_drone_state_mapper&#45;&gt;drone_controller_input_layer_request_handler</title><style>.edge>path:hover{stroke-width:8}</style>
<path fill="none" stroke="#000000" d="M411.2879,-187.7127C408.337,-168.0043 402.101,-142.1956 388.9325,-122.9741"/>
</g>
<!-- drone_controller_exception -->
<g id="node3" class="node">
<title>drone_controller_exception</title><style>.edge>path:hover{stroke-width:8}</style>
<ellipse fill="#3bce3b" stroke="#000000" cx="206.9325" cy="-548.9224" rx="62.8651" ry="21.4286"/>
<text text-anchor="middle" x="206.9325" y="-551.9224" font-family="Helvetica,sans-Serif" font-size="10.00" fill="#000000">drone_controller.</text>
<text text-anchor="middle" x="206.9325" y="-540.9224" font-family="Helvetica,sans-Serif" font-size="10.00" fill="#000000">exception</text>
</g>
<!-- drone_controller_exception&#45;&gt;drone_controller_input_layer_request_handler -->
<g id="edge6" class="edge">
<title>drone_controller_exception&#45;&gt;drone_controller_input_layer_request_handler</title><style>.edge>path:hover{stroke-width:8}</style>
<path fill="none" stroke="#000000" d="M202.9504,-527.7398C200.6398,-510.5251 199.4745,-485.9085 206.9325,-465.931"/>
</g>
<!-- drone_controller_input_layer_drone_state -->
<g id="node10" class="node">
<title>drone_controller_input_layer_drone_state</title><style>.edge>path:hover{stroke-width:8}</style>
<ellipse fill="#23c823" stroke="#000000" cx="297.9325" cy="-382.9396" rx="62.8651" ry="28.9828"/>
<text text-anchor="middle" x="297.9325" y="-391.4396" font-family="Helvetica,sans-Serif" font-size="10.00" fill="#000000">drone_controller.</text>
<text text-anchor="middle" x="297.9325" y="-380.4396" font-family="Helvetica,sans-Serif" font-size="10.00" fill="#000000">input_layer.</text>
<text text-anchor="middle" x="297.9325" y="-369.4396" font-family="Helvetica,sans-Serif" font-size="10.00" fill="#000000">drone_state</text>
</g>
<!-- drone_controller_exception&#45;&gt;drone_controller_input_layer_drone_state -->
<g id="edge5" class="edge">
<title>drone_controller_exception&#45;&gt;drone_controller_input_layer_drone_state</title><style>.edge>path:hover{stroke-width:8}</style>
<path fill="none" stroke="#000000" d="M212.5538,-527.716C218.2476,-509.5565 228.5776,-483.6145 244.9325,-465.931"/>
</g>
<!-- drone_controller_util_list_operators -->
<g id="node5" class="node">
<title>drone_controller_util_list_operators</title><style>.edge>path:hover{stroke-width:8}</style>
<ellipse fill="#3bce3b" stroke="#000000" cx="441.9325" cy="-382.9396" rx="62.8651" ry="28.9828"/>
<text text-anchor="middle" x="441.9325" y="-391.4396" font-family="Helvetica,sans-Serif" font-size="10.00" fill="#000000">drone_controller.</text>
<text text-anchor="middle" x="441.9325" y="-380.4396" font-family="Helvetica,sans-Serif" font-size="10.00" fill="#000000">util.</text>
<text text-anchor="middle" x="441.9325" y="-369.4396" font-family="Helvetica,sans-Serif" font-size="10.00" fill="#000000">list_operators</text>
</g>
<!-- drone_controller_util_list_operators&#45;&gt;drone_controller_input_layer_drone_state_mapper -->
<g id="edge18" class="edge">
<title>drone_controller_util_list_operators&#45;&gt;drone_controller_input_layer_drone_state_mapper</title><style>.edge>path:hover{stroke-width:8}</style>
<path fill="none" stroke="#000000" d="M437.0553,-354.0277C432.4861,-326.9419 425.6207,-286.244 420.557,-256.2267"/>
<polygon fill="#3bce3b" stroke="#000000" points="423.9625,-255.3729 418.8478,-246.0945 417.0601,-256.5374 423.9625,-255.3729"/>
</g>
<!-- drone_controller_calculation_layer_thrust_calculator -->
<g id="node9" class="node">
<title>drone_controller_calculation_layer_thrust_calculator</title><style>.edge>path:hover{stroke-width:8}</style>
<ellipse fill="#339933" stroke="#000000" cx="570.9325" cy="-216.9569" rx="65.1077" ry="28.9828"/>
<text text-anchor="middle" x="570.9325" y="-225.4569" font-family="Helvetica,sans-Serif" font-size="10.00" fill="#ffffff">drone_controller.</text>
<text text-anchor="middle" x="570.9325" y="-214.4569" font-family="Helvetica,sans-Serif" font-size="10.00" fill="#ffffff">calculation_layer.</text>
<text text-anchor="middle" x="570.9325" y="-203.4569" font-family="Helvetica,sans-Serif" font-size="10.00" fill="#ffffff">thrust_calculator</text>
</g>
<!-- drone_controller_util_list_operators&#45;&gt;drone_controller_calculation_layer_thrust_calculator -->
<g id="edge17" class="edge">
<title>drone_controller_util_list_operators&#45;&gt;drone_controller_calculation_layer_thrust_calculator</title><style>.edge>path:hover{stroke-width:8}</style>
<path fill="none" stroke="#000000" d="M434.4172,-354.1333C431.5143,-335.6487 431.8885,-312.7831 446.9325,-299.9483"/>
</g>
<!-- drone_controller_util -->
<g id="node6" class="node">
<title>drone_controller_util</title><style>.edge>path:hover{stroke-width:8}</style>
<ellipse fill="#3bce3b" stroke="#000000" cx="623.9325" cy="-382.9396" rx="62.8651" ry="21.4286"/>
<text text-anchor="middle" x="623.9325" y="-385.9396" font-family="Helvetica,sans-Serif" font-size="10.00" fill="#000000">drone_controller.</text>
<text text-anchor="middle" x="623.9325" y="-374.9396" font-family="Helvetica,sans-Serif" font-size="10.00" fill="#000000">util</text>
</g>
<!-- drone_controller_util&#45;&gt;drone_controller_input_layer_drone_state_mapper -->
<g id="edge16" class="edge">
<title>drone_controller_util&#45;&gt;drone_controller_input_layer_drone_state_mapper</title><style>.edge>path:hover{stroke-width:8}</style>
<path fill="none" stroke="#000000" d="M612.1118,-362.0863C601.992,-344.8454 586.6097,-320.025 570.9325,-299.9483"/>
<path fill="none" stroke="#000000" d="M570.9325,-299.9483C557.7136,-283.0197 512.3776,-259.9347 473.8002,-242.4092"/>
<polygon fill="#3bce3b" stroke="#000000" points="475.2284,-239.2139 464.6724,-238.3074 472.3592,-245.5988 475.2284,-239.2139"/>
</g>
<!-- drone_controller_util&#45;&gt;drone_controller_calculation_layer_thrust_calculator -->
<g id="edge15" class="edge">
<title>drone_controller_util&#45;&gt;drone_controller_calculation_layer_thrust_calculator</title><style>.edge>path:hover{stroke-width:8}</style>
<path fill="none" stroke="#000000" d="M570.9325,-299.9483C561.422,-287.7688 559.8802,-271.2281 561.2995,-256.1182"/>
<polygon fill="#3bce3b" stroke="#000000" points="564.8018,-256.3402 562.6937,-245.9572 557.8668,-255.3886 564.8018,-256.3402"/>
</g>
<!-- drone_controller_exception_exceptions -->
<g id="node7" class="node">
<title>drone_controller_exception_exceptions</title><style>.edge>path:hover{stroke-width:8}</style>
<ellipse fill="#3bce3b" stroke="#000000" cx="62.9325" cy="-548.9224" rx="62.8651" ry="28.9828"/>
<text text-anchor="middle" x="62.9325" y="-557.4224" font-family="Helvetica,sans-Serif" font-size="10.00" fill="#000000">drone_controller.</text>
<text text-anchor="middle" x="62.9325" y="-546.4224" font-family="Helvetica,sans-Serif" font-size="10.00" fill="#000000">exception.</text>
<text text-anchor="middle" x="62.9325" y="-535.4224" font-family="Helvetica,sans-Serif" font-size="10.00" fill="#000000">exceptions</text>
</g>
<!-- drone_controller_exception_exceptions&#45;&gt;drone_controller_input_layer_request_handler -->
<g id="edge8" class="edge">
<title>drone_controller_exception_exceptions&#45;&gt;drone_controller_input_layer_request_handler</title><style>.edge>path:hover{stroke-width:8}</style>
<path fill="none" stroke="#000000" d="M109.9764,-529.6409C148.9575,-512.3831 199.187,-486.6784 206.9325,-465.931"/>
<path fill="none" stroke="#000000" d="M206.9325,-465.931C233.5876,-394.5316 163.2682,-185.4385 206.9325,-122.9741"/>
</g>
<!-- drone_controller_exception_exceptions&#45;&gt;drone_controller_input_layer_drone_state -->
<g id="edge7" class="edge">
<title>drone_controller_exception_exceptions&#45;&gt;drone_controller_input_layer_drone_state</title><style>.edge>path:hover{stroke-width:8}</style>
<path fill="none" stroke="#000000" d="M110.3314,-529.7647C154.9676,-511.6712 215.7592,-486.8716 220.9325,-483.931 232.5241,-477.3422 235.8793,-475.7196 244.9325,-465.931"/>
<path fill="none" stroke="#000000" d="M244.9325,-465.931C257.5252,-452.3154 268.9628,-435.3361 277.9629,-420.2889"/>
<polygon fill="#3bce3b" stroke="#000000" points="281.2373,-421.6207 283.2403,-411.2169 275.1866,-418.1008 281.2373,-421.6207"/>
</g>
<!-- drone_controller_input_layer -->
<g id="node8" class="node">
<title>drone_controller_input_layer</title><style>.edge>path:hover{stroke-width:8}</style>
<ellipse fill="#2fdb2f" stroke="#000000" cx="767.9325" cy="-382.9396" rx="62.8651" ry="21.4286"/>
<text text-anchor="middle" x="767.9325" y="-385.9396" font-family="Helvetica,sans-Serif" font-size="10.00" fill="#000000">drone_controller.</text>
<text text-anchor="middle" x="767.9325" y="-374.9396" font-family="Helvetica,sans-Serif" font-size="10.00" fill="#000000">input_layer</text>
</g>
<!-- drone_controller_input_layer&#45;&gt;drone_controller_calculation_layer_thrust_calculator -->
<g id="edge9" class="edge">
<title>drone_controller_input_layer&#45;&gt;drone_controller_calculation_layer_thrust_calculator</title><style>.edge>path:hover{stroke-width:8}</style>
<path fill="none" stroke="#000000" d="M775.5721,-361.7347C780.9708,-342.5287 784.6215,-315.0043 767.9325,-299.9483"/>
<path fill="none" stroke="#000000" d="M767.9325,-299.9483C731.3246,-266.9222 679.659,-245.8237 638.4224,-233.1673"/>
<polygon fill="#2fdb2f" stroke="#000000" points="639.3017,-229.7774 628.719,-230.2843 637.308,-236.4875 639.3017,-229.7774"/>
</g>
<!-- drone_controller_calculation_layer_thrust_calculator&#45;&gt;drone_controller_input_layer_request_handler -->
<g id="edge4" class="edge">
<title>drone_controller_calculation_layer_thrust_calculator&#45;&gt;drone_controller_input_layer_request_handler</title><style>.edge>path:hover{stroke-width:8}</style>
<path fill="none" stroke="#000000" d="M521.9224,-197.8599C473.7702,-178.0606 405.2123,-146.7371 388.9325,-122.9741"/>
</g>
<!-- drone_controller_input_layer_drone_state&#45;&gt;drone_controller_input_layer_drone_state_mapper -->
<g id="edge12" class="edge">
<title>drone_controller_input_layer_drone_state&#45;&gt;drone_controller_input_layer_drone_state_mapper</title><style>.edge>path:hover{stroke-width:8}</style>
<path fill="none" stroke="#000000" d="M311.9325,-299.9483C320.4931,-277.1409 339.6395,-258.9276 359.0592,-245.4411"/>
<polygon fill="#23c823" stroke="#000000" points="361.2445,-248.1926 367.665,-239.7648 357.3902,-242.3492 361.2445,-248.1926"/>
</g>
<!-- drone_controller_input_layer_drone_state&#45;&gt;drone_controller_input_layer_request_handler -->
<g id="edge13" class="edge">
<title>drone_controller_input_layer_drone_state&#45;&gt;drone_controller_input_layer_request_handler</title><style>.edge>path:hover{stroke-width:8}</style>
<path fill="none" stroke="#000000" d="M300.0915,-353.8061C301.9702,-337.5588 305.4628,-317.1849 311.9325,-299.9483"/>
<path fill="none" stroke="#000000" d="M311.9325,-299.9483C329.672,-252.6864 306.8757,-232.3462 330.9325,-187.9655 349.3819,-153.9294 410.8134,-154.9126 388.9325,-122.9741"/>
<path fill="none" stroke="#000000" d="M388.9325,-122.9741C379.9897,-110.4298 379.9548,-105.6826 369.9325,-93.9828 360.0524,-82.449 348.1977,-70.9757 336.9859,-60.9516"/>
<polygon fill="#23c823" stroke="#000000" points="339.1842,-58.2242 329.3588,-54.2605 334.5679,-63.4863 339.1842,-58.2242"/>
</g>
<!-- drone_controller_input_layer_drone_state&#45;&gt;drone_controller_calculation_layer_thrust_calculator -->
<g id="edge11" class="edge">
<title>drone_controller_input_layer_drone_state&#45;&gt;drone_controller_calculation_layer_thrust_calculator</title><style>.edge>path:hover{stroke-width:8}</style>
<path fill="none" stroke="#000000" d="M344.2441,-363.0411C375.2736,-348.3538 415.9593,-326.3731 446.9325,-299.9483"/>
<path fill="none" stroke="#000000" d="M446.9325,-299.9483C470.4515,-279.883 498.991,-260.4895 522.7585,-245.5023"/>
<polygon fill="#23c823" stroke="#000000" points="524.6481,-248.4487 531.2809,-240.1869 520.9437,-242.5092 524.6481,-248.4487"/>
</g>
<!-- drone_controller_calculation_layer -->
<g id="node11" class="node">
<title>drone_controller_calculation_layer</title><style>.edge>path:hover{stroke-width:8}</style>
<ellipse fill="#47c247" stroke="#000000" cx="115.9325" cy="-216.9569" rx="62.8651" ry="21.4286"/>
<text text-anchor="middle" x="115.9325" y="-219.9569" font-family="Helvetica,sans-Serif" font-size="10.00" fill="#000000">drone_controller.</text>
<text text-anchor="middle" x="115.9325" y="-208.9569" font-family="Helvetica,sans-Serif" font-size="10.00" fill="#000000">calculation_layer</text>
</g>
<!-- drone_controller_calculation_layer&#45;&gt;drone_controller_input_layer_request_handler -->
<g id="edge3" class="edge">
<title>drone_controller_calculation_layer&#45;&gt;drone_controller_input_layer_request_handler</title><style>.edge>path:hover{stroke-width:8}</style>
<path fill="none" stroke="#000000" d="M138.9929,-197.0359C158.7814,-179.0958 187.154,-151.2684 206.9325,-122.9741"/>
<path fill="none" stroke="#000000" d="M206.9325,-122.9741C215.7588,-110.3476 215.9102,-105.6826 225.9325,-93.9828 235.8126,-82.449 247.6673,-70.9757 258.8791,-60.9516"/>
<polygon fill="#47c247" stroke="#000000" points="261.2971,-63.4863 266.5062,-54.2605 256.6808,-58.2242 261.2971,-63.4863"/>
</g>
<!-- attr -->
<g id="node12" class="node">
<title>attr</title><style>.edge>path:hover{stroke-width:8}</style>
<polygon fill="#99b03a" stroke="#000000" points="940.9325,-400.9396 937.9325,-404.9396 916.9325,-404.9396 913.9325,-400.9396 886.9325,-400.9396 886.9325,-364.9396 940.9325,-364.9396 940.9325,-400.9396"/>
<text text-anchor="middle" x="913.9325" y="-380.4396" font-family="Helvetica,sans-Serif" font-size="10.00" fill="#000000">attr</text>
</g>
<!-- pytest -->
<g id="node23" class="node">
<title>pytest</title><style>.edge>path:hover{stroke-width:8}</style>
<polygon fill="#ddb518" stroke="#000000" points="995.9325,-140.9741 992.9325,-144.9741 971.9325,-144.9741 968.9325,-140.9741 941.9325,-140.9741 941.9325,-104.9741 995.9325,-104.9741 995.9325,-140.9741"/>
<text text-anchor="middle" x="968.9325" y="-120.4741" font-family="Helvetica,sans-Serif" font-size="10.00" fill="#000000">pytest</text>
</g>
<!-- attr&#45;&gt;pytest -->
<g id="edge1" class="edge">
<title>attr&#45;&gt;pytest</title><style>.edge>path:hover{stroke-width:8}</style>
<path fill="none" stroke="#000000" d="M917.6902,-364.9235C924.8728,-330.5194 941.0704,-253.0923 954.9325,-187.9655 957.5081,-175.8649 960.3812,-162.5037 962.8512,-151.0589"/>
<polygon fill="#99b03a" stroke="#000000" points="966.2951,-151.6919 964.9861,-141.1783 959.453,-150.2135 966.2951,-151.6919"/>
</g>
<!-- chardet -->
<g id="node13" class="node">
<title>chardet</title><style>.edge>path:hover{stroke-width:8}</style>
<polygon fill="#507934" stroke="#000000" points="1048.9325,-830.9138 1045.9325,-834.9138 1024.9325,-834.9138 1021.9325,-830.9138 994.9325,-830.9138 994.9325,-794.9138 1048.9325,-794.9138 1048.9325,-830.9138"/>
<text text-anchor="middle" x="1021.9325" y="-810.4138" font-family="Helvetica,sans-Serif" font-size="10.00" fill="#ffffff">chardet</text>
</g>
<!-- pygments -->
<g id="node22" class="node">
<title>pygments</title><style>.edge>path:hover{stroke-width:8}</style>
<polygon fill="#853399" stroke="#000000" points="1039.4325,-721.9138 1036.4325,-725.9138 1015.4325,-725.9138 1012.4325,-721.9138 980.4325,-721.9138 980.4325,-685.9138 1039.4325,-685.9138 1039.4325,-721.9138"/>
<text text-anchor="middle" x="1009.9325" y="-701.4138" font-family="Helvetica,sans-Serif" font-size="10.00" fill="#ffffff">pygments</text>
</g>
<!-- chardet&#45;&gt;pygments -->
<g id="edge2" class="edge">
<title>chardet&#45;&gt;pygments</title><style>.edge>path:hover{stroke-width:8}</style>
<path fill="none" stroke="#000000" d="M1019.8969,-794.4234C1018.0237,-777.409 1015.2175,-751.9193 1013.0599,-732.3214"/>
<polygon fill="#507934" stroke="#000000" points="1016.5115,-731.688 1011.9381,-722.1311 1009.5535,-732.4541 1016.5115,-731.688"/>
</g>
<!-- imp -->
<g id="node14" class="node">
<title>imp</title><style>.edge>path:hover{stroke-width:8}</style>
<polygon fill="#b67b53" stroke="#000000" points="929.9325,-902.9138 926.9325,-906.9138 905.9325,-906.9138 902.9325,-902.9138 875.9325,-902.9138 875.9325,-866.9138 929.9325,-866.9138 929.9325,-902.9138"/>
<text text-anchor="middle" x="902.9325" y="-882.4138" font-family="Helvetica,sans-Serif" font-size="10.00" fill="#000000">imp</text>
</g>
<!-- pkgresources -->
<g id="node19" class="node">
<title>pkgresources</title><style>.edge>path:hover{stroke-width:8}</style>
<polygon fill="#3370cc" stroke="#000000" points="976.4325,-830.9138 973.4325,-834.9138 952.4325,-834.9138 949.4325,-830.9138 901.4325,-830.9138 901.4325,-794.9138 976.4325,-794.9138 976.4325,-830.9138"/>
<text text-anchor="middle" x="938.9325" y="-810.4138" font-family="Helvetica,sans-Serif" font-size="10.00" fill="#ffffff">pkgresources</text>
</g>
<!-- imp&#45;&gt;pkgresources -->
<g id="edge19" class="edge">
<title>imp&#45;&gt;pkgresources</title><style>.edge>path:hover{stroke-width:8}</style>
<path fill="none" stroke="#000000" d="M912.0168,-866.7451C915.994,-858.7909 920.748,-849.2828 925.1464,-840.4861"/>
<polygon fill="#b67b53" stroke="#000000" points="928.3842,-841.8366 929.7259,-831.327 922.1232,-838.7061 928.3842,-841.8366"/>
</g>
<!-- main -->
<g id="node15" class="node">
<title>main</title><style>.edge>path:hover{stroke-width:8}</style>
<polygon fill="#6b2e2e" stroke="#000000" points="1001.9325,-902.9138 998.9325,-906.9138 977.9325,-906.9138 974.9325,-902.9138 947.9325,-902.9138 947.9325,-866.9138 1001.9325,-866.9138 1001.9325,-902.9138"/>
<text text-anchor="middle" x="974.9325" y="-882.4138" font-family="Helvetica,sans-Serif" font-size="10.00" fill="#ffffff">main</text>
</g>
<!-- main&#45;&gt;pkgresources -->
<g id="edge20" class="edge">
<title>main&#45;&gt;pkgresources</title><style>.edge>path:hover{stroke-width:8}</style>
<path fill="none" stroke="#000000" d="M965.8482,-866.7451C961.8711,-858.7909 957.117,-849.2828 952.7186,-840.4861"/>
<polygon fill="#6b2e2e" stroke="#000000" points="955.7418,-838.7061 948.1391,-831.327 949.4808,-841.8366 955.7418,-838.7061"/>
</g>
<!-- moreitertools -->
<g id="node16" class="node">
<title>moreitertools</title><style>.edge>path:hover{stroke-width:8}</style>
<polygon fill="#47c278" stroke="#000000" points="1180.4325,-317.9483 1177.4325,-321.9483 1156.4325,-321.9483 1153.4325,-317.9483 1107.4325,-317.9483 1107.4325,-281.9483 1180.4325,-281.9483 1180.4325,-317.9483"/>
<text text-anchor="middle" x="1143.9325" y="-297.4483" font-family="Helvetica,sans-Serif" font-size="10.00" fill="#000000">moreitertools</text>
</g>
<!-- moreitertools&#45;&gt;pytest -->
<g id="edge21" class="edge">
<title>moreitertools&#45;&gt;pytest</title><style>.edge>path:hover{stroke-width:8}</style>
<path fill="none" stroke="#000000" d="M1123.2611,-281.7626C1105.7351,-265.7354 1080.5516,-241.2215 1061.9325,-216.9569"/>
</g>
<!-- numpy -->
<g id="node17" class="node">
<title>numpy</title><style>.edge>path:hover{stroke-width:8}</style>
<polygon fill="#46a492" stroke="#000000" points="919.9325,-483.931 916.9325,-487.931 895.9325,-487.931 892.9325,-483.931 865.9325,-483.931 865.9325,-447.931 919.9325,-447.931 919.9325,-483.931"/>
<text text-anchor="middle" x="892.9325" y="-463.431" font-family="Helvetica,sans-Serif" font-size="10.00" fill="#000000">numpy</text>
</g>
<!-- numpy&#45;&gt;drone_controller_input_layer_drone_state_mapper -->
<g id="edge23" class="edge">
<title>numpy&#45;&gt;drone_controller_input_layer_drone_state_mapper</title><style>.edge>path:hover{stroke-width:8}</style>
<path fill="none" stroke="#000000" d="M865.704,-464.4391C794.3701,-460.0949 603.9691,-445.5686 551.9325,-411.931 526.0568,-395.2044 531.4656,-379.2845 513.9325,-353.9483 489.9399,-319.2778 461.5021,-280.5344 441.0977,-253.1207"/>
<polygon fill="#46a492" stroke="#000000" points="443.821,-250.9178 435.0371,-244.9938 438.2096,-255.1025 443.821,-250.9178"/>
</g>
<!-- numpy&#45;&gt;drone_controller_calculation_layer_thrust_calculator -->
<g id="edge22" class="edge">
<title>numpy&#45;&gt;drone_controller_calculation_layer_thrust_calculator</title><style>.edge>path:hover{stroke-width:8}</style>
<path fill="none" stroke="#000000" d="M887.3879,-447.7465C879.5799,-424.2538 863.6012,-382.9391 839.9325,-353.9483 814.6357,-322.9632 797.6324,-326.7422 767.9325,-299.9483"/>
</g>
<!-- numpy&#45;&gt;pytest -->
<g id="edge24" class="edge">
<title>numpy&#45;&gt;pytest</title><style>.edge>path:hover{stroke-width:8}</style>
<path fill="none" stroke="#000000" d="M927.4875,-440.9774C936.3254,-432.773 944.7787,-422.9057 949.9325,-411.931 991.1176,-324.2298 981.0606,-204.8114 973.5727,-151.1347"/>
<polygon fill="#46a492" stroke="#000000" points="924.9499,-438.5456 919.6951,-447.7455 929.5401,-443.8305 924.9499,-438.5456"/>
<polygon fill="#46a492" stroke="#000000" points="977.0009,-150.391 972.0792,-141.0088 970.0758,-151.4125 977.0009,-150.391"/>
</g>
<!-- packaging -->
<g id="node18" class="node">
<title>packaging</title><style>.edge>path:hover{stroke-width:8}</style>
<polygon fill="#53a2b6" stroke="#000000" points="1259.4325,-317.9483 1256.4325,-321.9483 1235.4325,-321.9483 1232.4325,-317.9483 1198.4325,-317.9483 1198.4325,-281.9483 1259.4325,-281.9483 1259.4325,-317.9483"/>
<text text-anchor="middle" x="1228.9325" y="-297.4483" font-family="Helvetica,sans-Serif" font-size="10.00" fill="#000000">packaging</text>
</g>
<!-- packaging&#45;&gt;pytest -->
<g id="edge25" class="edge">
<title>packaging&#45;&gt;pytest</title><style>.edge>path:hover{stroke-width:8}</style>
<path fill="none" stroke="#000000" d="M1198.1917,-285.5291C1151.2135,-263.3726 1066.478,-222.8806 1061.9325,-216.9569"/>
</g>
<!-- py -->
<g id="node21" class="node">
<title>py</title><style>.edge>path:hover{stroke-width:8}</style>
<polygon fill="#754cb3" stroke="#000000" points="978.9325,-649.9138 975.9325,-653.9138 954.9325,-653.9138 951.9325,-649.9138 924.9325,-649.9138 924.9325,-613.9138 978.9325,-613.9138 978.9325,-649.9138"/>
<text text-anchor="middle" x="951.9325" y="-629.4138" font-family="Helvetica,sans-Serif" font-size="10.00" fill="#ffffff">py</text>
</g>
<!-- pkgresources&#45;&gt;py -->
<g id="edge26" class="edge">
<title>pkgresources&#45;&gt;py</title><style>.edge>path:hover{stroke-width:8}</style>
<path fill="none" stroke="#000000" d="M951.9325,-758.4138C955.7805,-724.8122 954.9988,-685.86 953.7651,-660.1543"/>
<polygon fill="#3370cc" stroke="#000000" points="957.2513,-659.8011 953.2209,-650.0029 950.2613,-660.1759 957.2513,-659.8011"/>
</g>
<!-- pkgresources&#45;&gt;pygments -->
<g id="edge27" class="edge">
<title>pkgresources&#45;&gt;pygments</title><style>.edge>path:hover{stroke-width:8}</style>
<path fill="none" stroke="#000000" d="M951.9325,-758.4138C953.4483,-745.1773 962.0503,-734.1803 972.1856,-725.6135"/>
<polygon fill="#3370cc" stroke="#000000" points="974.3178,-728.389 980.1429,-719.5392 970.0704,-722.8249 974.3178,-728.389"/>
</g>
<!-- setuptools -->
<g id="node24" class="node">
<title>setuptools</title><style>.edge>path:hover{stroke-width:8}</style>
<polygon fill="#b3044a" stroke="#000000" points="923.9325,-721.9138 920.9325,-725.9138 899.9325,-725.9138 896.9325,-721.9138 861.9325,-721.9138 861.9325,-685.9138 923.9325,-685.9138 923.9325,-721.9138"/>
<text text-anchor="middle" x="892.9325" y="-701.4138" font-family="Helvetica,sans-Serif" font-size="10.00" fill="#ffffff">setuptools</text>
</g>
<!-- pkgresources&#45;&gt;setuptools -->
<g id="edge28" class="edge">
<title>pkgresources&#45;&gt;setuptools</title><style>.edge>path:hover{stroke-width:8}</style>
<path fill="none" stroke="#000000" d="M944.438,-794.6939C947.3166,-784.196 950.527,-770.6872 951.9325,-758.4138"/>
<path fill="none" stroke="#000000" d="M951.9325,-758.4138C953.5825,-744.0058 944.1545,-732.3097 932.3772,-723.4999"/>
<polygon fill="#3370cc" stroke="#000000" points="934.2129,-720.517 923.9555,-717.8641 930.3197,-726.3345 934.2129,-720.517"/>
</g>
<!-- pluggy -->
<g id="node20" class="node">
<title>pluggy</title><style>.edge>path:hover{stroke-width:8}</style>
<polygon fill="#5353b6" stroke="#000000" points="1088.9325,-317.9483 1085.9325,-321.9483 1064.9325,-321.9483 1061.9325,-317.9483 1034.9325,-317.9483 1034.9325,-281.9483 1088.9325,-281.9483 1088.9325,-317.9483"/>
<text text-anchor="middle" x="1061.9325" y="-297.4483" font-family="Helvetica,sans-Serif" font-size="10.00" fill="#ffffff">pluggy</text>
</g>
<!-- pluggy&#45;&gt;pytest -->
<g id="edge29" class="edge">
<title>pluggy&#45;&gt;pytest</title><style>.edge>path:hover{stroke-width:8}</style>
<path fill="none" stroke="#000000" d="M1067.7666,-281.7473C1072.4135,-263.4408 1076.0542,-235.3604 1061.9325,-216.9569"/>
</g>
<!-- py&#45;&gt;pytest -->
<g id="edge30" class="edge">
<title>py&#45;&gt;pytest</title><style>.edge>path:hover{stroke-width:8}</style>
<path fill="none" stroke="#000000" d="M970.5754,-613.8638C984.871,-598.291 1002.8296,-574.3482 1006.9325,-548.9224"/>
<path fill="none" stroke="#000000" d="M1006.9325,-548.9224C1025.8827,-431.4863 992.0939,-395.9891 1025.9325,-281.9483 1035.3256,-250.2921 1082.0342,-243.1536 1061.9325,-216.9569"/>
<path fill="none" stroke="#000000" d="M1061.9325,-216.9569C1042.0513,-191.8591 1016.2259,-166.21 996.836,-148.0611"/>
<polygon fill="#754cb3" stroke="#000000" points="999.1977,-145.478 989.4835,-141.249 994.4403,-150.6129 999.1977,-145.478"/>
</g>
<!-- pygments&#45;&gt;pytest -->
<g id="edge31" class="edge">
<title>pygments&#45;&gt;pytest</title><style>.edge>path:hover{stroke-width:8}</style>
<path fill="none" stroke="#000000" d="M1007.1339,-685.5697C1003.2196,-656.3448 997.5765,-597.551 1006.9325,-548.9224"/>
</g>
<!-- setuptools&#45;&gt;numpy -->
<g id="edge33" class="edge">
<title>setuptools&#45;&gt;numpy</title><style>.edge>path:hover{stroke-width:8}</style>
<path fill="none" stroke="#000000" d="M892.9325,-685.6348C892.9325,-644.3501 892.9325,-543.6519 892.9325,-494.2317"/>
<polygon fill="#b3044a" stroke="#000000" points="896.4326,-493.9465 892.9325,-483.9465 889.4326,-493.9465 896.4326,-493.9465"/>
</g>
</g>
</svg>
