<?xml version="1.0" encoding="UTF-8" standalone="no"?>
<!DOCTYPE svg PUBLIC "-//W3C//DTD SVG 1.1//EN"
 "http://www.w3.org/Graphics/SVG/1.1/DTD/svg11.dtd">
<!-- Generated by graphviz version 2.40.1 (20161225.0304)
 -->
<!-- Title: G Pages: 1 -->
<svg width="1277pt" height="1065pt"
 viewBox="0.00 0.00 1276.93 1064.70" xmlns="http://www.w3.org/2000/svg" xmlns:xlink="http://www.w3.org/1999/xlink">
<g id="graph0" class="graph" transform="scale(1 1) rotate(0) translate(4 1060.6955)">
<title>G</title><style>.edge>path:hover{stroke-width:8}</style>
<polygon fill="#ffffff" stroke="transparent" points="-4,4 -4,-1060.6955 1272.9325,-1060.6955 1272.9325,4 -4,4"/>
<!-- src_drone_controller_input_layer_request_handler -->
<g id="node1" class="node">
<title>src_drone_controller_input_layer_request_handler</title><style>.edge>path:hover{stroke-width:8}</style>
<ellipse fill="#72314b" stroke="#000000" cx="327.9325" cy="-36.7696" rx="62.8651" ry="36.5405"/>
<text text-anchor="middle" x="327.9325" y="-50.7696" font-family="Helvetica,sans-Serif" font-size="10.00" fill="#ffffff">src.</text>
<text text-anchor="middle" x="327.9325" y="-39.7696" font-family="Helvetica,sans-Serif" font-size="10.00" fill="#ffffff">drone_controller.</text>
<text text-anchor="middle" x="327.9325" y="-28.7696" font-family="Helvetica,sans-Serif" font-size="10.00" fill="#ffffff">input_layer.</text>
<text text-anchor="middle" x="327.9325" y="-17.7696" font-family="Helvetica,sans-Serif" font-size="10.00" fill="#ffffff">request_handler</text>
</g>
<!-- src_drone_controller_input_layer -->
<g id="node2" class="node">
<title>src_drone_controller_input_layer</title><style>.edge>path:hover{stroke-width:8}</style>
<ellipse fill="#db2f73" stroke="#000000" cx="738.9325" cy="-402.3869" rx="62.8651" ry="28.9828"/>
<text text-anchor="middle" x="738.9325" y="-410.8869" font-family="Helvetica,sans-Serif" font-size="10.00" fill="#ffffff">src.</text>
<text text-anchor="middle" x="738.9325" y="-399.8869" font-family="Helvetica,sans-Serif" font-size="10.00" fill="#ffffff">drone_controller.</text>
<text text-anchor="middle" x="738.9325" y="-388.8869" font-family="Helvetica,sans-Serif" font-size="10.00" fill="#ffffff">input_layer</text>
</g>
<!-- src_drone_controller_calculation_layer_thrust_calculator -->
<g id="node9" class="node">
<title>src_drone_controller_calculation_layer_thrust_calculator</title><style>.edge>path:hover{stroke-width:8}</style>
<ellipse fill="#913057" stroke="#000000" cx="594.9325" cy="-255.8478" rx="65.1077" ry="36.5405"/>
<text text-anchor="middle" x="594.9325" y="-269.8478" font-family="Helvetica,sans-Serif" font-size="10.00" fill="#ffffff">src.</text>
<text text-anchor="middle" x="594.9325" y="-258.8478" font-family="Helvetica,sans-Serif" font-size="10.00" fill="#ffffff">drone_controller.</text>
<text text-anchor="middle" x="594.9325" y="-247.8478" font-family="Helvetica,sans-Serif" font-size="10.00" fill="#ffffff">calculation_layer.</text>
<text text-anchor="middle" x="594.9325" y="-236.8478" font-family="Helvetica,sans-Serif" font-size="10.00" fill="#ffffff">thrust_calculator</text>
</g>
<!-- src_drone_controller_input_layer&#45;&gt;src_drone_controller_calculation_layer_thrust_calculator -->
<g id="edge24" class="edge">
<title>src_drone_controller_input_layer&#45;&gt;src_drone_controller_calculation_layer_thrust_calculator</title><style>.edge>path:hover{stroke-width:8}</style>
<path fill="none" stroke="#000000" d="M747.9963,-373.6469C750.9239,-358.1624 750.831,-340.0447 738.9325,-329.1173"/>
<path fill="none" stroke="#000000" d="M738.9325,-329.1173C716.1089,-308.1565 686.1671,-291.6418 659.5011,-279.6393"/>
<polygon fill="#db2f73" stroke="#000000" points="660.7874,-276.3818 650.2227,-275.5821 657.9828,-282.7954 660.7874,-276.3818"/>
</g>
<!-- src_drone_controller_exception -->
<g id="node3" class="node">
<title>src_drone_controller_exception</title><style>.edge>path:hover{stroke-width:8}</style>
<ellipse fill="#ce3b76" stroke="#000000" cx="62.9325" cy="-548.926" rx="62.8651" ry="28.9828"/>
<text text-anchor="middle" x="62.9325" y="-557.426" font-family="Helvetica,sans-Serif" font-size="10.00" fill="#ffffff">src.</text>
<text text-anchor="middle" x="62.9325" y="-546.426" font-family="Helvetica,sans-Serif" font-size="10.00" fill="#ffffff">drone_controller.</text>
<text text-anchor="middle" x="62.9325" y="-535.426" font-family="Helvetica,sans-Serif" font-size="10.00" fill="#ffffff">exception</text>
</g>
<!-- src_drone_controller_exception&#45;&gt;src_drone_controller_input_layer_request_handler -->
<g id="edge21" class="edge">
<title>src_drone_controller_exception&#45;&gt;src_drone_controller_input_layer_request_handler</title><style>.edge>path:hover{stroke-width:8}</style>
<path fill="none" stroke="#000000" d="M80.9367,-521.0095C90.6063,-506.8422 103.146,-489.7052 115.9325,-475.6564"/>
<path fill="none" stroke="#000000" d="M115.9325,-475.6564C140.6241,-448.5273 149.2912,-438.7754 153.9325,-402.3869"/>
<path fill="none" stroke="#000000" d="M153.9325,-402.3869C162.4454,-335.6449 161.2531,-315.7287 191.9325,-255.8478"/>
<path fill="none" stroke="#000000" d="M191.9325,-255.8478C199.7295,-239.1871 200.1174,-233.9579 210.9325,-219.0782 237.6823,-182.2753 290.1678,-191.227 282.9325,-146.3087"/>
<path fill="none" stroke="#000000" d="M282.9325,-146.3087C279.2183,-123.2501 287.6619,-99.0859 298.2045,-79.338"/>
<polygon fill="#ce3b76" stroke="#000000" points="301.2737,-81.0208 303.1599,-70.5953 295.1839,-77.5691 301.2737,-81.0208"/>
</g>
<!-- src_drone_controller_input_layer_drone_state -->
<g id="node6" class="node">
<title>src_drone_controller_input_layer_drone_state</title><style>.edge>path:hover{stroke-width:8}</style>
<ellipse fill="#bf2160" stroke="#000000" cx="244.9325" cy="-402.3869" rx="62.8651" ry="36.5405"/>
<text text-anchor="middle" x="244.9325" y="-416.3869" font-family="Helvetica,sans-Serif" font-size="10.00" fill="#ffffff">src.</text>
<text text-anchor="middle" x="244.9325" y="-405.3869" font-family="Helvetica,sans-Serif" font-size="10.00" fill="#ffffff">drone_controller.</text>
<text text-anchor="middle" x="244.9325" y="-394.3869" font-family="Helvetica,sans-Serif" font-size="10.00" fill="#ffffff">input_layer.</text>
<text text-anchor="middle" x="244.9325" y="-383.3869" font-family="Helvetica,sans-Serif" font-size="10.00" fill="#ffffff">drone_state</text>
</g>
<!-- src_drone_controller_exception&#45;&gt;src_drone_controller_input_layer_drone_state -->
<g id="edge20" class="edge">
<title>src_drone_controller_exception&#45;&gt;src_drone_controller_input_layer_drone_state</title><style>.edge>path:hover{stroke-width:8}</style>
<path fill="none" stroke="#000000" d="M115.9325,-475.6564C126.8518,-463.6592 158.2597,-445.7282 187.3488,-430.6078"/>
<polygon fill="#ce3b76" stroke="#000000" points="188.9853,-433.702 196.2767,-426.0152 185.7833,-427.4773 188.9853,-433.702"/>
</g>
<!-- src_drone_controller_util_list_operators -->
<g id="node4" class="node">
<title>src_drone_controller_util_list_operators</title><style>.edge>path:hover{stroke-width:8}</style>
<ellipse fill="#ce3b76" stroke="#000000" cx="450.9325" cy="-402.3869" rx="62.8651" ry="36.5405"/>
<text text-anchor="middle" x="450.9325" y="-416.3869" font-family="Helvetica,sans-Serif" font-size="10.00" fill="#ffffff">src.</text>
<text text-anchor="middle" x="450.9325" y="-405.3869" font-family="Helvetica,sans-Serif" font-size="10.00" fill="#ffffff">drone_controller.</text>
<text text-anchor="middle" x="450.9325" y="-394.3869" font-family="Helvetica,sans-Serif" font-size="10.00" fill="#ffffff">util.</text>
<text text-anchor="middle" x="450.9325" y="-383.3869" font-family="Helvetica,sans-Serif" font-size="10.00" fill="#ffffff">list_operators</text>
</g>
<!-- src_drone_controller_input_layer_drone_state_mapper -->
<g id="node8" class="node">
<title>src_drone_controller_input_layer_drone_state_mapper</title><style>.edge>path:hover{stroke-width:8}</style>
<ellipse fill="#913057" stroke="#000000" cx="437.9325" cy="-255.8478" rx="74.4932" ry="36.5405"/>
<text text-anchor="middle" x="437.9325" y="-269.8478" font-family="Helvetica,sans-Serif" font-size="10.00" fill="#ffffff">src.</text>
<text text-anchor="middle" x="437.9325" y="-258.8478" font-family="Helvetica,sans-Serif" font-size="10.00" fill="#ffffff">drone_controller.</text>
<text text-anchor="middle" x="437.9325" y="-247.8478" font-family="Helvetica,sans-Serif" font-size="10.00" fill="#ffffff">input_layer.</text>
<text text-anchor="middle" x="437.9325" y="-236.8478" font-family="Helvetica,sans-Serif" font-size="10.00" fill="#ffffff">drone_state_mapper</text>
</g>
<!-- src_drone_controller_util_list_operators&#45;&gt;src_drone_controller_input_layer_drone_state_mapper -->
<g id="edge33" class="edge">
<title>src_drone_controller_util_list_operators&#45;&gt;src_drone_controller_input_layer_drone_state_mapper</title><style>.edge>path:hover{stroke-width:8}</style>
<path fill="none" stroke="#000000" d="M422.3854,-369.5173C414.9979,-357.3577 409.8696,-343.1156 412.9325,-329.1173"/>
</g>
<!-- src_drone_controller_util_list_operators&#45;&gt;src_drone_controller_calculation_layer_thrust_calculator -->
<g id="edge32" class="edge">
<title>src_drone_controller_util_list_operators&#45;&gt;src_drone_controller_calculation_layer_thrust_calculator</title><style>.edge>path:hover{stroke-width:8}</style>
<path fill="none" stroke="#000000" d="M439.3647,-365.9237C437.2225,-351.4436 438.7459,-336.4969 450.9325,-329.1173"/>
</g>
<!-- src_drone_controller_exception_exceptions -->
<g id="node5" class="node">
<title>src_drone_controller_exception_exceptions</title><style>.edge>path:hover{stroke-width:8}</style>
<ellipse fill="#ce3b76" stroke="#000000" cx="206.9325" cy="-548.926" rx="62.8651" ry="36.5405"/>
<text text-anchor="middle" x="206.9325" y="-562.926" font-family="Helvetica,sans-Serif" font-size="10.00" fill="#ffffff">src.</text>
<text text-anchor="middle" x="206.9325" y="-551.926" font-family="Helvetica,sans-Serif" font-size="10.00" fill="#ffffff">drone_controller.</text>
<text text-anchor="middle" x="206.9325" y="-540.926" font-family="Helvetica,sans-Serif" font-size="10.00" fill="#ffffff">exception.</text>
<text text-anchor="middle" x="206.9325" y="-529.926" font-family="Helvetica,sans-Serif" font-size="10.00" fill="#ffffff">exceptions</text>
</g>
<!-- src_drone_controller_exception_exceptions&#45;&gt;src_drone_controller_input_layer_request_handler -->
<g id="edge23" class="edge">
<title>src_drone_controller_exception_exceptions&#45;&gt;src_drone_controller_input_layer_request_handler</title><style>.edge>path:hover{stroke-width:8}</style>
<path fill="none" stroke="#000000" d="M172.4924,-517.9407C162.6941,-505.9583 154.4859,-491.3462 153.9325,-475.6564"/>
<path fill="none" stroke="#000000" d="M153.9325,-475.6564C152.7846,-443.1124 149.8124,-434.6894 153.9325,-402.3869"/>
</g>
<!-- src_drone_controller_exception_exceptions&#45;&gt;src_drone_controller_input_layer_drone_state -->
<g id="edge22" class="edge">
<title>src_drone_controller_exception_exceptions&#45;&gt;src_drone_controller_input_layer_drone_state</title><style>.edge>path:hover{stroke-width:8}</style>
<path fill="none" stroke="#000000" d="M153.9325,-475.6564C153.2167,-455.3622 166.9788,-439.7351 184.0042,-428.2286"/>
<polygon fill="#ce3b76" stroke="#000000" points="185.9246,-431.1561 192.5751,-422.9086 182.233,-425.2087 185.9246,-431.1561"/>
</g>
<!-- src_drone_controller_input_layer_drone_state&#45;&gt;src_drone_controller_input_layer_request_handler -->
<g id="edge28" class="edge">
<title>src_drone_controller_input_layer_drone_state&#45;&gt;src_drone_controller_input_layer_request_handler</title><style>.edge>path:hover{stroke-width:8}</style>
<path fill="none" stroke="#000000" d="M207.5741,-372.4806C196.758,-360.1978 188.6302,-345.1073 191.9325,-329.1173"/>
<path fill="none" stroke="#000000" d="M191.9325,-329.1173C198.5188,-297.2261 177.0839,-284.8297 191.9325,-255.8478"/>
</g>
<!-- src_drone_controller_input_layer_drone_state&#45;&gt;src_drone_controller_input_layer_drone_state_mapper -->
<g id="edge27" class="edge">
<title>src_drone_controller_input_layer_drone_state&#45;&gt;src_drone_controller_input_layer_drone_state_mapper</title><style>.edge>path:hover{stroke-width:8}</style>
<path fill="none" stroke="#000000" d="M191.9325,-329.1173C199.4401,-292.7652 319.6819,-304.2465 354.9325,-292.6173 361.3683,-290.4941 367.9838,-288.0468 374.537,-285.4442"/>
<polygon fill="#bf2160" stroke="#000000" points="376.1396,-288.57 384.0656,-281.5395 373.4852,-282.0928 376.1396,-288.57"/>
</g>
<!-- src_drone_controller_input_layer_drone_state&#45;&gt;src_drone_controller_calculation_layer_thrust_calculator -->
<g id="edge26" class="edge">
<title>src_drone_controller_input_layer_drone_state&#45;&gt;src_drone_controller_calculation_layer_thrust_calculator</title><style>.edge>path:hover{stroke-width:8}</style>
<path fill="none" stroke="#000000" d="M303.2204,-388.473C346.076,-376.6641 404.6634,-357.1356 450.9325,-329.1173"/>
<path fill="none" stroke="#000000" d="M450.9325,-329.1173C459.2272,-324.0944 500.5765,-303.1197 536.8505,-284.8919"/>
<polygon fill="#bf2160" stroke="#000000" points="538.5737,-287.9431 545.9401,-280.3282 535.4328,-281.6873 538.5737,-287.9431"/>
</g>
<!-- src_drone_controller_calculation_layer -->
<g id="node7" class="node">
<title>src_drone_controller_calculation_layer</title><style>.edge>path:hover{stroke-width:8}</style>
<ellipse fill="#c24778" stroke="#000000" cx="282.9325" cy="-255.8478" rx="62.8651" ry="28.9828"/>
<text text-anchor="middle" x="282.9325" y="-264.3478" font-family="Helvetica,sans-Serif" font-size="10.00" fill="#ffffff">src.</text>
<text text-anchor="middle" x="282.9325" y="-253.3478" font-family="Helvetica,sans-Serif" font-size="10.00" fill="#ffffff">drone_controller.</text>
<text text-anchor="middle" x="282.9325" y="-242.3478" font-family="Helvetica,sans-Serif" font-size="10.00" fill="#ffffff">calculation_layer</text>
</g>
<!-- src_drone_controller_calculation_layer&#45;&gt;src_drone_controller_input_layer_request_handler -->
<g id="edge18" class="edge">
<title>src_drone_controller_calculation_layer&#45;&gt;src_drone_controller_input_layer_request_handler</title><style>.edge>path:hover{stroke-width:8}</style>
<path fill="none" stroke="#000000" d="M285.4332,-226.8188C286.743,-204.6243 287.2874,-173.3449 282.9325,-146.3087"/>
</g>
<!-- src_drone_controller_input_layer_drone_state_mapper&#45;&gt;src_drone_controller_input_layer_request_handler -->
<g id="edge29" class="edge">
<title>src_drone_controller_input_layer_drone_state_mapper&#45;&gt;src_drone_controller_input_layer_request_handler</title><style>.edge>path:hover{stroke-width:8}</style>
<path fill="none" stroke="#000000" d="M383.2918,-230.7252C351.1995,-215.1946 314.5277,-195.8557 301.9325,-183.0782 289.0191,-169.978 285.8578,-164.4694 282.9325,-146.3087"/>
</g>
<!-- src_drone_controller_calculation_layer_thrust_calculator&#45;&gt;src_drone_controller_input_layer_request_handler -->
<g id="edge19" class="edge">
<title>src_drone_controller_calculation_layer_thrust_calculator&#45;&gt;src_drone_controller_input_layer_request_handler</title><style>.edge>path:hover{stroke-width:8}</style>
<path fill="none" stroke="#000000" d="M548.043,-229.9534C539.2268,-225.8369 529.9435,-221.985 520.9325,-219.0782 415.6623,-185.1204 300.5227,-255.5127 282.9325,-146.3087"/>
</g>
<!-- src_drone_controller_util -->
<g id="node10" class="node">
<title>src_drone_controller_util</title><style>.edge>path:hover{stroke-width:8}</style>
<ellipse fill="#ce3b76" stroke="#000000" cx="594.9325" cy="-402.3869" rx="62.8651" ry="28.9828"/>
<text text-anchor="middle" x="594.9325" y="-410.8869" font-family="Helvetica,sans-Serif" font-size="10.00" fill="#ffffff">src.</text>
<text text-anchor="middle" x="594.9325" y="-399.8869" font-family="Helvetica,sans-Serif" font-size="10.00" fill="#ffffff">drone_controller.</text>
<text text-anchor="middle" x="594.9325" y="-388.8869" font-family="Helvetica,sans-Serif" font-size="10.00" fill="#ffffff">util</text>
</g>
<!-- src_drone_controller_util&#45;&gt;src_drone_controller_input_layer_drone_state_mapper -->
<g id="edge31" class="edge">
<title>src_drone_controller_util&#45;&gt;src_drone_controller_input_layer_drone_state_mapper</title><style>.edge>path:hover{stroke-width:8}</style>
<path fill="none" stroke="#000000" d="M600.1475,-373.4689C601.382,-359.5264 600.9146,-342.8838 594.9325,-329.1173"/>
<path fill="none" stroke="#000000" d="M594.9325,-329.1173C593.8645,-326.6596 545.3116,-304.2233 502.4841,-284.8185"/>
<polygon fill="#ce3b76" stroke="#000000" points="503.7239,-281.5379 493.1702,-280.605 500.8387,-287.9157 503.7239,-281.5379"/>
</g>
<!-- src_drone_controller_util&#45;&gt;src_drone_controller_calculation_layer_thrust_calculator -->
<g id="edge30" class="edge">
<title>src_drone_controller_util&#45;&gt;src_drone_controller_calculation_layer_thrust_calculator</title><style>.edge>path:hover{stroke-width:8}</style>
<path fill="none" stroke="#000000" d="M594.9325,-329.1173C591.3965,-320.9799 589.7873,-311.8376 589.3175,-302.842"/>
<polygon fill="#ce3b76" stroke="#000000" points="592.8172,-302.7783 589.2292,-292.8095 585.8174,-302.84 592.8172,-302.7783"/>
</g>
<!-- src_drone_controller_input_layer_drone_physics -->
<g id="node11" class="node">
<title>src_drone_controller_input_layer_drone_physics</title><style>.edge>path:hover{stroke-width:8}</style>
<ellipse fill="#c24778" stroke="#000000" cx="373.9325" cy="-146.3087" rx="62.8651" ry="36.5405"/>
<text text-anchor="middle" x="373.9325" y="-160.3087" font-family="Helvetica,sans-Serif" font-size="10.00" fill="#ffffff">src.</text>
<text text-anchor="middle" x="373.9325" y="-149.3087" font-family="Helvetica,sans-Serif" font-size="10.00" fill="#ffffff">drone_controller.</text>
<text text-anchor="middle" x="373.9325" y="-138.3087" font-family="Helvetica,sans-Serif" font-size="10.00" fill="#ffffff">input_layer.</text>
<text text-anchor="middle" x="373.9325" y="-127.3087" font-family="Helvetica,sans-Serif" font-size="10.00" fill="#ffffff">drone_physics</text>
</g>
<!-- src_drone_controller_input_layer_drone_physics&#45;&gt;src_drone_controller_input_layer_request_handler -->
<g id="edge25" class="edge">
<title>src_drone_controller_input_layer_drone_physics&#45;&gt;src_drone_controller_input_layer_request_handler</title><style>.edge>path:hover{stroke-width:8}</style>
<path fill="none" stroke="#000000" d="M358.8704,-110.4415C355.058,-101.363 350.9139,-91.4948 346.9345,-82.0188"/>
<polygon fill="#c24778" stroke="#000000" points="350.1274,-80.5822 343.0285,-72.7173 343.6734,-83.2925 350.1274,-80.5822"/>
</g>
<!-- attr -->
<g id="node12" class="node">
<title>attr</title><style>.edge>path:hover{stroke-width:8}</style>
<polygon fill="#98ac49" stroke="#000000" points="1268.9325,-420.3869 1265.9325,-424.3869 1244.9325,-424.3869 1241.9325,-420.3869 1214.9325,-420.3869 1214.9325,-384.3869 1268.9325,-384.3869 1268.9325,-420.3869"/>
<text text-anchor="middle" x="1241.9325" y="-399.8869" font-family="Helvetica,sans-Serif" font-size="10.00" fill="#000000">attr</text>
</g>
<!-- pytest -->
<g id="node23" class="node">
<title>pytest</title><style>.edge>path:hover{stroke-width:8}</style>
<polygon fill="#937d24" stroke="#000000" points="1065.9325,-273.8478 1062.9325,-277.8478 1041.9325,-277.8478 1038.9325,-273.8478 1011.9325,-273.8478 1011.9325,-237.8478 1065.9325,-237.8478 1065.9325,-273.8478"/>
<text text-anchor="middle" x="1038.9325" y="-253.3478" font-family="Helvetica,sans-Serif" font-size="10.00" fill="#ffffff">pytest</text>
</g>
<!-- attr&#45;&gt;pytest -->
<g id="edge1" class="edge">
<title>attr&#45;&gt;pytest</title><style>.edge>path:hover{stroke-width:8}</style>
<path fill="none" stroke="#000000" d="M1221.9688,-384.3703C1215.2993,-378.3815 1207.8134,-371.6921 1200.9325,-365.6173 1182.393,-349.2499 1171.1074,-350.6435 1158.9325,-329.1173"/>
</g>
<!-- chardet -->
<g id="node13" class="node">
<title>chardet</title><style>.edge>path:hover{stroke-width:8}</style>
<polygon fill="#67f906" stroke="#000000" points="1183.9325,-984.6955 1180.9325,-988.6955 1159.9325,-988.6955 1156.9325,-984.6955 1129.9325,-984.6955 1129.9325,-948.6955 1183.9325,-948.6955 1183.9325,-984.6955"/>
<text text-anchor="middle" x="1156.9325" y="-964.1955" font-family="Helvetica,sans-Serif" font-size="10.00" fill="#000000">chardet</text>
</g>
<!-- pygments -->
<g id="node22" class="node">
<title>pygments</title><style>.edge>path:hover{stroke-width:8}</style>
<polygon fill="#6e26d9" stroke="#000000" points="1180.4325,-875.6955 1177.4325,-879.6955 1156.4325,-879.6955 1153.4325,-875.6955 1121.4325,-875.6955 1121.4325,-839.6955 1180.4325,-839.6955 1180.4325,-875.6955"/>
<text text-anchor="middle" x="1150.9325" y="-855.1955" font-family="Helvetica,sans-Serif" font-size="10.00" fill="#ffffff">pygments</text>
</g>
<!-- chardet&#45;&gt;pygments -->
<g id="edge2" class="edge">
<title>chardet&#45;&gt;pygments</title><style>.edge>path:hover{stroke-width:8}</style>
<path fill="none" stroke="#000000" d="M1155.9147,-948.2052C1154.9781,-931.1908 1153.575,-905.7011 1152.4962,-886.1032"/>
<polygon fill="#67f906" stroke="#000000" points="1155.9797,-885.7053 1151.9353,-875.9128 1148.9903,-886.0901 1155.9797,-885.7053"/>
</g>
<!-- imp -->
<g id="node14" class="node">
<title>imp</title><style>.edge>path:hover{stroke-width:8}</style>
<polygon fill="#b67b53" stroke="#000000" points="1064.9325,-1056.6955 1061.9325,-1060.6955 1040.9325,-1060.6955 1037.9325,-1056.6955 1010.9325,-1056.6955 1010.9325,-1020.6955 1064.9325,-1020.6955 1064.9325,-1056.6955"/>
<text text-anchor="middle" x="1037.9325" y="-1036.1955" font-family="Helvetica,sans-Serif" font-size="10.00" fill="#000000">imp</text>
</g>
<!-- pkgresources -->
<g id="node19" class="node">
<title>pkgresources</title><style>.edge>path:hover{stroke-width:8}</style>
<polygon fill="#33aecc" stroke="#000000" points="1111.4325,-984.6955 1108.4325,-988.6955 1087.4325,-988.6955 1084.4325,-984.6955 1036.4325,-984.6955 1036.4325,-948.6955 1111.4325,-948.6955 1111.4325,-984.6955"/>
<text text-anchor="middle" x="1073.9325" y="-964.1955" font-family="Helvetica,sans-Serif" font-size="10.00" fill="#000000">pkgresources</text>
</g>
<!-- imp&#45;&gt;pkgresources -->
<g id="edge3" class="edge">
<title>imp&#45;&gt;pkgresources</title><style>.edge>path:hover{stroke-width:8}</style>
<path fill="none" stroke="#000000" d="M1047.0168,-1020.5269C1050.994,-1012.5726 1055.748,-1003.0646 1060.1464,-994.2678"/>
<polygon fill="#b67b53" stroke="#000000" points="1063.3842,-995.6183 1064.7259,-985.1088 1057.1232,-992.4878 1063.3842,-995.6183"/>
</g>
<!-- main -->
<g id="node15" class="node">
<title>main</title><style>.edge>path:hover{stroke-width:8}</style>
<polygon fill="#6b2e2e" stroke="#000000" points="1136.9325,-1056.6955 1133.9325,-1060.6955 1112.9325,-1060.6955 1109.9325,-1056.6955 1082.9325,-1056.6955 1082.9325,-1020.6955 1136.9325,-1020.6955 1136.9325,-1056.6955"/>
<text text-anchor="middle" x="1109.9325" y="-1036.1955" font-family="Helvetica,sans-Serif" font-size="10.00" fill="#ffffff">main</text>
</g>
<!-- main&#45;&gt;pkgresources -->
<g id="edge4" class="edge">
<title>main&#45;&gt;pkgresources</title><style>.edge>path:hover{stroke-width:8}</style>
<path fill="none" stroke="#000000" d="M1100.8482,-1020.5269C1096.8711,-1012.5726 1092.117,-1003.0646 1087.7186,-994.2678"/>
<polygon fill="#6b2e2e" stroke="#000000" points="1090.7418,-992.4878 1083.1391,-985.1088 1084.4808,-995.6183 1090.7418,-992.4878"/>
</g>
<!-- moreitertools -->
<g id="node16" class="node">
<title>moreitertools</title><style>.edge>path:hover{stroke-width:8}</style>
<polygon fill="#40c040" stroke="#000000" points="931.4325,-420.3869 928.4325,-424.3869 907.4325,-424.3869 904.4325,-420.3869 858.4325,-420.3869 858.4325,-384.3869 931.4325,-384.3869 931.4325,-420.3869"/>
<text text-anchor="middle" x="894.9325" y="-399.8869" font-family="Helvetica,sans-Serif" font-size="10.00" fill="#000000">moreitertools</text>
</g>
<!-- moreitertools&#45;&gt;pytest -->
<g id="edge5" class="edge">
<title>moreitertools&#45;&gt;pytest</title><style>.edge>path:hover{stroke-width:8}</style>
<path fill="none" stroke="#000000" d="M917.3656,-384.058C940.9741,-364.6114 975.3553,-335.7823 979.9325,-329.1173"/>
<path fill="none" stroke="#000000" d="M979.9325,-329.1173C991.111,-312.8399 1004.8909,-295.5944 1016.3216,-281.9262"/>
<polygon fill="#40c040" stroke="#000000" points="1019.3078,-283.815 1023.0909,-273.9186 1013.962,-279.2959 1019.3078,-283.815"/>
</g>
<!-- numpy -->
<g id="node17" class="node">
<title>numpy</title><style>.edge>path:hover{stroke-width:8}</style>
<polygon fill="#3d8f5e" stroke="#000000" points="1048.9325,-566.926 1045.9325,-570.926 1024.9325,-570.926 1021.9325,-566.926 994.9325,-566.926 994.9325,-530.926 1048.9325,-530.926 1048.9325,-566.926"/>
<text text-anchor="middle" x="1021.9325" y="-546.426" font-family="Helvetica,sans-Serif" font-size="10.00" fill="#ffffff">numpy</text>
</g>
<!-- numpy&#45;&gt;src_drone_controller_input_layer_drone_state_mapper -->
<g id="edge8" class="edge">
<title>numpy&#45;&gt;src_drone_controller_input_layer_drone_state_mapper</title><style>.edge>path:hover{stroke-width:8}</style>
<path fill="none" stroke="#000000" d="M994.8111,-537.8759C957.8235,-522.9675 889.3582,-495.944 829.9325,-475.6564"/>
<path fill="none" stroke="#000000" d="M829.9325,-475.6564C734.7751,-443.1702 447.104,-513.068 378.9325,-439.1564 356.7731,-415.1312 366.962,-396.0304 378.9325,-365.6173 387.0522,-344.9878 408.1937,-350.7749 412.9325,-329.1173"/>
<path fill="none" stroke="#000000" d="M412.9325,-329.1173C414.5275,-320.0775 417.0508,-310.6462 419.8936,-301.6756"/>
<polygon fill="#3d8f5e" stroke="#000000" points="423.2226,-302.7566 423.0749,-292.1628 416.5839,-300.5365 423.2226,-302.7566"/>
</g>
<!-- numpy&#45;&gt;src_drone_controller_calculation_layer_thrust_calculator -->
<g id="edge7" class="edge">
<title>numpy&#45;&gt;src_drone_controller_calculation_layer_thrust_calculator</title><style>.edge>path:hover{stroke-width:8}</style>
<path fill="none" stroke="#000000" d="M829.9325,-475.6564C783.0353,-459.4149 840.4236,-405.5348 810.9325,-365.6173 789.6137,-336.7613 765.3568,-353.3849 738.9325,-329.1173"/>
</g>
<!-- numpy&#45;&gt;pytest -->
<g id="edge6" class="edge">
<title>numpy&#45;&gt;pytest</title><style>.edge>path:hover{stroke-width:8}</style>
<path fill="none" stroke="#000000" d="M1023.5891,-520.3656C1026.8401,-464.3202 1034.0209,-340.5224 1037.2736,-284.4463"/>
<polygon fill="#3d8f5e" stroke="#000000" points="1020.081,-520.4067 1022.9959,-530.5926 1027.0692,-520.8121 1020.081,-520.4067"/>
<polygon fill="#3d8f5e" stroke="#000000" points="1040.7844,-284.3601 1037.8695,-274.1742 1033.7962,-283.9547 1040.7844,-284.3601"/>
</g>
<!-- packaging -->
<g id="node18" class="node">
<title>packaging</title><style>.edge>path:hover{stroke-width:8}</style>
<polygon fill="#53b6a2" stroke="#000000" points="1010.4325,-420.3869 1007.4325,-424.3869 986.4325,-424.3869 983.4325,-420.3869 949.4325,-420.3869 949.4325,-384.3869 1010.4325,-384.3869 1010.4325,-420.3869"/>
<text text-anchor="middle" x="979.9325" y="-399.8869" font-family="Helvetica,sans-Serif" font-size="10.00" fill="#000000">packaging</text>
</g>
<!-- packaging&#45;&gt;pytest -->
<g id="edge9" class="edge">
<title>packaging&#45;&gt;pytest</title><style>.edge>path:hover{stroke-width:8}</style>
<path fill="none" stroke="#000000" d="M974.5818,-384.1398C971.0667,-368.1985 968.9148,-345.1606 979.9325,-329.1173"/>
</g>
<!-- py -->
<g id="node21" class="node">
<title>py</title><style>.edge>path:hover{stroke-width:8}</style>
<polygon fill="#5353b6" stroke="#000000" points="1105.9325,-731.6955 1102.9325,-735.6955 1081.9325,-735.6955 1078.9325,-731.6955 1051.9325,-731.6955 1051.9325,-695.6955 1105.9325,-695.6955 1105.9325,-731.6955"/>
<text text-anchor="middle" x="1078.9325" y="-711.1955" font-family="Helvetica,sans-Serif" font-size="10.00" fill="#ffffff">py</text>
</g>
<!-- pkgresources&#45;&gt;py -->
<g id="edge10" class="edge">
<title>pkgresources&#45;&gt;py</title><style>.edge>path:hover{stroke-width:8}</style>
<path fill="none" stroke="#000000" d="M1080.9325,-857.6955C1073.1795,-818.3237 1074.3617,-771.7199 1076.3228,-742.4273"/>
<polygon fill="#33aecc" stroke="#000000" points="1079.8396,-742.3326 1077.0955,-732.0993 1072.8591,-741.8103 1079.8396,-742.3326"/>
</g>
<!-- pkgresources&#45;&gt;pygments -->
<g id="edge11" class="edge">
<title>pkgresources&#45;&gt;pygments</title><style>.edge>path:hover{stroke-width:8}</style>
<path fill="none" stroke="#000000" d="M1080.9325,-912.1955C1086.5105,-896.8815 1099.4378,-884.9157 1112.6854,-876.1467"/>
<polygon fill="#33aecc" stroke="#000000" points="1114.656,-879.0442 1121.3632,-870.8427 1111.0054,-873.0715 1114.656,-879.0442"/>
</g>
<!-- setuptools -->
<g id="node24" class="node">
<title>setuptools</title><style>.edge>path:hover{stroke-width:8}</style>
<polygon fill="#c040a6" stroke="#000000" points="1052.9325,-803.6955 1049.9325,-807.6955 1028.9325,-807.6955 1025.9325,-803.6955 990.9325,-803.6955 990.9325,-767.6955 1052.9325,-767.6955 1052.9325,-803.6955"/>
<text text-anchor="middle" x="1021.9325" y="-783.1955" font-family="Helvetica,sans-Serif" font-size="10.00" fill="#ffffff">setuptools</text>
</g>
<!-- pkgresources&#45;&gt;setuptools -->
<g id="edge12" class="edge">
<title>pkgresources&#45;&gt;setuptools</title><style>.edge>path:hover{stroke-width:8}</style>
<path fill="none" stroke="#000000" d="M1074.2659,-948.5525C1074.9494,-937.72 1076.6882,-923.848 1080.9325,-912.1955"/>
<path fill="none" stroke="#000000" d="M1080.9325,-912.1955C1089.2225,-889.4361 1085.6124,-881.4614 1080.9325,-857.6955"/>
<path fill="none" stroke="#000000" d="M1080.9325,-857.6955C1077.3567,-839.5364 1065.1726,-823.2152 1052.7978,-810.7218"/>
<polygon fill="#33aecc" stroke="#000000" points="1055.2089,-808.1846 1045.5534,-803.8232 1050.3816,-813.2539 1055.2089,-808.1846"/>
</g>
<!-- pluggy -->
<g id="node20" class="node">
<title>pluggy</title><style>.edge>path:hover{stroke-width:8}</style>
<polygon fill="#537bb6" stroke="#000000" points="1158.9325,-420.3869 1155.9325,-424.3869 1134.9325,-424.3869 1131.9325,-420.3869 1104.9325,-420.3869 1104.9325,-384.3869 1158.9325,-384.3869 1158.9325,-420.3869"/>
<text text-anchor="middle" x="1131.9325" y="-399.8869" font-family="Helvetica,sans-Serif" font-size="10.00" fill="#ffffff">pluggy</text>
</g>
<!-- pluggy&#45;&gt;pytest -->
<g id="edge13" class="edge">
<title>pluggy&#45;&gt;pytest</title><style>.edge>path:hover{stroke-width:8}</style>
<path fill="none" stroke="#000000" d="M1147.1353,-384.2079C1157.953,-368.9303 1168.9434,-346.8173 1158.9325,-329.1173"/>
</g>
<!-- py&#45;&gt;pytest -->
<g id="edge14" class="edge">
<title>py&#45;&gt;pytest</title><style>.edge>path:hover{stroke-width:8}</style>
<path fill="none" stroke="#000000" d="M1078.2997,-695.4696C1077.7138,-677.0048 1076.9325,-647.6183 1076.9325,-622.1955 1076.9325,-622.1955 1076.9325,-622.1955 1076.9325,-475.6564 1076.9325,-426.0265 1067.5689,-406.3437 1095.9325,-365.6173 1114.4262,-339.0628 1174.8632,-357.2842 1158.9325,-329.1173"/>
<path fill="none" stroke="#000000" d="M1158.9325,-329.1173C1140.7697,-298.0023 1103.6609,-278.4104 1075.4904,-267.3973"/>
<polygon fill="#5353b6" stroke="#000000" points="1076.5376,-264.0527 1065.9447,-263.8548 1074.1021,-270.6154 1076.5376,-264.0527"/>
</g>
<!-- pygments&#45;&gt;pytest -->
<g id="edge15" class="edge">
<title>pygments&#45;&gt;pytest</title><style>.edge>path:hover{stroke-width:8}</style>
<path fill="none" stroke="#000000" d="M1158.5672,-839.4212C1169.1347,-812.428 1186.9325,-760.0805 1186.9325,-713.6955 1186.9325,-713.6955 1186.9325,-713.6955 1186.9325,-475.6564 1186.9325,-409.3497 1192.3595,-386.3818 1158.9325,-329.1173"/>
</g>
<!-- setuptools&#45;&gt;numpy -->
<g id="edge17" class="edge">
<title>setuptools&#45;&gt;numpy</title><style>.edge>path:hover{stroke-width:8}</style>
<path fill="none" stroke="#000000" d="M1021.9325,-767.5098C1021.9325,-726.5361 1021.9325,-626.7413 1021.9325,-577.4448"/>
<polygon fill="#c040a6" stroke="#000000" points="1025.4326,-577.1737 1021.9325,-567.1737 1018.4326,-577.1737 1025.4326,-577.1737"/>
</g>
</g>
</svg>
