<?xml version="1.0" encoding="UTF-8" standalone="no"?>
<!DOCTYPE svg PUBLIC "-//W3C//DTD SVG 1.1//EN"
 "http://www.w3.org/Graphics/SVG/1.1/DTD/svg11.dtd">
<!-- Generated by graphviz version 2.40.1 (20161225.0304)
 -->
<!-- Title: G Pages: 1 -->
<svg width="1215pt" height="956pt"
 viewBox="0.00 0.00 1214.93 955.70" xmlns="http://www.w3.org/2000/svg" xmlns:xlink="http://www.w3.org/1999/xlink">
<g id="graph0" class="graph" transform="scale(1 1) rotate(0) translate(4 951.6955)">
<title>G</title><style>.edge>path:hover{stroke-width:8}</style>
<polygon fill="#ffffff" stroke="transparent" points="-4,4 -4,-951.6955 1210.9325,-951.6955 1210.9325,4 -4,4"/>
<!-- src_drone_controller_input_layer_drone_state -->
<g id="node1" class="node">
<title>src_drone_controller_input_layer_drone_state</title><style>.edge>path:hover{stroke-width:8}</style>
<ellipse fill="#bf2160" stroke="#000000" cx="244.9325" cy="-402.3869" rx="62.8651" ry="36.5405"/>
<text text-anchor="middle" x="244.9325" y="-416.3869" font-family="Helvetica,sans-Serif" font-size="10.00" fill="#ffffff">src.</text>
<text text-anchor="middle" x="244.9325" y="-405.3869" font-family="Helvetica,sans-Serif" font-size="10.00" fill="#ffffff">drone_controller.</text>
<text text-anchor="middle" x="244.9325" y="-394.3869" font-family="Helvetica,sans-Serif" font-size="10.00" fill="#ffffff">input_layer.</text>
<text text-anchor="middle" x="244.9325" y="-383.3869" font-family="Helvetica,sans-Serif" font-size="10.00" fill="#ffffff">drone_state</text>
</g>
<!-- src_drone_controller_input_layer_request_handler -->
<g id="node2" class="node">
<title>src_drone_controller_input_layer_request_handler</title><style>.edge>path:hover{stroke-width:8}</style>
<ellipse fill="#72314b" stroke="#000000" cx="400.9325" cy="-36.7696" rx="62.8651" ry="36.5405"/>
<text text-anchor="middle" x="400.9325" y="-50.7696" font-family="Helvetica,sans-Serif" font-size="10.00" fill="#ffffff">src.</text>
<text text-anchor="middle" x="400.9325" y="-39.7696" font-family="Helvetica,sans-Serif" font-size="10.00" fill="#ffffff">drone_controller.</text>
<text text-anchor="middle" x="400.9325" y="-28.7696" font-family="Helvetica,sans-Serif" font-size="10.00" fill="#ffffff">input_layer.</text>
<text text-anchor="middle" x="400.9325" y="-17.7696" font-family="Helvetica,sans-Serif" font-size="10.00" fill="#ffffff">request_handler</text>
</g>
<!-- src_drone_controller_input_layer_drone_state&#45;&gt;src_drone_controller_input_layer_request_handler -->
<g id="edge28" class="edge">
<title>src_drone_controller_input_layer_drone_state&#45;&gt;src_drone_controller_input_layer_request_handler</title><style>.edge>path:hover{stroke-width:8}</style>
<path fill="none" stroke="#000000" d="M210.0346,-371.4118C200.1933,-359.4303 192.075,-344.8162 191.9325,-329.1173"/>
<path fill="none" stroke="#000000" d="M191.9325,-329.1173C191.6369,-296.5544 187.8124,-288.1503 191.9325,-255.8478"/>
</g>
<!-- src_drone_controller_input_layer_drone_state_mapper -->
<g id="node5" class="node">
<title>src_drone_controller_input_layer_drone_state_mapper</title><style>.edge>path:hover{stroke-width:8}</style>
<ellipse fill="#913057" stroke="#000000" cx="293.9325" cy="-255.8478" rx="74.4932" ry="36.5405"/>
<text text-anchor="middle" x="293.9325" y="-269.8478" font-family="Helvetica,sans-Serif" font-size="10.00" fill="#ffffff">src.</text>
<text text-anchor="middle" x="293.9325" y="-258.8478" font-family="Helvetica,sans-Serif" font-size="10.00" fill="#ffffff">drone_controller.</text>
<text text-anchor="middle" x="293.9325" y="-247.8478" font-family="Helvetica,sans-Serif" font-size="10.00" fill="#ffffff">input_layer.</text>
<text text-anchor="middle" x="293.9325" y="-236.8478" font-family="Helvetica,sans-Serif" font-size="10.00" fill="#ffffff">drone_state_mapper</text>
</g>
<!-- src_drone_controller_input_layer_drone_state&#45;&gt;src_drone_controller_input_layer_drone_state_mapper -->
<g id="edge27" class="edge">
<title>src_drone_controller_input_layer_drone_state&#45;&gt;src_drone_controller_input_layer_drone_state_mapper</title><style>.edge>path:hover{stroke-width:8}</style>
<path fill="none" stroke="#000000" d="M191.9325,-329.1173C191.7446,-308.4133 205.731,-292.9876 223.4019,-281.773"/>
<polygon fill="#bf2160" stroke="#000000" points="225.4293,-284.6434 232.3268,-276.6013 221.9196,-278.5868 225.4293,-284.6434"/>
</g>
<!-- src_drone_controller_calculation_layer_thrust_calculator -->
<g id="node10" class="node">
<title>src_drone_controller_calculation_layer_thrust_calculator</title><style>.edge>path:hover{stroke-width:8}</style>
<ellipse fill="#913057" stroke="#000000" cx="464.9325" cy="-255.8478" rx="65.1077" ry="36.5405"/>
<text text-anchor="middle" x="464.9325" y="-269.8478" font-family="Helvetica,sans-Serif" font-size="10.00" fill="#ffffff">src.</text>
<text text-anchor="middle" x="464.9325" y="-258.8478" font-family="Helvetica,sans-Serif" font-size="10.00" fill="#ffffff">drone_controller.</text>
<text text-anchor="middle" x="464.9325" y="-247.8478" font-family="Helvetica,sans-Serif" font-size="10.00" fill="#ffffff">calculation_layer.</text>
<text text-anchor="middle" x="464.9325" y="-236.8478" font-family="Helvetica,sans-Serif" font-size="10.00" fill="#ffffff">thrust_calculator</text>
</g>
<!-- src_drone_controller_input_layer_drone_state&#45;&gt;src_drone_controller_calculation_layer_thrust_calculator -->
<g id="edge26" class="edge">
<title>src_drone_controller_input_layer_drone_state&#45;&gt;src_drone_controller_calculation_layer_thrust_calculator</title><style>.edge>path:hover{stroke-width:8}</style>
<path fill="none" stroke="#000000" d="M299.3528,-383.4837C349.7987,-365.485 418.3323,-339.6297 426.9325,-329.1173"/>
<path fill="none" stroke="#000000" d="M426.9325,-329.1173C433.8793,-320.6259 440.0698,-310.6601 445.335,-300.8612"/>
<polygon fill="#bf2160" stroke="#000000" points="448.453,-302.4511 449.9054,-291.9563 442.2254,-299.2547 448.453,-302.4511"/>
</g>
<!-- src_drone_controller_exception_exceptions -->
<g id="node3" class="node">
<title>src_drone_controller_exception_exceptions</title><style>.edge>path:hover{stroke-width:8}</style>
<ellipse fill="#ce3b76" stroke="#000000" cx="62.9325" cy="-548.926" rx="62.8651" ry="36.5405"/>
<text text-anchor="middle" x="62.9325" y="-562.926" font-family="Helvetica,sans-Serif" font-size="10.00" fill="#ffffff">src.</text>
<text text-anchor="middle" x="62.9325" y="-551.926" font-family="Helvetica,sans-Serif" font-size="10.00" fill="#ffffff">drone_controller.</text>
<text text-anchor="middle" x="62.9325" y="-540.926" font-family="Helvetica,sans-Serif" font-size="10.00" fill="#ffffff">exception.</text>
<text text-anchor="middle" x="62.9325" y="-529.926" font-family="Helvetica,sans-Serif" font-size="10.00" fill="#ffffff">exceptions</text>
</g>
<!-- src_drone_controller_exception_exceptions&#45;&gt;src_drone_controller_input_layer_drone_state -->
<g id="edge22" class="edge">
<title>src_drone_controller_exception_exceptions&#45;&gt;src_drone_controller_input_layer_drone_state</title><style>.edge>path:hover{stroke-width:8}</style>
<path fill="none" stroke="#000000" d="M115.9325,-475.6564C126.8518,-463.6592 158.2597,-445.7282 187.3488,-430.6078"/>
<polygon fill="#ce3b76" stroke="#000000" points="188.9853,-433.702 196.2767,-426.0152 185.7833,-427.4773 188.9853,-433.702"/>
</g>
<!-- src_drone_controller_exception_exceptions&#45;&gt;src_drone_controller_input_layer_request_handler -->
<g id="edge23" class="edge">
<title>src_drone_controller_exception_exceptions&#45;&gt;src_drone_controller_input_layer_request_handler</title><style>.edge>path:hover{stroke-width:8}</style>
<path fill="none" stroke="#000000" d="M85.434,-514.5097C94.3426,-501.8119 105.0481,-487.6153 115.9325,-475.6564"/>
<path fill="none" stroke="#000000" d="M115.9325,-475.6564C140.6241,-448.5273 149.2912,-438.7754 153.9325,-402.3869"/>
<path fill="none" stroke="#000000" d="M153.9325,-402.3869C162.4454,-335.6449 183.4196,-322.5897 191.9325,-255.8478"/>
<path fill="none" stroke="#000000" d="M191.9325,-255.8478C195.069,-207.2649 176.3341,-192.4262 191.9325,-146.3087"/>
<path fill="none" stroke="#000000" d="M191.9325,-146.3087C211.1996,-89.3446 277.0871,-61.6919 329.7964,-48.4653"/>
<polygon fill="#ce3b76" stroke="#000000" points="330.8889,-51.8032 339.8073,-46.0838 329.2688,-44.9932 330.8889,-51.8032"/>
</g>
<!-- src_drone_controller_util_list_operators -->
<g id="node4" class="node">
<title>src_drone_controller_util_list_operators</title><style>.edge>path:hover{stroke-width:8}</style>
<ellipse fill="#ce3b76" stroke="#000000" cx="570.9325" cy="-402.3869" rx="62.8651" ry="36.5405"/>
<text text-anchor="middle" x="570.9325" y="-416.3869" font-family="Helvetica,sans-Serif" font-size="10.00" fill="#ffffff">src.</text>
<text text-anchor="middle" x="570.9325" y="-405.3869" font-family="Helvetica,sans-Serif" font-size="10.00" fill="#ffffff">drone_controller.</text>
<text text-anchor="middle" x="570.9325" y="-394.3869" font-family="Helvetica,sans-Serif" font-size="10.00" fill="#ffffff">util.</text>
<text text-anchor="middle" x="570.9325" y="-383.3869" font-family="Helvetica,sans-Serif" font-size="10.00" fill="#ffffff">list_operators</text>
</g>
<!-- src_drone_controller_util_list_operators&#45;&gt;src_drone_controller_input_layer_drone_state_mapper -->
<g id="edge33" class="edge">
<title>src_drone_controller_util_list_operators&#45;&gt;src_drone_controller_input_layer_drone_state_mapper</title><style>.edge>path:hover{stroke-width:8}</style>
<path fill="none" stroke="#000000" d="M528.9424,-374.8294C509.1773,-361.4887 485.4862,-344.9596 464.9325,-329.1173"/>
<path fill="none" stroke="#000000" d="M464.9325,-329.1173C455.9358,-322.1829 405.1892,-300.7442 361.2944,-282.836"/>
<polygon fill="#ce3b76" stroke="#000000" points="362.3437,-279.4844 351.7619,-278.9581 359.7059,-285.9684 362.3437,-279.4844"/>
</g>
<!-- src_drone_controller_util_list_operators&#45;&gt;src_drone_controller_calculation_layer_thrust_calculator -->
<g id="edge32" class="edge">
<title>src_drone_controller_util_list_operators&#45;&gt;src_drone_controller_calculation_layer_thrust_calculator</title><style>.edge>path:hover{stroke-width:8}</style>
<path fill="none" stroke="#000000" d="M464.9325,-329.1173C456.6104,-322.7029 453.6588,-312.7997 453.4783,-302.3269"/>
<polygon fill="#ce3b76" stroke="#000000" points="456.9803,-302.3939 454.0696,-292.2067 449.9922,-301.9855 456.9803,-302.3939"/>
</g>
<!-- src_drone_controller_input_layer_drone_state_mapper&#45;&gt;src_drone_controller_input_layer_request_handler -->
<g id="edge29" class="edge">
<title>src_drone_controller_input_layer_drone_state_mapper&#45;&gt;src_drone_controller_input_layer_request_handler</title><style>.edge>path:hover{stroke-width:8}</style>
<path fill="none" stroke="#000000" d="M241.9061,-229.3487C211.2024,-209.6663 180.4013,-180.4011 191.9325,-146.3087"/>
</g>
<!-- src_drone_controller_exception -->
<g id="node6" class="node">
<title>src_drone_controller_exception</title><style>.edge>path:hover{stroke-width:8}</style>
<ellipse fill="#ce3b76" stroke="#000000" cx="206.9325" cy="-548.926" rx="62.8651" ry="28.9828"/>
<text text-anchor="middle" x="206.9325" y="-557.426" font-family="Helvetica,sans-Serif" font-size="10.00" fill="#ffffff">src.</text>
<text text-anchor="middle" x="206.9325" y="-546.426" font-family="Helvetica,sans-Serif" font-size="10.00" fill="#ffffff">drone_controller.</text>
<text text-anchor="middle" x="206.9325" y="-535.426" font-family="Helvetica,sans-Serif" font-size="10.00" fill="#ffffff">exception</text>
</g>
<!-- src_drone_controller_exception&#45;&gt;src_drone_controller_input_layer_drone_state -->
<g id="edge20" class="edge">
<title>src_drone_controller_exception&#45;&gt;src_drone_controller_input_layer_drone_state</title><style>.edge>path:hover{stroke-width:8}</style>
<path fill="none" stroke="#000000" d="M153.9325,-475.6564C153.2167,-455.3622 166.9788,-439.7351 184.0042,-428.2286"/>
<polygon fill="#ce3b76" stroke="#000000" points="185.9246,-431.1561 192.5751,-422.9086 182.233,-425.2087 185.9246,-431.1561"/>
</g>
<!-- src_drone_controller_exception&#45;&gt;src_drone_controller_input_layer_request_handler -->
<g id="edge21" class="edge">
<title>src_drone_controller_exception&#45;&gt;src_drone_controller_input_layer_request_handler</title><style>.edge>path:hover{stroke-width:8}</style>
<path fill="none" stroke="#000000" d="M176.9885,-523.1501C165.3288,-510.3178 154.5689,-493.6996 153.9325,-475.6564"/>
<path fill="none" stroke="#000000" d="M153.9325,-475.6564C152.7846,-443.1124 149.8124,-434.6894 153.9325,-402.3869"/>
</g>
<!-- src_drone_controller_util -->
<g id="node7" class="node">
<title>src_drone_controller_util</title><style>.edge>path:hover{stroke-width:8}</style>
<ellipse fill="#ce3b76" stroke="#000000" cx="426.9325" cy="-402.3869" rx="62.8651" ry="28.9828"/>
<text text-anchor="middle" x="426.9325" y="-410.8869" font-family="Helvetica,sans-Serif" font-size="10.00" fill="#ffffff">src.</text>
<text text-anchor="middle" x="426.9325" y="-399.8869" font-family="Helvetica,sans-Serif" font-size="10.00" fill="#ffffff">drone_controller.</text>
<text text-anchor="middle" x="426.9325" y="-388.8869" font-family="Helvetica,sans-Serif" font-size="10.00" fill="#ffffff">util</text>
</g>
<!-- src_drone_controller_util&#45;&gt;src_drone_controller_input_layer_drone_state_mapper -->
<g id="edge31" class="edge">
<title>src_drone_controller_util&#45;&gt;src_drone_controller_input_layer_drone_state_mapper</title><style>.edge>path:hover{stroke-width:8}</style>
<path fill="none" stroke="#000000" d="M398.7529,-376.4486C385.9454,-363.3391 371.5425,-346.5377 361.9325,-329.1173"/>
</g>
<!-- src_drone_controller_util&#45;&gt;src_drone_controller_calculation_layer_thrust_calculator -->
<g id="edge30" class="edge">
<title>src_drone_controller_util&#45;&gt;src_drone_controller_calculation_layer_thrust_calculator</title><style>.edge>path:hover{stroke-width:8}</style>
<path fill="none" stroke="#000000" d="M418.9103,-373.4125C416.6384,-358.6146 417.0254,-341.2272 426.9325,-329.1173"/>
</g>
<!-- src_drone_controller_input_layer -->
<g id="node8" class="node">
<title>src_drone_controller_input_layer</title><style>.edge>path:hover{stroke-width:8}</style>
<ellipse fill="#db2f73" stroke="#000000" cx="714.9325" cy="-402.3869" rx="62.8651" ry="28.9828"/>
<text text-anchor="middle" x="714.9325" y="-410.8869" font-family="Helvetica,sans-Serif" font-size="10.00" fill="#ffffff">src.</text>
<text text-anchor="middle" x="714.9325" y="-399.8869" font-family="Helvetica,sans-Serif" font-size="10.00" fill="#ffffff">drone_controller.</text>
<text text-anchor="middle" x="714.9325" y="-388.8869" font-family="Helvetica,sans-Serif" font-size="10.00" fill="#ffffff">input_layer</text>
</g>
<!-- src_drone_controller_input_layer&#45;&gt;src_drone_controller_calculation_layer_thrust_calculator -->
<g id="edge24" class="edge">
<title>src_drone_controller_input_layer&#45;&gt;src_drone_controller_calculation_layer_thrust_calculator</title><style>.edge>path:hover{stroke-width:8}</style>
<path fill="none" stroke="#000000" d="M724.5768,-373.5144C727.8928,-357.5763 727.9948,-339.0492 714.9325,-329.1173"/>
<path fill="none" stroke="#000000" d="M714.9325,-329.1173C651.3403,-280.7654 614.4353,-318.7171 538.9325,-292.6173 533.06,-290.5873 527.0563,-288.1917 521.134,-285.6122"/>
<polygon fill="#db2f73" stroke="#000000" points="522.4777,-282.3785 511.925,-281.4337 519.5852,-288.753 522.4777,-282.3785"/>
</g>
<!-- src_drone_controller_input_layer_drone_physics -->
<g id="node9" class="node">
<title>src_drone_controller_input_layer_drone_physics</title><style>.edge>path:hover{stroke-width:8}</style>
<ellipse fill="#c24778" stroke="#000000" cx="400.9325" cy="-146.3087" rx="62.8651" ry="36.5405"/>
<text text-anchor="middle" x="400.9325" y="-160.3087" font-family="Helvetica,sans-Serif" font-size="10.00" fill="#ffffff">src.</text>
<text text-anchor="middle" x="400.9325" y="-149.3087" font-family="Helvetica,sans-Serif" font-size="10.00" fill="#ffffff">drone_controller.</text>
<text text-anchor="middle" x="400.9325" y="-138.3087" font-family="Helvetica,sans-Serif" font-size="10.00" fill="#ffffff">input_layer.</text>
<text text-anchor="middle" x="400.9325" y="-127.3087" font-family="Helvetica,sans-Serif" font-size="10.00" fill="#ffffff">drone_physics</text>
</g>
<!-- src_drone_controller_input_layer_drone_physics&#45;&gt;src_drone_controller_input_layer_request_handler -->
<g id="edge25" class="edge">
<title>src_drone_controller_input_layer_drone_physics&#45;&gt;src_drone_controller_input_layer_request_handler</title><style>.edge>path:hover{stroke-width:8}</style>
<path fill="none" stroke="#000000" d="M400.9325,-109.529C400.9325,-101.3103 400.9325,-92.4835 400.9325,-83.911"/>
<polygon fill="#c24778" stroke="#000000" points="404.4326,-83.6386 400.9325,-73.6386 397.4326,-83.6386 404.4326,-83.6386"/>
</g>
<!-- src_drone_controller_calculation_layer_thrust_calculator&#45;&gt;src_drone_controller_input_layer_request_handler -->
<g id="edge19" class="edge">
<title>src_drone_controller_calculation_layer_thrust_calculator&#45;&gt;src_drone_controller_input_layer_request_handler</title><style>.edge>path:hover{stroke-width:8}</style>
<path fill="none" stroke="#000000" d="M513.785,-231.5483C558.6251,-207.5141 617.2309,-170.8642 610.9325,-146.3087"/>
<path fill="none" stroke="#000000" d="M610.9325,-146.3087C595.7122,-86.9698 527.0884,-59.5984 472.3712,-47.0834"/>
<polygon fill="#913057" stroke="#000000" points="472.8457,-43.6053 462.3321,-44.9152 471.3678,-50.4475 472.8457,-43.6053"/>
</g>
<!-- src_drone_controller_calculation_layer -->
<g id="node11" class="node">
<title>src_drone_controller_calculation_layer</title><style>.edge>path:hover{stroke-width:8}</style>
<ellipse fill="#c24778" stroke="#000000" cx="610.9325" cy="-255.8478" rx="62.8651" ry="28.9828"/>
<text text-anchor="middle" x="610.9325" y="-264.3478" font-family="Helvetica,sans-Serif" font-size="10.00" fill="#ffffff">src.</text>
<text text-anchor="middle" x="610.9325" y="-253.3478" font-family="Helvetica,sans-Serif" font-size="10.00" fill="#ffffff">drone_controller.</text>
<text text-anchor="middle" x="610.9325" y="-242.3478" font-family="Helvetica,sans-Serif" font-size="10.00" fill="#ffffff">calculation_layer</text>
</g>
<!-- src_drone_controller_calculation_layer&#45;&gt;src_drone_controller_input_layer_request_handler -->
<g id="edge18" class="edge">
<title>src_drone_controller_calculation_layer&#45;&gt;src_drone_controller_input_layer_request_handler</title><style>.edge>path:hover{stroke-width:8}</style>
<path fill="none" stroke="#000000" d="M614.8394,-226.5258C616.8859,-204.1778 617.7364,-172.8347 610.9325,-146.3087"/>
</g>
<!-- attr -->
<g id="node12" class="node">
<title>attr</title><style>.edge>path:hover{stroke-width:8}</style>
<polygon fill="#add60b" stroke="#000000" points="925.9325,-420.3869 922.9325,-424.3869 901.9325,-424.3869 898.9325,-420.3869 871.9325,-420.3869 871.9325,-384.3869 925.9325,-384.3869 925.9325,-420.3869"/>
<text text-anchor="middle" x="898.9325" y="-399.8869" font-family="Helvetica,sans-Serif" font-size="10.00" fill="#000000">attr</text>
</g>
<!-- pytest -->
<g id="node23" class="node">
<title>pytest</title><style>.edge>path:hover{stroke-width:8}</style>
<polygon fill="#f9c806" stroke="#000000" points="958.9325,-273.8478 955.9325,-277.8478 934.9325,-277.8478 931.9325,-273.8478 904.9325,-273.8478 904.9325,-237.8478 958.9325,-237.8478 958.9325,-273.8478"/>
<text text-anchor="middle" x="931.9325" y="-253.3478" font-family="Helvetica,sans-Serif" font-size="10.00" fill="#000000">pytest</text>
</g>
<!-- attr&#45;&gt;pytest -->
<g id="edge1" class="edge">
<title>attr&#45;&gt;pytest</title><style>.edge>path:hover{stroke-width:8}</style>
<path fill="none" stroke="#000000" d="M916.7478,-384.2969C923.6215,-377.9037 931.7853,-370.9776 939.9325,-365.6173 972.2438,-344.3587 1038.081,-362.7222 1018.9325,-329.1173"/>
<path fill="none" stroke="#000000" d="M1018.9325,-329.1173C1006.8343,-307.8854 986.1029,-290.0592 967.912,-277.3075"/>
<polygon fill="#add60b" stroke="#000000" points="969.4841,-274.1465 959.2349,-271.4625 965.5733,-279.9522 969.4841,-274.1465"/>
</g>
<!-- chardet -->
<g id="node13" class="node">
<title>chardet</title><style>.edge>path:hover{stroke-width:8}</style>
<polygon fill="#6ca446" stroke="#000000" points="995.9325,-875.6955 992.9325,-879.6955 971.9325,-879.6955 968.9325,-875.6955 941.9325,-875.6955 941.9325,-839.6955 995.9325,-839.6955 995.9325,-875.6955"/>
<text text-anchor="middle" x="968.9325" y="-855.1955" font-family="Helvetica,sans-Serif" font-size="10.00" fill="#000000">chardet</text>
</g>
<!-- pygments -->
<g id="node22" class="node">
<title>pygments</title><style>.edge>path:hover{stroke-width:8}</style>
<polygon fill="#6c46a4" stroke="#000000" points="986.4325,-766.6955 983.4325,-770.6955 962.4325,-770.6955 959.4325,-766.6955 927.4325,-766.6955 927.4325,-730.6955 986.4325,-730.6955 986.4325,-766.6955"/>
<text text-anchor="middle" x="956.9325" y="-746.1955" font-family="Helvetica,sans-Serif" font-size="10.00" fill="#ffffff">pygments</text>
</g>
<!-- chardet&#45;&gt;pygments -->
<g id="edge2" class="edge">
<title>chardet&#45;&gt;pygments</title><style>.edge>path:hover{stroke-width:8}</style>
<path fill="none" stroke="#000000" d="M966.8969,-839.2052C965.0237,-822.1908 962.2175,-796.7011 960.0599,-777.1032"/>
<polygon fill="#6ca446" stroke="#000000" points="963.5115,-776.4697 958.9381,-766.9128 956.5535,-777.2358 963.5115,-776.4697"/>
</g>
<!-- imp -->
<g id="node14" class="node">
<title>imp</title><style>.edge>path:hover{stroke-width:8}</style>
<polygon fill="#b67b53" stroke="#000000" points="876.9325,-947.6955 873.9325,-951.6955 852.9325,-951.6955 849.9325,-947.6955 822.9325,-947.6955 822.9325,-911.6955 876.9325,-911.6955 876.9325,-947.6955"/>
<text text-anchor="middle" x="849.9325" y="-927.1955" font-family="Helvetica,sans-Serif" font-size="10.00" fill="#000000">imp</text>
</g>
<!-- pkgresources -->
<g id="node19" class="node">
<title>pkgresources</title><style>.edge>path:hover{stroke-width:8}</style>
<polygon fill="#05a8d1" stroke="#000000" points="923.4325,-875.6955 920.4325,-879.6955 899.4325,-879.6955 896.4325,-875.6955 848.4325,-875.6955 848.4325,-839.6955 923.4325,-839.6955 923.4325,-875.6955"/>
<text text-anchor="middle" x="885.9325" y="-855.1955" font-family="Helvetica,sans-Serif" font-size="10.00" fill="#ffffff">pkgresources</text>
</g>
<!-- imp&#45;&gt;pkgresources -->
<g id="edge3" class="edge">
<title>imp&#45;&gt;pkgresources</title><style>.edge>path:hover{stroke-width:8}</style>
<path fill="none" stroke="#000000" d="M859.0168,-911.5269C862.994,-903.5726 867.748,-894.0646 872.1464,-885.2678"/>
<polygon fill="#b67b53" stroke="#000000" points="875.3842,-886.6183 876.7259,-876.1088 869.1232,-883.4878 875.3842,-886.6183"/>
</g>
<!-- main -->
<g id="node15" class="node">
<title>main</title><style>.edge>path:hover{stroke-width:8}</style>
<polygon fill="#6b2e2e" stroke="#000000" points="948.9325,-947.6955 945.9325,-951.6955 924.9325,-951.6955 921.9325,-947.6955 894.9325,-947.6955 894.9325,-911.6955 948.9325,-911.6955 948.9325,-947.6955"/>
<text text-anchor="middle" x="921.9325" y="-927.1955" font-family="Helvetica,sans-Serif" font-size="10.00" fill="#ffffff">main</text>
</g>
<!-- main&#45;&gt;pkgresources -->
<g id="edge4" class="edge">
<title>main&#45;&gt;pkgresources</title><style>.edge>path:hover{stroke-width:8}</style>
<path fill="none" stroke="#000000" d="M912.8482,-911.5269C908.8711,-903.5726 904.117,-894.0646 899.7186,-885.2678"/>
<polygon fill="#6b2e2e" stroke="#000000" points="902.7418,-883.4878 895.1391,-876.1088 896.4808,-886.6183 902.7418,-883.4878"/>
</g>
<!-- moreitertools -->
<g id="node16" class="node">
<title>moreitertools</title><style>.edge>path:hover{stroke-width:8}</style>
<polygon fill="#49ac49" stroke="#000000" points="1055.4325,-420.3869 1052.4325,-424.3869 1031.4325,-424.3869 1028.4325,-420.3869 982.4325,-420.3869 982.4325,-384.3869 1055.4325,-384.3869 1055.4325,-420.3869"/>
<text text-anchor="middle" x="1018.9325" y="-399.8869" font-family="Helvetica,sans-Serif" font-size="10.00" fill="#000000">moreitertools</text>
</g>
<!-- moreitertools&#45;&gt;pytest -->
<g id="edge5" class="edge">
<title>moreitertools&#45;&gt;pytest</title><style>.edge>path:hover{stroke-width:8}</style>
<path fill="none" stroke="#000000" d="M1023.672,-384.2524C1026.7101,-368.597 1028.5049,-345.9165 1018.9325,-329.1173"/>
</g>
<!-- numpy -->
<g id="node17" class="node">
<title>numpy</title><style>.edge>path:hover{stroke-width:8}</style>
<polygon fill="#53b67b" stroke="#000000" points="866.9325,-566.926 863.9325,-570.926 842.9325,-570.926 839.9325,-566.926 812.9325,-566.926 812.9325,-530.926 866.9325,-530.926 866.9325,-566.926"/>
<text text-anchor="middle" x="839.9325" y="-546.426" font-family="Helvetica,sans-Serif" font-size="10.00" fill="#000000">numpy</text>
</g>
<!-- numpy&#45;&gt;src_drone_controller_input_layer_drone_state_mapper -->
<g id="edge8" class="edge">
<title>numpy&#45;&gt;src_drone_controller_input_layer_drone_state_mapper</title><style>.edge>path:hover{stroke-width:8}</style>
<path fill="none" stroke="#000000" d="M835.9822,-530.6869C831.4614,-514.0713 822.4488,-490.0015 805.9325,-475.6564"/>
<path fill="none" stroke="#000000" d="M805.9325,-475.6564C730.0185,-409.7219 423.104,-513.068 354.9325,-439.1564 332.7731,-415.1312 351.8406,-398.1548 354.9325,-365.6173 356.4951,-349.1735 369.9111,-343.5804 361.9325,-329.1173"/>
<path fill="none" stroke="#000000" d="M361.9325,-329.1173C354.8766,-317.5461 345.7977,-306.2162 336.5865,-296.0573"/>
<polygon fill="#53b67b" stroke="#000000" points="338.9354,-293.4448 329.5483,-288.5324 333.8231,-298.2265 338.9354,-293.4448"/>
</g>
<!-- numpy&#45;&gt;src_drone_controller_calculation_layer_thrust_calculator -->
<g id="edge7" class="edge">
<title>numpy&#45;&gt;src_drone_controller_calculation_layer_thrust_calculator</title><style>.edge>path:hover{stroke-width:8}</style>
<path fill="none" stroke="#000000" d="M805.9325,-475.6564C768.5969,-442.958 816.4236,-405.5348 786.9325,-365.6173 765.6137,-336.7613 743.4917,-350.8321 714.9325,-329.1173"/>
</g>
<!-- numpy&#45;&gt;pytest -->
<g id="edge6" class="edge">
<title>numpy&#45;&gt;pytest</title><style>.edge>path:hover{stroke-width:8}</style>
<path fill="none" stroke="#000000" d="M839.7275,-520.4416C840.3034,-483.6286 844.2123,-418.0383 862.9325,-365.6173 873.9773,-334.6893 894.8444,-303.3604 910.7506,-282.1331"/>
<polygon fill="#53b67b" stroke="#000000" points="836.224,-520.868 839.643,-530.896 843.2238,-520.9247 836.224,-520.868"/>
<polygon fill="#53b67b" stroke="#000000" points="913.7059,-284.0304 917.004,-273.9619 908.147,-279.7761 913.7059,-284.0304"/>
</g>
<!-- packaging -->
<g id="node18" class="node">
<title>packaging</title><style>.edge>path:hover{stroke-width:8}</style>
<polygon fill="#53b6a2" stroke="#000000" points="1134.4325,-420.3869 1131.4325,-424.3869 1110.4325,-424.3869 1107.4325,-420.3869 1073.4325,-420.3869 1073.4325,-384.3869 1134.4325,-384.3869 1134.4325,-420.3869"/>
<text text-anchor="middle" x="1103.9325" y="-399.8869" font-family="Helvetica,sans-Serif" font-size="10.00" fill="#000000">packaging</text>
</g>
<!-- packaging&#45;&gt;pytest -->
<g id="edge9" class="edge">
<title>packaging&#45;&gt;pytest</title><style>.edge>path:hover{stroke-width:8}</style>
<path fill="none" stroke="#000000" d="M1085.1885,-384.102C1078.8608,-378.0953 1071.6876,-371.4631 1064.9325,-365.6173 1045.1976,-348.539 1031.8534,-351.793 1018.9325,-329.1173"/>
</g>
<!-- py -->
<g id="node21" class="node">
<title>py</title><style>.edge>path:hover{stroke-width:8}</style>
<polygon fill="#4c4cb3" stroke="#000000" points="925.9325,-657.6955 922.9325,-661.6955 901.9325,-661.6955 898.9325,-657.6955 871.9325,-657.6955 871.9325,-621.6955 925.9325,-621.6955 925.9325,-657.6955"/>
<text text-anchor="middle" x="898.9325" y="-637.1955" font-family="Helvetica,sans-Serif" font-size="10.00" fill="#ffffff">py</text>
</g>
<!-- pkgresources&#45;&gt;py -->
<g id="edge10" class="edge">
<title>pkgresources&#45;&gt;py</title><style>.edge>path:hover{stroke-width:8}</style>
<path fill="none" stroke="#000000" d="M898.9325,-803.1955C904.3293,-756.0688 902.6804,-700.799 900.8845,-668.0985"/>
<polygon fill="#05a8d1" stroke="#000000" points="904.3667,-667.6931 900.2799,-657.9183 897.3791,-668.1082 904.3667,-667.6931"/>
</g>
<!-- pkgresources&#45;&gt;pygments -->
<g id="edge11" class="edge">
<title>pkgresources&#45;&gt;pygments</title><style>.edge>path:hover{stroke-width:8}</style>
<path fill="none" stroke="#000000" d="M898.9325,-803.1955C900.4483,-789.9591 909.0503,-778.962 919.1856,-770.3952"/>
<polygon fill="#05a8d1" stroke="#000000" points="921.3178,-773.1708 927.1429,-764.321 917.0704,-767.6066 921.3178,-773.1708"/>
</g>
<!-- setuptools -->
<g id="node24" class="node">
<title>setuptools</title><style>.edge>path:hover{stroke-width:8}</style>
<polygon fill="#a83892" stroke="#000000" points="870.9325,-766.6955 867.9325,-770.6955 846.9325,-770.6955 843.9325,-766.6955 808.9325,-766.6955 808.9325,-730.6955 870.9325,-730.6955 870.9325,-766.6955"/>
<text text-anchor="middle" x="839.9325" y="-746.1955" font-family="Helvetica,sans-Serif" font-size="10.00" fill="#ffffff">setuptools</text>
</g>
<!-- pkgresources&#45;&gt;setuptools -->
<g id="edge12" class="edge">
<title>pkgresources&#45;&gt;setuptools</title><style>.edge>path:hover{stroke-width:8}</style>
<path fill="none" stroke="#000000" d="M891.438,-839.4756C894.3166,-828.9778 897.527,-815.4689 898.9325,-803.1955"/>
<path fill="none" stroke="#000000" d="M898.9325,-803.1955C900.5825,-788.7875 891.1545,-777.0914 879.3772,-768.2816"/>
<polygon fill="#05a8d1" stroke="#000000" points="881.2129,-765.2987 870.9555,-762.6458 877.3197,-771.1162 881.2129,-765.2987"/>
</g>
<!-- pluggy -->
<g id="node20" class="node">
<title>pluggy</title><style>.edge>path:hover{stroke-width:8}</style>
<polygon fill="#537bb6" stroke="#000000" points="1206.9325,-420.3869 1203.9325,-424.3869 1182.9325,-424.3869 1179.9325,-420.3869 1152.9325,-420.3869 1152.9325,-384.3869 1206.9325,-384.3869 1206.9325,-420.3869"/>
<text text-anchor="middle" x="1179.9325" y="-399.8869" font-family="Helvetica,sans-Serif" font-size="10.00" fill="#ffffff">pluggy</text>
</g>
<!-- pluggy&#45;&gt;pytest -->
<g id="edge13" class="edge">
<title>pluggy&#45;&gt;pytest</title><style>.edge>path:hover{stroke-width:8}</style>
<path fill="none" stroke="#000000" d="M1165.7032,-384.3239C1159.6228,-377.6273 1152.0547,-370.4864 1143.9325,-365.6173 1094.2932,-335.8596 1047.5856,-379.4023 1018.9325,-329.1173"/>
</g>
<!-- py&#45;&gt;pytest -->
<g id="edge14" class="edge">
<title>py&#45;&gt;pytest</title><style>.edge>path:hover{stroke-width:8}</style>
<path fill="none" stroke="#000000" d="M915.9058,-621.6503C930.4672,-604.4937 949.7468,-577.1776 953.9325,-548.926"/>
<path fill="none" stroke="#000000" d="M953.9325,-548.926C965.9435,-467.8569 934.7139,-437.5781 973.9325,-365.6173 986.2559,-343.0055 1031.6818,-351.4918 1018.9325,-329.1173"/>
</g>
<!-- pygments&#45;&gt;pytest -->
<g id="edge15" class="edge">
<title>pygments&#45;&gt;pytest</title><style>.edge>path:hover{stroke-width:8}</style>
<path fill="none" stroke="#000000" d="M954.6435,-730.6477C950.6223,-695.4439 943.6431,-615.2502 953.9325,-548.926"/>
</g>
<!-- setuptools&#45;&gt;numpy -->
<g id="edge17" class="edge">
<title>setuptools&#45;&gt;numpy</title><style>.edge>path:hover{stroke-width:8}</style>
<path fill="none" stroke="#000000" d="M839.9325,-730.615C839.9325,-695.7152 839.9325,-618.8391 839.9325,-577.1467"/>
<polygon fill="#a83892" stroke="#000000" points="843.4326,-577.1096 839.9325,-567.1096 836.4326,-577.1096 843.4326,-577.1096"/>
</g>
</g>
</svg>
