<?xml version="1.0" encoding="UTF-8" standalone="no"?>
<!DOCTYPE svg PUBLIC "-//W3C//DTD SVG 1.1//EN"
 "http://www.w3.org/Graphics/SVG/1.1/DTD/svg11.dtd">
<!-- Generated by graphviz version 2.40.1 (20161225.0304)
 -->
<!-- Title: G Pages: 1 -->
<svg width="1216pt" height="1020pt"
 viewBox="0.00 0.00 1215.93 1019.91" xmlns="http://www.w3.org/2000/svg" xmlns:xlink="http://www.w3.org/1999/xlink">
<g id="graph0" class="graph" transform="scale(1 1) rotate(0) translate(4 1015.9138)">
<title>G</title><style>.edge>path:hover{stroke-width:8}</style>
<polygon fill="#ffffff" stroke="transparent" points="-4,4 -4,-1015.9138 1211.9325,-1015.9138 1211.9325,4 -4,4"/>
<!-- drone_controller_input_layer_drone_state -->
<g id="node1" class="node">
<title>drone_controller_input_layer_drone_state</title><style>.edge>path:hover{stroke-width:8}</style>
<ellipse fill="#23c823" stroke="#000000" cx="297.9325" cy="-382.9396" rx="62.8651" ry="28.9828"/>
<text text-anchor="middle" x="297.9325" y="-391.4396" font-family="Helvetica,sans-Serif" font-size="10.00" fill="#000000">drone_controller.</text>
<text text-anchor="middle" x="297.9325" y="-380.4396" font-family="Helvetica,sans-Serif" font-size="10.00" fill="#000000">input_layer.</text>
<text text-anchor="middle" x="297.9325" y="-369.4396" font-family="Helvetica,sans-Serif" font-size="10.00" fill="#000000">drone_state</text>
</g>
<!-- drone_controller_input_layer_request_handler -->
<g id="node7" class="node">
<title>drone_controller_input_layer_request_handler</title><style>.edge>path:hover{stroke-width:8}</style>
<ellipse fill="#347934" stroke="#000000" cx="373.9325" cy="-28.9914" rx="62.8651" ry="28.9828"/>
<text text-anchor="middle" x="373.9325" y="-37.4914" font-family="Helvetica,sans-Serif" font-size="10.00" fill="#ffffff">drone_controller.</text>
<text text-anchor="middle" x="373.9325" y="-26.4914" font-family="Helvetica,sans-Serif" font-size="10.00" fill="#ffffff">input_layer.</text>
<text text-anchor="middle" x="373.9325" y="-15.4914" font-family="Helvetica,sans-Serif" font-size="10.00" fill="#ffffff">request_handler</text>
</g>
<!-- drone_controller_input_layer_drone_state&#45;&gt;drone_controller_input_layer_request_handler -->
<g id="edge13" class="edge">
<title>drone_controller_input_layer_drone_state&#45;&gt;drone_controller_input_layer_request_handler</title><style>.edge>path:hover{stroke-width:8}</style>
<path fill="none" stroke="#000000" d="M270.6463,-356.772C257.7579,-341.6046 245.1174,-321.3171 244.9325,-299.9483"/>
<path fill="none" stroke="#000000" d="M244.9325,-299.9483C244.6134,-263.0646 240.7906,-253.6087 244.9325,-216.9569"/>
</g>
<!-- drone_controller_calculation_layer_thrust_calculator -->
<g id="node8" class="node">
<title>drone_controller_calculation_layer_thrust_calculator</title><style>.edge>path:hover{stroke-width:8}</style>
<ellipse fill="#339933" stroke="#000000" cx="503.9325" cy="-216.9569" rx="65.1077" ry="28.9828"/>
<text text-anchor="middle" x="503.9325" y="-225.4569" font-family="Helvetica,sans-Serif" font-size="10.00" fill="#ffffff">drone_controller.</text>
<text text-anchor="middle" x="503.9325" y="-214.4569" font-family="Helvetica,sans-Serif" font-size="10.00" fill="#ffffff">calculation_layer.</text>
<text text-anchor="middle" x="503.9325" y="-203.4569" font-family="Helvetica,sans-Serif" font-size="10.00" fill="#ffffff">thrust_calculator</text>
</g>
<!-- drone_controller_input_layer_drone_state&#45;&gt;drone_controller_calculation_layer_thrust_calculator -->
<g id="edge11" class="edge">
<title>drone_controller_input_layer_drone_state&#45;&gt;drone_controller_calculation_layer_thrust_calculator</title><style>.edge>path:hover{stroke-width:8}</style>
<path fill="none" stroke="#000000" d="M329.2195,-357.7304C365.367,-328.6049 424.9082,-280.63 464.273,-248.9122"/>
<polygon fill="#23c823" stroke="#000000" points="466.7602,-251.4029 472.3511,-242.4033 462.3683,-245.9522 466.7602,-251.4029"/>
</g>
<!-- drone_controller_input_layer_drone_state_mapper -->
<g id="node9" class="node">
<title>drone_controller_input_layer_drone_state_mapper</title><style>.edge>path:hover{stroke-width:8}</style>
<ellipse fill="#339933" stroke="#000000" cx="346.9325" cy="-216.9569" rx="74.4932" ry="28.9828"/>
<text text-anchor="middle" x="346.9325" y="-225.4569" font-family="Helvetica,sans-Serif" font-size="10.00" fill="#ffffff">drone_controller.</text>
<text text-anchor="middle" x="346.9325" y="-214.4569" font-family="Helvetica,sans-Serif" font-size="10.00" fill="#ffffff">input_layer.</text>
<text text-anchor="middle" x="346.9325" y="-203.4569" font-family="Helvetica,sans-Serif" font-size="10.00" fill="#ffffff">drone_state_mapper</text>
</g>
<!-- drone_controller_input_layer_drone_state&#45;&gt;drone_controller_input_layer_drone_state_mapper -->
<g id="edge12" class="edge">
<title>drone_controller_input_layer_drone_state&#45;&gt;drone_controller_input_layer_drone_state_mapper</title><style>.edge>path:hover{stroke-width:8}</style>
<path fill="none" stroke="#000000" d="M244.9325,-299.9483C244.7145,-274.7566 263.6374,-255.8623 285.24,-242.5172"/>
<polygon fill="#23c823" stroke="#000000" points="287.0332,-245.5234 293.9459,-237.4944 283.535,-239.4602 287.0332,-245.5234"/>
</g>
<!-- drone_controller_input_layer -->
<g id="node2" class="node">
<title>drone_controller_input_layer</title><style>.edge>path:hover{stroke-width:8}</style>
<ellipse fill="#2fdb2f" stroke="#000000" cx="767.9325" cy="-382.9396" rx="62.8651" ry="21.4286"/>
<text text-anchor="middle" x="767.9325" y="-385.9396" font-family="Helvetica,sans-Serif" font-size="10.00" fill="#000000">drone_controller.</text>
<text text-anchor="middle" x="767.9325" y="-374.9396" font-family="Helvetica,sans-Serif" font-size="10.00" fill="#000000">input_layer</text>
</g>
<!-- drone_controller_input_layer&#45;&gt;drone_controller_calculation_layer_thrust_calculator -->
<g id="edge9" class="edge">
<title>drone_controller_input_layer&#45;&gt;drone_controller_calculation_layer_thrust_calculator</title><style>.edge>path:hover{stroke-width:8}</style>
<path fill="none" stroke="#000000" d="M770.6308,-361.4742C772.1189,-344.5281 772.8039,-320.4125 767.9325,-299.9483"/>
</g>
<!-- drone_controller_util -->
<g id="node3" class="node">
<title>drone_controller_util</title><style>.edge>path:hover{stroke-width:8}</style>
<ellipse fill="#3bce3b" stroke="#000000" cx="479.9325" cy="-382.9396" rx="62.8651" ry="21.4286"/>
<text text-anchor="middle" x="479.9325" y="-385.9396" font-family="Helvetica,sans-Serif" font-size="10.00" fill="#000000">drone_controller.</text>
<text text-anchor="middle" x="479.9325" y="-374.9396" font-family="Helvetica,sans-Serif" font-size="10.00" fill="#000000">util</text>
</g>
<!-- drone_controller_util&#45;&gt;drone_controller_calculation_layer_thrust_calculator -->
<g id="edge15" class="edge">
<title>drone_controller_util&#45;&gt;drone_controller_calculation_layer_thrust_calculator</title><style>.edge>path:hover{stroke-width:8}</style>
<path fill="none" stroke="#000000" d="M518.8081,-366.1481C529.4407,-361.869 541.0381,-357.4848 551.9325,-353.9483 646.0522,-323.3952 790.848,-396.2129 767.9325,-299.9483"/>
<path fill="none" stroke="#000000" d="M767.9325,-299.9483C758.7487,-261.3683 651.6218,-238.0338 576.693,-226.3259"/>
<polygon fill="#3bce3b" stroke="#000000" points="577.2204,-222.8659 566.8071,-224.8189 576.1654,-229.7859 577.2204,-222.8659"/>
</g>
<!-- drone_controller_util&#45;&gt;drone_controller_input_layer_drone_state_mapper -->
<g id="edge16" class="edge">
<title>drone_controller_util&#45;&gt;drone_controller_input_layer_drone_state_mapper</title><style>.edge>path:hover{stroke-width:8}</style>
<path fill="none" stroke="#000000" d="M499.4746,-362.4735C514.7182,-344.0505 530.7243,-317.2831 513.9325,-299.9483"/>
<path fill="none" stroke="#000000" d="M513.9325,-299.9483C497.9976,-283.4981 448.6695,-259.8827 407.7248,-242.0461"/>
<polygon fill="#3bce3b" stroke="#000000" points="408.8972,-238.7401 398.329,-237.9893 406.1224,-245.1666 408.8972,-238.7401"/>
</g>
<!-- drone_controller_input_layer_drone_physics -->
<g id="node4" class="node">
<title>drone_controller_input_layer_drone_physics</title><style>.edge>path:hover{stroke-width:8}</style>
<ellipse fill="#47c247" stroke="#000000" cx="373.9325" cy="-122.9741" rx="62.8651" ry="28.9828"/>
<text text-anchor="middle" x="373.9325" y="-131.4741" font-family="Helvetica,sans-Serif" font-size="10.00" fill="#000000">drone_controller.</text>
<text text-anchor="middle" x="373.9325" y="-120.4741" font-family="Helvetica,sans-Serif" font-size="10.00" fill="#000000">input_layer.</text>
<text text-anchor="middle" x="373.9325" y="-109.4741" font-family="Helvetica,sans-Serif" font-size="10.00" fill="#000000">drone_physics</text>
</g>
<!-- drone_controller_input_layer_drone_physics&#45;&gt;drone_controller_input_layer_request_handler -->
<g id="edge10" class="edge">
<title>drone_controller_input_layer_drone_physics&#45;&gt;drone_controller_input_layer_request_handler</title><style>.edge>path:hover{stroke-width:8}</style>
<path fill="none" stroke="#000000" d="M373.9325,-93.7526C373.9325,-85.7078 373.9325,-76.8481 373.9325,-68.3329"/>
<polygon fill="#47c247" stroke="#000000" points="377.4326,-68.1948 373.9325,-58.1949 370.4326,-68.1949 377.4326,-68.1948"/>
</g>
<!-- drone_controller_exception -->
<g id="node5" class="node">
<title>drone_controller_exception</title><style>.edge>path:hover{stroke-width:8}</style>
<ellipse fill="#3bce3b" stroke="#000000" cx="206.9325" cy="-548.9224" rx="62.8651" ry="21.4286"/>
<text text-anchor="middle" x="206.9325" y="-551.9224" font-family="Helvetica,sans-Serif" font-size="10.00" fill="#000000">drone_controller.</text>
<text text-anchor="middle" x="206.9325" y="-540.9224" font-family="Helvetica,sans-Serif" font-size="10.00" fill="#000000">exception</text>
</g>
<!-- drone_controller_exception&#45;&gt;drone_controller_input_layer_drone_state -->
<g id="edge5" class="edge">
<title>drone_controller_exception&#45;&gt;drone_controller_input_layer_drone_state</title><style>.edge>path:hover{stroke-width:8}</style>
<path fill="none" stroke="#000000" d="M212.5538,-527.716C218.2476,-509.5565 228.5776,-483.6145 244.9325,-465.931"/>
</g>
<!-- drone_controller_exception&#45;&gt;drone_controller_input_layer_request_handler -->
<g id="edge6" class="edge">
<title>drone_controller_exception&#45;&gt;drone_controller_input_layer_request_handler</title><style>.edge>path:hover{stroke-width:8}</style>
<path fill="none" stroke="#000000" d="M202.9504,-527.7398C200.6398,-510.5251 199.4745,-485.9085 206.9325,-465.931"/>
</g>
<!-- drone_controller_calculation_layer -->
<g id="node6" class="node">
<title>drone_controller_calculation_layer</title><style>.edge>path:hover{stroke-width:8}</style>
<ellipse fill="#47c247" stroke="#000000" cx="153.9325" cy="-216.9569" rx="62.8651" ry="21.4286"/>
<text text-anchor="middle" x="153.9325" y="-219.9569" font-family="Helvetica,sans-Serif" font-size="10.00" fill="#000000">drone_controller.</text>
<text text-anchor="middle" x="153.9325" y="-208.9569" font-family="Helvetica,sans-Serif" font-size="10.00" fill="#000000">calculation_layer</text>
</g>
<!-- drone_controller_calculation_layer&#45;&gt;drone_controller_input_layer_request_handler -->
<g id="edge3" class="edge">
<title>drone_controller_calculation_layer&#45;&gt;drone_controller_input_layer_request_handler</title><style>.edge>path:hover{stroke-width:8}</style>
<path fill="none" stroke="#000000" d="M180.604,-197.3876C201.7731,-180.2707 230.18,-153.4297 244.9325,-122.9741"/>
<path fill="none" stroke="#000000" d="M244.9325,-122.9741C259.92,-92.0335 290.681,-69.0082 318.4057,-53.4936"/>
<polygon fill="#47c247" stroke="#000000" points="320.1293,-56.5407 327.2766,-48.7197 316.8121,-50.3765 320.1293,-56.5407"/>
</g>
<!-- drone_controller_calculation_layer_thrust_calculator&#45;&gt;drone_controller_input_layer_request_handler -->
<g id="edge4" class="edge">
<title>drone_controller_calculation_layer_thrust_calculator&#45;&gt;drone_controller_input_layer_request_handler</title><style>.edge>path:hover{stroke-width:8}</style>
<path fill="none" stroke="#000000" d="M494.0618,-188.1013C484.2963,-161.994 467.6715,-123.2654 445.9325,-93.9828 436.9614,-81.8987 425.4786,-70.3307 414.3312,-60.3913"/>
<polygon fill="#339933" stroke="#000000" points="416.5529,-57.6853 406.7024,-53.7841 411.9701,-62.9766 416.5529,-57.6853"/>
</g>
<!-- drone_controller_input_layer_drone_state_mapper&#45;&gt;drone_controller_input_layer_request_handler -->
<g id="edge14" class="edge">
<title>drone_controller_input_layer_drone_state_mapper&#45;&gt;drone_controller_input_layer_request_handler</title><style>.edge>path:hover{stroke-width:8}</style>
<path fill="none" stroke="#000000" d="M295.3986,-195.9511C263.04,-179.2973 230.0265,-153.7466 244.9325,-122.9741"/>
</g>
<!-- drone_controller_util_list_operators -->
<g id="node10" class="node">
<title>drone_controller_util_list_operators</title><style>.edge>path:hover{stroke-width:8}</style>
<ellipse fill="#3bce3b" stroke="#000000" cx="623.9325" cy="-382.9396" rx="62.8651" ry="28.9828"/>
<text text-anchor="middle" x="623.9325" y="-391.4396" font-family="Helvetica,sans-Serif" font-size="10.00" fill="#000000">drone_controller.</text>
<text text-anchor="middle" x="623.9325" y="-380.4396" font-family="Helvetica,sans-Serif" font-size="10.00" fill="#000000">util.</text>
<text text-anchor="middle" x="623.9325" y="-369.4396" font-family="Helvetica,sans-Serif" font-size="10.00" fill="#000000">list_operators</text>
</g>
<!-- drone_controller_util_list_operators&#45;&gt;drone_controller_calculation_layer_thrust_calculator -->
<g id="edge17" class="edge">
<title>drone_controller_util_list_operators&#45;&gt;drone_controller_calculation_layer_thrust_calculator</title><style>.edge>path:hover{stroke-width:8}</style>
<path fill="none" stroke="#000000" d="M668.6144,-362.3779C711.8939,-341.7177 770.6471,-311.3519 767.9325,-299.9483"/>
</g>
<!-- drone_controller_util_list_operators&#45;&gt;drone_controller_input_layer_drone_state_mapper -->
<g id="edge18" class="edge">
<title>drone_controller_util_list_operators&#45;&gt;drone_controller_input_layer_drone_state_mapper</title><style>.edge>path:hover{stroke-width:8}</style>
<path fill="none" stroke="#000000" d="M586.9742,-359.353C564.4625,-343.9858 535.9035,-322.6298 513.9325,-299.9483"/>
</g>
<!-- drone_controller_exception_exceptions -->
<g id="node11" class="node">
<title>drone_controller_exception_exceptions</title><style>.edge>path:hover{stroke-width:8}</style>
<ellipse fill="#3bce3b" stroke="#000000" cx="62.9325" cy="-548.9224" rx="62.8651" ry="28.9828"/>
<text text-anchor="middle" x="62.9325" y="-557.4224" font-family="Helvetica,sans-Serif" font-size="10.00" fill="#000000">drone_controller.</text>
<text text-anchor="middle" x="62.9325" y="-546.4224" font-family="Helvetica,sans-Serif" font-size="10.00" fill="#000000">exception.</text>
<text text-anchor="middle" x="62.9325" y="-535.4224" font-family="Helvetica,sans-Serif" font-size="10.00" fill="#000000">exceptions</text>
</g>
<!-- drone_controller_exception_exceptions&#45;&gt;drone_controller_input_layer_drone_state -->
<g id="edge7" class="edge">
<title>drone_controller_exception_exceptions&#45;&gt;drone_controller_input_layer_drone_state</title><style>.edge>path:hover{stroke-width:8}</style>
<path fill="none" stroke="#000000" d="M110.3314,-529.7647C154.9676,-511.6712 215.7592,-486.8716 220.9325,-483.931 232.5241,-477.3422 235.8793,-475.7196 244.9325,-465.931"/>
<path fill="none" stroke="#000000" d="M244.9325,-465.931C257.5252,-452.3154 268.9628,-435.3361 277.9629,-420.2889"/>
<polygon fill="#3bce3b" stroke="#000000" points="281.2373,-421.6207 283.2403,-411.2169 275.1866,-418.1008 281.2373,-421.6207"/>
</g>
<!-- drone_controller_exception_exceptions&#45;&gt;drone_controller_input_layer_request_handler -->
<g id="edge8" class="edge">
<title>drone_controller_exception_exceptions&#45;&gt;drone_controller_input_layer_request_handler</title><style>.edge>path:hover{stroke-width:8}</style>
<path fill="none" stroke="#000000" d="M109.9764,-529.6409C148.9575,-512.3831 199.187,-486.6784 206.9325,-465.931"/>
<path fill="none" stroke="#000000" d="M206.9325,-465.931C235.7736,-388.6761 216.9046,-363.2093 230.9325,-281.9483 235.9589,-252.8313 241.6145,-246.3176 244.9325,-216.9569"/>
<path fill="none" stroke="#000000" d="M244.9325,-216.9569C246.9388,-175.235 226.7231,-160.5662 244.9325,-122.9741"/>
</g>
<!-- attr -->
<g id="node12" class="node">
<title>attr</title><style>.edge>path:hover{stroke-width:8}</style>
<polygon fill="#98ac49" stroke="#000000" points="1207.9325,-317.9483 1204.9325,-321.9483 1183.9325,-321.9483 1180.9325,-317.9483 1153.9325,-317.9483 1153.9325,-281.9483 1207.9325,-281.9483 1207.9325,-317.9483"/>
<text text-anchor="middle" x="1180.9325" y="-297.4483" font-family="Helvetica,sans-Serif" font-size="10.00" fill="#000000">attr</text>
</g>
<!-- pytest -->
<g id="node23" class="node">
<title>pytest</title><style>.edge>path:hover{stroke-width:8}</style>
<polygon fill="#e5b805" stroke="#000000" points="924.9325,-140.9741 921.9325,-144.9741 900.9325,-144.9741 897.9325,-140.9741 870.9325,-140.9741 870.9325,-104.9741 924.9325,-104.9741 924.9325,-140.9741"/>
<text text-anchor="middle" x="897.9325" y="-120.4741" font-family="Helvetica,sans-Serif" font-size="10.00" fill="#000000">pytest</text>
</g>
<!-- attr&#45;&gt;pytest -->
<g id="edge1" class="edge">
<title>attr&#45;&gt;pytest</title><style>.edge>path:hover{stroke-width:8}</style>
<path fill="none" stroke="#000000" d="M1153.6958,-285.9782C1119.9014,-268.034 1065.3246,-236.8393 1053.9325,-216.9569"/>
</g>
<!-- chardet -->
<g id="node13" class="node">
<title>chardet</title><style>.edge>path:hover{stroke-width:8}</style>
<polygon fill="#63ef06" stroke="#000000" points="1042.9325,-939.9138 1039.9325,-943.9138 1018.9325,-943.9138 1015.9325,-939.9138 988.9325,-939.9138 988.9325,-903.9138 1042.9325,-903.9138 1042.9325,-939.9138"/>
<text text-anchor="middle" x="1015.9325" y="-919.4138" font-family="Helvetica,sans-Serif" font-size="10.00" fill="#000000">chardet</text>
</g>
<!-- pygments -->
<g id="node22" class="node">
<title>pygments</title><style>.edge>path:hover{stroke-width:8}</style>
<polygon fill="#a947c2" stroke="#000000" points="1039.4325,-830.9138 1036.4325,-834.9138 1015.4325,-834.9138 1012.4325,-830.9138 980.4325,-830.9138 980.4325,-794.9138 1039.4325,-794.9138 1039.4325,-830.9138"/>
<text text-anchor="middle" x="1009.9325" y="-810.4138" font-family="Helvetica,sans-Serif" font-size="10.00" fill="#ffffff">pygments</text>
</g>
<!-- chardet&#45;&gt;pygments -->
<g id="edge2" class="edge">
<title>chardet&#45;&gt;pygments</title><style>.edge>path:hover{stroke-width:8}</style>
<path fill="none" stroke="#000000" d="M1014.9147,-903.4234C1013.9781,-886.409 1012.575,-860.9193 1011.4962,-841.3214"/>
<polygon fill="#63ef06" stroke="#000000" points="1014.9797,-840.9236 1010.9353,-831.1311 1007.9903,-841.3084 1014.9797,-840.9236"/>
</g>
<!-- imp -->
<g id="node14" class="node">
<title>imp</title><style>.edge>path:hover{stroke-width:8}</style>
<polygon fill="#b67b53" stroke="#000000" points="923.9325,-1011.9138 920.9325,-1015.9138 899.9325,-1015.9138 896.9325,-1011.9138 869.9325,-1011.9138 869.9325,-975.9138 923.9325,-975.9138 923.9325,-1011.9138"/>
<text text-anchor="middle" x="896.9325" y="-991.4138" font-family="Helvetica,sans-Serif" font-size="10.00" fill="#000000">imp</text>
</g>
<!-- pkgresources -->
<g id="node19" class="node">
<title>pkgresources</title><style>.edge>path:hover{stroke-width:8}</style>
<polygon fill="#4778c2" stroke="#000000" points="970.4325,-939.9138 967.4325,-943.9138 946.4325,-943.9138 943.4325,-939.9138 895.4325,-939.9138 895.4325,-903.9138 970.4325,-903.9138 970.4325,-939.9138"/>
<text text-anchor="middle" x="932.9325" y="-919.4138" font-family="Helvetica,sans-Serif" font-size="10.00" fill="#ffffff">pkgresources</text>
</g>
<!-- imp&#45;&gt;pkgresources -->
<g id="edge19" class="edge">
<title>imp&#45;&gt;pkgresources</title><style>.edge>path:hover{stroke-width:8}</style>
<path fill="none" stroke="#000000" d="M906.0168,-975.7451C909.994,-967.7909 914.748,-958.2828 919.1464,-949.4861"/>
<polygon fill="#b67b53" stroke="#000000" points="922.3842,-950.8366 923.7259,-940.327 916.1232,-947.7061 922.3842,-950.8366"/>
</g>
<!-- main -->
<g id="node15" class="node">
<title>main</title><style>.edge>path:hover{stroke-width:8}</style>
<polygon fill="#6b2e2e" stroke="#000000" points="995.9325,-1011.9138 992.9325,-1015.9138 971.9325,-1015.9138 968.9325,-1011.9138 941.9325,-1011.9138 941.9325,-975.9138 995.9325,-975.9138 995.9325,-1011.9138"/>
<text text-anchor="middle" x="968.9325" y="-991.4138" font-family="Helvetica,sans-Serif" font-size="10.00" fill="#ffffff">main</text>
</g>
<!-- main&#45;&gt;pkgresources -->
<g id="edge20" class="edge">
<title>main&#45;&gt;pkgresources</title><style>.edge>path:hover{stroke-width:8}</style>
<path fill="none" stroke="#000000" d="M959.8482,-975.7451C955.8711,-967.7909 951.117,-958.2828 946.7186,-949.4861"/>
<polygon fill="#6b2e2e" stroke="#000000" points="949.7418,-947.7061 942.1391,-940.327 943.4808,-950.8366 949.7418,-947.7061"/>
</g>
<!-- moreitertools -->
<g id="node16" class="node">
<title>moreitertools</title><style>.edge>path:hover{stroke-width:8}</style>
<polygon fill="#47c278" stroke="#000000" points="869.4325,-317.9483 866.4325,-321.9483 845.4325,-321.9483 842.4325,-317.9483 796.4325,-317.9483 796.4325,-281.9483 869.4325,-281.9483 869.4325,-317.9483"/>
<text text-anchor="middle" x="832.9325" y="-297.4483" font-family="Helvetica,sans-Serif" font-size="10.00" fill="#000000">moreitertools</text>
</g>
<!-- moreitertools&#45;&gt;pytest -->
<g id="edge21" class="edge">
<title>moreitertools&#45;&gt;pytest</title><style>.edge>path:hover{stroke-width:8}</style>
<path fill="none" stroke="#000000" d="M839.6438,-281.6755C851.0586,-250.5967 874.319,-187.2662 887.7486,-150.7017"/>
<polygon fill="#47c278" stroke="#000000" points="891.0954,-151.7411 891.2577,-141.1475 884.5246,-149.3277 891.0954,-151.7411"/>
</g>
<!-- numpy -->
<g id="node17" class="node">
<title>numpy</title><style>.edge>path:hover{stroke-width:8}</style>
<polygon fill="#1da58a" stroke="#000000" points="907.9325,-483.931 904.9325,-487.931 883.9325,-487.931 880.9325,-483.931 853.9325,-483.931 853.9325,-447.931 907.9325,-447.931 907.9325,-483.931"/>
<text text-anchor="middle" x="880.9325" y="-463.431" font-family="Helvetica,sans-Serif" font-size="10.00" fill="#ffffff">numpy</text>
</g>
<!-- numpy&#45;&gt;drone_controller_calculation_layer_thrust_calculator -->
<g id="edge22" class="edge">
<title>numpy&#45;&gt;drone_controller_calculation_layer_thrust_calculator</title><style>.edge>path:hover{stroke-width:8}</style>
<path fill="none" stroke="#000000" d="M877.7894,-447.5956C872.9885,-423.9396 861.9657,-382.4488 839.9325,-353.9483 815.4676,-322.3023 777.1955,-338.8609 767.9325,-299.9483"/>
</g>
<!-- numpy&#45;&gt;drone_controller_input_layer_drone_state_mapper -->
<g id="edge23" class="edge">
<title>numpy&#45;&gt;drone_controller_input_layer_drone_state_mapper</title><style>.edge>path:hover{stroke-width:8}</style>
<path fill="none" stroke="#000000" d="M853.7508,-464.5418C758.3241,-459.434 442.4961,-440.494 407.9325,-411.931 383.8253,-392.009 363.9845,-307.0111 353.972,-256.0487"/>
<polygon fill="#1da58a" stroke="#000000" points="357.3713,-255.1911 352.0444,-246.0328 350.4974,-256.5141 357.3713,-255.1911"/>
</g>
<!-- numpy&#45;&gt;pytest -->
<g id="edge24" class="edge">
<title>numpy&#45;&gt;pytest</title><style>.edge>path:hover{stroke-width:8}</style>
<path fill="none" stroke="#000000" d="M882.3446,-437.4439C885.5474,-372.8307 893.3321,-215.7819 896.5278,-151.3117"/>
<polygon fill="#1da58a" stroke="#000000" points="878.846,-437.3311 881.8465,-447.4922 885.8374,-437.6777 878.846,-437.3311"/>
<polygon fill="#1da58a" stroke="#000000" points="900.0352,-151.249 897.0346,-141.0879 893.0437,-150.9024 900.0352,-151.249"/>
</g>
<!-- packaging -->
<g id="node18" class="node">
<title>packaging</title><style>.edge>path:hover{stroke-width:8}</style>
<polygon fill="#53a2b6" stroke="#000000" points="1025.4325,-317.9483 1022.4325,-321.9483 1001.4325,-321.9483 998.4325,-317.9483 964.4325,-317.9483 964.4325,-281.9483 1025.4325,-281.9483 1025.4325,-317.9483"/>
<text text-anchor="middle" x="994.9325" y="-297.4483" font-family="Helvetica,sans-Serif" font-size="10.00" fill="#000000">packaging</text>
</g>
<!-- packaging&#45;&gt;pytest -->
<g id="edge25" class="edge">
<title>packaging&#45;&gt;pytest</title><style>.edge>path:hover{stroke-width:8}</style>
<path fill="none" stroke="#000000" d="M1022.4301,-281.8521C1043.6785,-265.4854 1067.3792,-240.4251 1053.9325,-216.9569"/>
</g>
<!-- py -->
<g id="node21" class="node">
<title>py</title><style>.edge>path:hover{stroke-width:8}</style>
<polygon fill="#7b53b6" stroke="#000000" points="964.9325,-686.9138 961.9325,-690.9138 940.9325,-690.9138 937.9325,-686.9138 910.9325,-686.9138 910.9325,-650.9138 964.9325,-650.9138 964.9325,-686.9138"/>
<text text-anchor="middle" x="937.9325" y="-666.4138" font-family="Helvetica,sans-Serif" font-size="10.00" fill="#ffffff">py</text>
</g>
<!-- pkgresources&#45;&gt;py -->
<g id="edge26" class="edge">
<title>pkgresources&#45;&gt;py</title><style>.edge>path:hover{stroke-width:8}</style>
<path fill="none" stroke="#000000" d="M939.9325,-812.9138C932.1795,-773.542 933.3617,-726.9382 935.3228,-697.6455"/>
<polygon fill="#4778c2" stroke="#000000" points="938.8396,-697.5509 936.0955,-687.3176 931.8591,-697.0285 938.8396,-697.5509"/>
</g>
<!-- pkgresources&#45;&gt;pygments -->
<g id="edge27" class="edge">
<title>pkgresources&#45;&gt;pygments</title><style>.edge>path:hover{stroke-width:8}</style>
<path fill="none" stroke="#000000" d="M939.9325,-867.4138C945.5105,-852.0998 958.4378,-840.1339 971.6854,-831.3649"/>
<polygon fill="#4778c2" stroke="#000000" points="973.656,-834.2625 980.3632,-826.061 970.0054,-828.2898 973.656,-834.2625"/>
</g>
<!-- setuptools -->
<g id="node24" class="node">
<title>setuptools</title><style>.edge>path:hover{stroke-width:8}</style>
<polygon fill="#c04073" stroke="#000000" points="911.9325,-758.9138 908.9325,-762.9138 887.9325,-762.9138 884.9325,-758.9138 849.9325,-758.9138 849.9325,-722.9138 911.9325,-722.9138 911.9325,-758.9138"/>
<text text-anchor="middle" x="880.9325" y="-738.4138" font-family="Helvetica,sans-Serif" font-size="10.00" fill="#ffffff">setuptools</text>
</g>
<!-- pkgresources&#45;&gt;setuptools -->
<g id="edge28" class="edge">
<title>pkgresources&#45;&gt;setuptools</title><style>.edge>path:hover{stroke-width:8}</style>
<path fill="none" stroke="#000000" d="M933.2659,-903.7708C933.9494,-892.9383 935.6882,-879.0663 939.9325,-867.4138"/>
<path fill="none" stroke="#000000" d="M939.9325,-867.4138C948.2225,-844.6543 944.6124,-836.6796 939.9325,-812.9138"/>
<path fill="none" stroke="#000000" d="M939.9325,-812.9138C936.3567,-794.7546 924.1726,-778.4335 911.7978,-765.94"/>
<polygon fill="#4778c2" stroke="#000000" points="914.2089,-763.4029 904.5534,-759.0414 909.3816,-768.4722 914.2089,-763.4029"/>
</g>
<!-- pluggy -->
<g id="node20" class="node">
<title>pluggy</title><style>.edge>path:hover{stroke-width:8}</style>
<polygon fill="#2121bf" stroke="#000000" points="1135.9325,-317.9483 1132.9325,-321.9483 1111.9325,-321.9483 1108.9325,-317.9483 1081.9325,-317.9483 1081.9325,-281.9483 1135.9325,-281.9483 1135.9325,-317.9483"/>
<text text-anchor="middle" x="1108.9325" y="-297.4483" font-family="Helvetica,sans-Serif" font-size="10.00" fill="#ffffff">pluggy</text>
</g>
<!-- pluggy&#45;&gt;pytest -->
<g id="edge29" class="edge">
<title>pluggy&#45;&gt;pytest</title><style>.edge>path:hover{stroke-width:8}</style>
<path fill="none" stroke="#000000" d="M1095.9988,-281.9217C1084.3813,-265.3945 1067.1661,-240.0532 1053.9325,-216.9569"/>
</g>
<!-- py&#45;&gt;pytest -->
<g id="edge30" class="edge">
<title>py&#45;&gt;pytest</title><style>.edge>path:hover{stroke-width:8}</style>
<path fill="none" stroke="#000000" d="M937.4381,-650.6196C936.8459,-627.0924 935.9325,-584.9665 935.9325,-548.9224 935.9325,-548.9224 935.9325,-548.9224 935.9325,-382.9396 935.9325,-337.1829 930.4615,-319.9602 955.9325,-281.9483 985.0253,-238.5312 1079.9151,-262.3037 1053.9325,-216.9569"/>
<path fill="none" stroke="#000000" d="M1053.9325,-216.9569C1027.8037,-172.7237 972.0007,-146.7801 934.7168,-133.7281"/>
<polygon fill="#7b53b6" stroke="#000000" points="935.7935,-130.3976 925.1995,-130.534 933.5663,-137.0339 935.7935,-130.3976"/>
</g>
<!-- pygments&#45;&gt;pytest -->
<g id="edge31" class="edge">
<title>pygments&#45;&gt;pytest</title><style>.edge>path:hover{stroke-width:8}</style>
<path fill="none" stroke="#000000" d="M1019.2638,-794.8163C1032.1796,-768.0434 1053.9325,-715.9676 1053.9325,-668.9138 1053.9325,-668.9138 1053.9325,-668.9138 1053.9325,-382.9396 1053.9325,-309.1695 1091.4519,-280.4732 1053.9325,-216.9569"/>
</g>
<!-- setuptools&#45;&gt;numpy -->
<g id="edge33" class="edge">
<title>setuptools&#45;&gt;numpy</title><style>.edge>path:hover{stroke-width:8}</style>
<path fill="none" stroke="#000000" d="M880.9325,-722.8714C880.9325,-676.0629 880.9325,-550.4614 880.9325,-494.0459"/>
<polygon fill="#c04073" stroke="#000000" points="884.4326,-494.0398 880.9325,-484.0398 877.4326,-494.0399 884.4326,-494.0398"/>
</g>
</g>
</svg>
