<?xml version="1.0" encoding="UTF-8" standalone="no"?>
<!DOCTYPE svg PUBLIC "-//W3C//DTD SVG 1.1//EN"
 "http://www.w3.org/Graphics/SVG/1.1/DTD/svg11.dtd">
<!-- Generated by graphviz version 2.40.1 (20161225.0304)
 -->
<!-- Title: G Pages: 1 -->
<svg width="1217pt" height="993pt"
 viewBox="0.00 0.00 1217.43 992.70" xmlns="http://www.w3.org/2000/svg" xmlns:xlink="http://www.w3.org/1999/xlink">
<g id="graph0" class="graph" transform="scale(1 1) rotate(0) translate(4 988.6955)">
<title>G</title><style>.edge>path:hover{stroke-width:8}</style>
<polygon fill="#ffffff" stroke="transparent" points="-4,4 -4,-988.6955 1213.4325,-988.6955 1213.4325,4 -4,4"/>
<!-- src_drone_controller_input_layer_drone_physics -->
<g id="node1" class="node">
<title>src_drone_controller_input_layer_drone_physics</title><style>.edge>path:hover{stroke-width:8}</style>
<ellipse fill="#c24778" stroke="#000000" cx="964.5" cy="-146.3087" rx="62.8651" ry="36.5405"/>
<text text-anchor="middle" x="964.5" y="-160.3087" font-family="Helvetica,sans-Serif" font-size="10.00" fill="#ffffff">src.</text>
<text text-anchor="middle" x="964.5" y="-149.3087" font-family="Helvetica,sans-Serif" font-size="10.00" fill="#ffffff">drone_controller.</text>
<text text-anchor="middle" x="964.5" y="-138.3087" font-family="Helvetica,sans-Serif" font-size="10.00" fill="#ffffff">input_layer.</text>
<text text-anchor="middle" x="964.5" y="-127.3087" font-family="Helvetica,sans-Serif" font-size="10.00" fill="#ffffff">drone_physics</text>
</g>
<!-- src_drone_controller_input_layer_request_handler -->
<g id="node6" class="node">
<title>src_drone_controller_input_layer_request_handler</title><style>.edge>path:hover{stroke-width:8}</style>
<ellipse fill="#72314b" stroke="#000000" cx="1009.5" cy="-36.7696" rx="62.8651" ry="36.5405"/>
<text text-anchor="middle" x="1009.5" y="-50.7696" font-family="Helvetica,sans-Serif" font-size="10.00" fill="#ffffff">src.</text>
<text text-anchor="middle" x="1009.5" y="-39.7696" font-family="Helvetica,sans-Serif" font-size="10.00" fill="#ffffff">drone_controller.</text>
<text text-anchor="middle" x="1009.5" y="-28.7696" font-family="Helvetica,sans-Serif" font-size="10.00" fill="#ffffff">input_layer.</text>
<text text-anchor="middle" x="1009.5" y="-17.7696" font-family="Helvetica,sans-Serif" font-size="10.00" fill="#ffffff">request_handler</text>
</g>
<!-- src_drone_controller_input_layer_drone_physics&#45;&gt;src_drone_controller_input_layer_request_handler -->
<g id="edge25" class="edge">
<title>src_drone_controller_input_layer_drone_physics&#45;&gt;src_drone_controller_input_layer_request_handler</title><style>.edge>path:hover{stroke-width:8}</style>
<path fill="none" stroke="#000000" d="M979.2347,-110.4415C982.9642,-101.363 987.0182,-91.4948 990.9111,-82.0188"/>
<polygon fill="#c24778" stroke="#000000" points="994.1696,-83.2972 994.7322,-72.7173 987.6947,-80.6372 994.1696,-83.2972"/>
</g>
<!-- src_drone_controller_calculation_layer_thrust_calculator -->
<g id="node2" class="node">
<title>src_drone_controller_calculation_layer_thrust_calculator</title><style>.edge>path:hover{stroke-width:8}</style>
<ellipse fill="#913057" stroke="#000000" cx="962.5" cy="-255.8478" rx="65.1077" ry="36.5405"/>
<text text-anchor="middle" x="962.5" y="-269.8478" font-family="Helvetica,sans-Serif" font-size="10.00" fill="#ffffff">src.</text>
<text text-anchor="middle" x="962.5" y="-258.8478" font-family="Helvetica,sans-Serif" font-size="10.00" fill="#ffffff">drone_controller.</text>
<text text-anchor="middle" x="962.5" y="-247.8478" font-family="Helvetica,sans-Serif" font-size="10.00" fill="#ffffff">calculation_layer.</text>
<text text-anchor="middle" x="962.5" y="-236.8478" font-family="Helvetica,sans-Serif" font-size="10.00" fill="#ffffff">thrust_calculator</text>
</g>
<!-- src_drone_controller_calculation_layer_thrust_calculator&#45;&gt;src_drone_controller_input_layer_request_handler -->
<g id="edge19" class="edge">
<title>src_drone_controller_calculation_layer_thrust_calculator&#45;&gt;src_drone_controller_input_layer_request_handler</title><style>.edge>path:hover{stroke-width:8}</style>
<path fill="none" stroke="#000000" d="M1004.3176,-227.6585C1028.0394,-208.1211 1053.4228,-179.6727 1055.5,-146.3087"/>
</g>
<!-- src_drone_controller_input_layer_drone_state_mapper -->
<g id="node3" class="node">
<title>src_drone_controller_input_layer_drone_state_mapper</title><style>.edge>path:hover{stroke-width:8}</style>
<ellipse fill="#913057" stroke="#000000" cx="805.5" cy="-255.8478" rx="74.4932" ry="36.5405"/>
<text text-anchor="middle" x="805.5" y="-269.8478" font-family="Helvetica,sans-Serif" font-size="10.00" fill="#ffffff">src.</text>
<text text-anchor="middle" x="805.5" y="-258.8478" font-family="Helvetica,sans-Serif" font-size="10.00" fill="#ffffff">drone_controller.</text>
<text text-anchor="middle" x="805.5" y="-247.8478" font-family="Helvetica,sans-Serif" font-size="10.00" fill="#ffffff">input_layer.</text>
<text text-anchor="middle" x="805.5" y="-236.8478" font-family="Helvetica,sans-Serif" font-size="10.00" fill="#ffffff">drone_state_mapper</text>
</g>
<!-- src_drone_controller_input_layer_drone_state_mapper&#45;&gt;src_drone_controller_input_layer_request_handler -->
<g id="edge29" class="edge">
<title>src_drone_controller_input_layer_drone_state_mapper&#45;&gt;src_drone_controller_input_layer_request_handler</title><style>.edge>path:hover{stroke-width:8}</style>
<path fill="none" stroke="#000000" d="M859.4164,-230.3039C868.9882,-226.2478 878.9505,-222.3259 888.5,-219.0782 965.1512,-193.0102 1050.469,-227.1148 1055.5,-146.3087"/>
<path fill="none" stroke="#000000" d="M1055.5,-146.3087C1056.9273,-123.3833 1048.408,-99.6748 1038.3257,-80.2028"/>
<polygon fill="#913057" stroke="#000000" points="1041.3204,-78.3843 1033.4512,-71.2902 1035.1789,-81.7432 1041.3204,-78.3843"/>
</g>
<!-- src_drone_controller_input_layer_drone_state -->
<g id="node4" class="node">
<title>src_drone_controller_input_layer_drone_state</title><style>.edge>path:hover{stroke-width:8}</style>
<ellipse fill="#bf2160" stroke="#000000" cx="856.5" cy="-402.3869" rx="62.8651" ry="36.5405"/>
<text text-anchor="middle" x="856.5" y="-416.3869" font-family="Helvetica,sans-Serif" font-size="10.00" fill="#ffffff">src.</text>
<text text-anchor="middle" x="856.5" y="-405.3869" font-family="Helvetica,sans-Serif" font-size="10.00" fill="#ffffff">drone_controller.</text>
<text text-anchor="middle" x="856.5" y="-394.3869" font-family="Helvetica,sans-Serif" font-size="10.00" fill="#ffffff">input_layer.</text>
<text text-anchor="middle" x="856.5" y="-383.3869" font-family="Helvetica,sans-Serif" font-size="10.00" fill="#ffffff">drone_state</text>
</g>
<!-- src_drone_controller_input_layer_drone_state&#45;&gt;src_drone_controller_calculation_layer_thrust_calculator -->
<g id="edge26" class="edge">
<title>src_drone_controller_input_layer_drone_state&#45;&gt;src_drone_controller_calculation_layer_thrust_calculator</title><style>.edge>path:hover{stroke-width:8}</style>
<path fill="none" stroke="#000000" d="M962.5,-329.1173C965.4074,-320.9327 966.7639,-311.9017 967.1899,-303.058"/>
<polygon fill="#bf2160" stroke="#000000" points="970.6921,-302.8613 967.2998,-292.8242 963.6925,-302.7861 970.6921,-302.8613"/>
</g>
<!-- src_drone_controller_input_layer_drone_state&#45;&gt;src_drone_controller_input_layer_drone_state_mapper -->
<g id="edge27" class="edge">
<title>src_drone_controller_input_layer_drone_state&#45;&gt;src_drone_controller_input_layer_drone_state_mapper</title><style>.edge>path:hover{stroke-width:8}</style>
<path fill="none" stroke="#000000" d="M903.2424,-377.4341C929.3172,-362.2202 957.5389,-343.0832 962.5,-329.1173"/>
<path fill="none" stroke="#000000" d="M962.5,-329.1173C962.9524,-327.8439 913.377,-304.8907 869.8239,-285.0109"/>
<polygon fill="#bf2160" stroke="#000000" points="871.1926,-281.7883 860.6418,-280.8243 868.2886,-288.1575 871.1926,-281.7883"/>
</g>
<!-- src_drone_controller_input_layer_drone_state&#45;&gt;src_drone_controller_input_layer_request_handler -->
<g id="edge28" class="edge">
<title>src_drone_controller_input_layer_drone_state&#45;&gt;src_drone_controller_input_layer_request_handler</title><style>.edge>path:hover{stroke-width:8}</style>
<path fill="none" stroke="#000000" d="M962.5,-329.1173C974.7756,-294.5608 1010.3274,-318.3046 1036.5,-292.6173 1049.6283,-279.7325 1050.3679,-273.5122 1055.5,-255.8478"/>
<path fill="none" stroke="#000000" d="M1055.5,-255.8478C1069.0828,-209.0969 1052.4748,-194.8986 1055.5,-146.3087"/>
</g>
<!-- src_drone_controller_calculation_layer -->
<g id="node5" class="node">
<title>src_drone_controller_calculation_layer</title><style>.edge>path:hover{stroke-width:8}</style>
<ellipse fill="#c24778" stroke="#000000" cx="1146.5" cy="-255.8478" rx="62.8651" ry="28.9828"/>
<text text-anchor="middle" x="1146.5" y="-264.3478" font-family="Helvetica,sans-Serif" font-size="10.00" fill="#ffffff">src.</text>
<text text-anchor="middle" x="1146.5" y="-253.3478" font-family="Helvetica,sans-Serif" font-size="10.00" fill="#ffffff">drone_controller.</text>
<text text-anchor="middle" x="1146.5" y="-242.3478" font-family="Helvetica,sans-Serif" font-size="10.00" fill="#ffffff">calculation_layer</text>
</g>
<!-- src_drone_controller_calculation_layer&#45;&gt;src_drone_controller_input_layer_request_handler -->
<g id="edge18" class="edge">
<title>src_drone_controller_calculation_layer&#45;&gt;src_drone_controller_input_layer_request_handler</title><style>.edge>path:hover{stroke-width:8}</style>
<path fill="none" stroke="#000000" d="M1109.0235,-232.308C1082.9662,-212.6878 1053.2647,-182.2118 1055.5,-146.3087"/>
</g>
<!-- src_drone_controller_exception_exceptions -->
<g id="node7" class="node">
<title>src_drone_controller_exception_exceptions</title><style>.edge>path:hover{stroke-width:8}</style>
<ellipse fill="#ce3b76" stroke="#000000" cx="1144.5" cy="-548.926" rx="62.8651" ry="36.5405"/>
<text text-anchor="middle" x="1144.5" y="-562.926" font-family="Helvetica,sans-Serif" font-size="10.00" fill="#ffffff">src.</text>
<text text-anchor="middle" x="1144.5" y="-551.926" font-family="Helvetica,sans-Serif" font-size="10.00" fill="#ffffff">drone_controller.</text>
<text text-anchor="middle" x="1144.5" y="-540.926" font-family="Helvetica,sans-Serif" font-size="10.00" fill="#ffffff">exception.</text>
<text text-anchor="middle" x="1144.5" y="-529.926" font-family="Helvetica,sans-Serif" font-size="10.00" fill="#ffffff">exceptions</text>
</g>
<!-- src_drone_controller_exception_exceptions&#45;&gt;src_drone_controller_input_layer_drone_state -->
<g id="edge22" class="edge">
<title>src_drone_controller_exception_exceptions&#45;&gt;src_drone_controller_input_layer_drone_state</title><style>.edge>path:hover{stroke-width:8}</style>
<path fill="none" stroke="#000000" d="M1123.2566,-513.8926C1114.4196,-500.9801 1103.4347,-486.7986 1091.5,-475.6564"/>
<path fill="none" stroke="#000000" d="M1091.5,-475.6564C1037.2346,-424.9946 998.3332,-464.3493 928.5,-439.1564 922.9177,-437.1426 917.2153,-434.7909 911.5848,-432.268"/>
<polygon fill="#ce3b76" stroke="#000000" points="912.7524,-428.9504 902.2108,-427.8898 909.7901,-435.2928 912.7524,-428.9504"/>
</g>
<!-- src_drone_controller_exception_exceptions&#45;&gt;src_drone_controller_input_layer_request_handler -->
<g id="edge23" class="edge">
<title>src_drone_controller_exception_exceptions&#45;&gt;src_drone_controller_input_layer_request_handler</title><style>.edge>path:hover{stroke-width:8}</style>
<path fill="none" stroke="#000000" d="M1091.5,-475.6564C1067.6968,-453.4339 1092.9204,-434.9201 1091.5,-402.3869"/>
</g>
<!-- src_drone_controller_util_list_operators -->
<g id="node8" class="node">
<title>src_drone_controller_util_list_operators</title><style>.edge>path:hover{stroke-width:8}</style>
<ellipse fill="#ce3b76" stroke="#000000" cx="674.5" cy="-402.3869" rx="62.8651" ry="36.5405"/>
<text text-anchor="middle" x="674.5" y="-416.3869" font-family="Helvetica,sans-Serif" font-size="10.00" fill="#ffffff">src.</text>
<text text-anchor="middle" x="674.5" y="-405.3869" font-family="Helvetica,sans-Serif" font-size="10.00" fill="#ffffff">drone_controller.</text>
<text text-anchor="middle" x="674.5" y="-394.3869" font-family="Helvetica,sans-Serif" font-size="10.00" fill="#ffffff">util.</text>
<text text-anchor="middle" x="674.5" y="-383.3869" font-family="Helvetica,sans-Serif" font-size="10.00" fill="#ffffff">list_operators</text>
</g>
<!-- src_drone_controller_util_list_operators&#45;&gt;src_drone_controller_calculation_layer_thrust_calculator -->
<g id="edge32" class="edge">
<title>src_drone_controller_util_list_operators&#45;&gt;src_drone_controller_calculation_layer_thrust_calculator</title><style>.edge>path:hover{stroke-width:8}</style>
<path fill="none" stroke="#000000" d="M688.4925,-366.4494C695.6912,-352.6106 705.8721,-338.0079 719.5,-329.1173"/>
</g>
<!-- src_drone_controller_util_list_operators&#45;&gt;src_drone_controller_input_layer_drone_state_mapper -->
<g id="edge33" class="edge">
<title>src_drone_controller_util_list_operators&#45;&gt;src_drone_controller_input_layer_drone_state_mapper</title><style>.edge>path:hover{stroke-width:8}</style>
<path fill="none" stroke="#000000" d="M626.8733,-378.0393C618.7435,-373.8904 610.381,-369.6273 602.5,-365.6173 570.5242,-349.3475 512.1497,-359.9463 530.5,-329.1173"/>
</g>
<!-- src_drone_controller_exception -->
<g id="node9" class="node">
<title>src_drone_controller_exception</title><style>.edge>path:hover{stroke-width:8}</style>
<ellipse fill="#ce3b76" stroke="#000000" cx="1000.5" cy="-548.926" rx="62.8651" ry="28.9828"/>
<text text-anchor="middle" x="1000.5" y="-557.426" font-family="Helvetica,sans-Serif" font-size="10.00" fill="#ffffff">src.</text>
<text text-anchor="middle" x="1000.5" y="-546.426" font-family="Helvetica,sans-Serif" font-size="10.00" fill="#ffffff">drone_controller.</text>
<text text-anchor="middle" x="1000.5" y="-535.426" font-family="Helvetica,sans-Serif" font-size="10.00" fill="#ffffff">exception</text>
</g>
<!-- src_drone_controller_exception&#45;&gt;src_drone_controller_input_layer_drone_state -->
<g id="edge20" class="edge">
<title>src_drone_controller_exception&#45;&gt;src_drone_controller_input_layer_drone_state</title><style>.edge>path:hover{stroke-width:8}</style>
<path fill="none" stroke="#000000" d="M1032.0289,-523.7451C1044.4202,-510.8082 1055.3331,-493.9331 1053.5,-475.6564"/>
<path fill="none" stroke="#000000" d="M1053.5,-475.6564C1047.7241,-418.0698 982.287,-460.5232 928.5,-439.1564 923.0683,-436.9987 917.4987,-434.5701 911.9797,-432.0158"/>
<polygon fill="#ce3b76" stroke="#000000" points="913.3055,-428.7704 902.7728,-427.6241 910.2917,-435.0884 913.3055,-428.7704"/>
</g>
<!-- src_drone_controller_exception&#45;&gt;src_drone_controller_input_layer_request_handler -->
<g id="edge21" class="edge">
<title>src_drone_controller_exception&#45;&gt;src_drone_controller_input_layer_request_handler</title><style>.edge>path:hover{stroke-width:8}</style>
<path fill="none" stroke="#000000" d="M1053.5,-475.6564C1051.6748,-457.4592 1064.08,-455.3913 1072.5,-439.1564 1080.969,-422.8271 1093.3636,-420.6871 1091.5,-402.3869"/>
<path fill="none" stroke="#000000" d="M1091.5,-402.3869C1084.7057,-335.6669 1036.7889,-320.2497 1055.5,-255.8478"/>
</g>
<!-- src_drone_controller_input_layer -->
<g id="node10" class="node">
<title>src_drone_controller_input_layer</title><style>.edge>path:hover{stroke-width:8}</style>
<ellipse fill="#db2f73" stroke="#000000" cx="1000.5" cy="-402.3869" rx="62.8651" ry="28.9828"/>
<text text-anchor="middle" x="1000.5" y="-410.8869" font-family="Helvetica,sans-Serif" font-size="10.00" fill="#ffffff">src.</text>
<text text-anchor="middle" x="1000.5" y="-399.8869" font-family="Helvetica,sans-Serif" font-size="10.00" fill="#ffffff">drone_controller.</text>
<text text-anchor="middle" x="1000.5" y="-388.8869" font-family="Helvetica,sans-Serif" font-size="10.00" fill="#ffffff">input_layer</text>
</g>
<!-- src_drone_controller_input_layer&#45;&gt;src_drone_controller_calculation_layer_thrust_calculator -->
<g id="edge24" class="edge">
<title>src_drone_controller_input_layer&#45;&gt;src_drone_controller_calculation_layer_thrust_calculator</title><style>.edge>path:hover{stroke-width:8}</style>
<path fill="none" stroke="#000000" d="M992.9924,-373.4355C987.7121,-353.073 980.5349,-325.3955 974.4701,-302.008"/>
<polygon fill="#db2f73" stroke="#000000" points="977.846,-301.0825 971.9478,-292.2813 971.0701,-302.8397 977.846,-301.0825"/>
</g>
<!-- src_drone_controller_util -->
<g id="node11" class="node">
<title>src_drone_controller_util</title><style>.edge>path:hover{stroke-width:8}</style>
<ellipse fill="#ce3b76" stroke="#000000" cx="530.5" cy="-402.3869" rx="62.8651" ry="28.9828"/>
<text text-anchor="middle" x="530.5" y="-410.8869" font-family="Helvetica,sans-Serif" font-size="10.00" fill="#ffffff">src.</text>
<text text-anchor="middle" x="530.5" y="-399.8869" font-family="Helvetica,sans-Serif" font-size="10.00" fill="#ffffff">drone_controller.</text>
<text text-anchor="middle" x="530.5" y="-388.8869" font-family="Helvetica,sans-Serif" font-size="10.00" fill="#ffffff">util</text>
</g>
<!-- src_drone_controller_util&#45;&gt;src_drone_controller_calculation_layer_thrust_calculator -->
<g id="edge30" class="edge">
<title>src_drone_controller_util&#45;&gt;src_drone_controller_calculation_layer_thrust_calculator</title><style>.edge>path:hover{stroke-width:8}</style>
<path fill="none" stroke="#000000" d="M571.0582,-380.1586C581.1729,-375.0391 592.103,-369.858 602.5,-365.6173 652.9375,-345.0449 673.8782,-358.88 719.5,-329.1173"/>
<path fill="none" stroke="#000000" d="M719.5,-329.1173C783.8584,-287.1312 815.9776,-318.021 888.5,-292.6173 894.3642,-290.5632 900.3623,-288.1516 906.2811,-285.5623"/>
<polygon fill="#ce3b76" stroke="#000000" points="907.8344,-288.7009 915.4863,-281.373 904.9348,-282.3296 907.8344,-288.7009"/>
</g>
<!-- src_drone_controller_util&#45;&gt;src_drone_controller_input_layer_drone_state_mapper -->
<g id="edge31" class="edge">
<title>src_drone_controller_util&#45;&gt;src_drone_controller_input_layer_drone_state_mapper</title><style>.edge>path:hover{stroke-width:8}</style>
<path fill="none" stroke="#000000" d="M523.8896,-373.4277C522.2046,-359.1531 522.6925,-342.234 530.5,-329.1173"/>
</g>
<!-- attr -->
<g id="node12" class="node">
<title>attr</title><style>.edge>path:hover{stroke-width:8}</style>
<polygon fill="#98ac49" stroke="#000000" points="373.5,-420.3869 370.5,-424.3869 349.5,-424.3869 346.5,-420.3869 319.5,-420.3869 319.5,-384.3869 373.5,-384.3869 373.5,-420.3869"/>
<text text-anchor="middle" x="346.5" y="-399.8869" font-family="Helvetica,sans-Serif" font-size="10.00" fill="#000000">attr</text>
</g>
<!-- pytest -->
<g id="node23" class="node">
<title>pytest</title><style>.edge>path:hover{stroke-width:8}</style>
<polygon fill="#e5b805" stroke="#000000" points="346.5,-273.8478 343.5,-277.8478 322.5,-277.8478 319.5,-273.8478 292.5,-273.8478 292.5,-237.8478 346.5,-237.8478 346.5,-273.8478"/>
<text text-anchor="middle" x="319.5" y="-253.3478" font-family="Helvetica,sans-Serif" font-size="10.00" fill="#000000">pytest</text>
</g>
<!-- attr&#45;&gt;pytest -->
<g id="edge1" class="edge">
<title>attr&#45;&gt;pytest</title><style>.edge>path:hover{stroke-width:8}</style>
<path fill="none" stroke="#000000" d="M328.1183,-384.1572C321.3152,-377.892 313.3434,-371.0853 305.5,-365.6173 277.0403,-345.7767 214.7156,-356.1182 236.5,-329.1173"/>
</g>
<!-- chardet -->
<g id="node13" class="node">
<title>chardet</title><style>.edge>path:hover{stroke-width:8}</style>
<polygon fill="#7bb653" stroke="#000000" points="258.5,-912.6955 255.5,-916.6955 234.5,-916.6955 231.5,-912.6955 204.5,-912.6955 204.5,-876.6955 258.5,-876.6955 258.5,-912.6955"/>
<text text-anchor="middle" x="231.5" y="-892.1955" font-family="Helvetica,sans-Serif" font-size="10.00" fill="#000000">chardet</text>
</g>
<!-- pygments -->
<g id="node22" class="node">
<title>pygments</title><style>.edge>path:hover{stroke-width:8}</style>
<polygon fill="#7b53b6" stroke="#000000" points="321,-803.6955 318,-807.6955 297,-807.6955 294,-803.6955 262,-803.6955 262,-767.6955 321,-767.6955 321,-803.6955"/>
<text text-anchor="middle" x="291.5" y="-783.1955" font-family="Helvetica,sans-Serif" font-size="10.00" fill="#ffffff">pygments</text>
</g>
<!-- chardet&#45;&gt;pygments -->
<g id="edge2" class="edge">
<title>chardet&#45;&gt;pygments</title><style>.edge>path:hover{stroke-width:8}</style>
<path fill="none" stroke="#000000" d="M241.6782,-876.2052C251.2607,-858.7969 265.727,-832.5164 276.6066,-812.7518"/>
<polygon fill="#7bb653" stroke="#000000" points="279.716,-814.3611 281.4721,-803.9128 273.5836,-810.9855 279.716,-814.3611"/>
</g>
<!-- imp -->
<g id="node14" class="node">
<title>imp</title><style>.edge>path:hover{stroke-width:8}</style>
<polygon fill="#b67b53" stroke="#000000" points="305.5,-984.6955 302.5,-988.6955 281.5,-988.6955 278.5,-984.6955 251.5,-984.6955 251.5,-948.6955 305.5,-948.6955 305.5,-984.6955"/>
<text text-anchor="middle" x="278.5" y="-964.1955" font-family="Helvetica,sans-Serif" font-size="10.00" fill="#000000">imp</text>
</g>
<!-- pkgresources -->
<g id="node19" class="node">
<title>pkgresources</title><style>.edge>path:hover{stroke-width:8}</style>
<polygon fill="#33aecc" stroke="#000000" points="352,-912.6955 349,-916.6955 328,-916.6955 325,-912.6955 277,-912.6955 277,-876.6955 352,-876.6955 352,-912.6955"/>
<text text-anchor="middle" x="314.5" y="-892.1955" font-family="Helvetica,sans-Serif" font-size="10.00" fill="#000000">pkgresources</text>
</g>
<!-- imp&#45;&gt;pkgresources -->
<g id="edge3" class="edge">
<title>imp&#45;&gt;pkgresources</title><style>.edge>path:hover{stroke-width:8}</style>
<path fill="none" stroke="#000000" d="M287.5843,-948.5269C291.5615,-940.5726 296.3155,-931.0646 300.7139,-922.2678"/>
<polygon fill="#b67b53" stroke="#000000" points="303.9517,-923.6183 305.2934,-913.1088 297.6907,-920.4878 303.9517,-923.6183"/>
</g>
<!-- main -->
<g id="node15" class="node">
<title>main</title><style>.edge>path:hover{stroke-width:8}</style>
<polygon fill="#6b2e2e" stroke="#000000" points="377.5,-984.6955 374.5,-988.6955 353.5,-988.6955 350.5,-984.6955 323.5,-984.6955 323.5,-948.6955 377.5,-948.6955 377.5,-984.6955"/>
<text text-anchor="middle" x="350.5" y="-964.1955" font-family="Helvetica,sans-Serif" font-size="10.00" fill="#ffffff">main</text>
</g>
<!-- main&#45;&gt;pkgresources -->
<g id="edge4" class="edge">
<title>main&#45;&gt;pkgresources</title><style>.edge>path:hover{stroke-width:8}</style>
<path fill="none" stroke="#000000" d="M341.4157,-948.5269C337.4385,-940.5726 332.6845,-931.0646 328.2861,-922.2678"/>
<polygon fill="#6b2e2e" stroke="#000000" points="331.3093,-920.4878 323.7066,-913.1088 325.0483,-923.6183 331.3093,-920.4878"/>
</g>
<!-- moreitertools -->
<g id="node16" class="node">
<title>moreitertools</title><style>.edge>path:hover{stroke-width:8}</style>
<polygon fill="#49ac49" stroke="#000000" points="73,-420.3869 70,-424.3869 49,-424.3869 46,-420.3869 0,-420.3869 0,-384.3869 73,-384.3869 73,-420.3869"/>
<text text-anchor="middle" x="36.5" y="-399.8869" font-family="Helvetica,sans-Serif" font-size="10.00" fill="#000000">moreitertools</text>
</g>
<!-- moreitertools&#45;&gt;pytest -->
<g id="edge5" class="edge">
<title>moreitertools&#45;&gt;pytest</title><style>.edge>path:hover{stroke-width:8}</style>
<path fill="none" stroke="#000000" d="M57.6894,-384.3033C66.4454,-377.6039 76.9948,-370.4664 87.5,-365.6173 149.4037,-337.0433 193.6884,-382.1806 236.5,-329.1173"/>
<path fill="none" stroke="#000000" d="M236.5,-329.1173C251.0944,-311.0282 270.42,-293.6803 286.751,-280.4094"/>
<polygon fill="#49ac49" stroke="#000000" points="289.3347,-282.8262 294.9772,-273.8589 284.9741,-277.3502 289.3347,-282.8262"/>
</g>
<!-- numpy -->
<g id="node17" class="node">
<title>numpy</title><style>.edge>path:hover{stroke-width:8}</style>
<polygon fill="#309157" stroke="#000000" points="428.5,-566.926 425.5,-570.926 404.5,-570.926 401.5,-566.926 374.5,-566.926 374.5,-530.926 428.5,-530.926 428.5,-566.926"/>
<text text-anchor="middle" x="401.5" y="-546.426" font-family="Helvetica,sans-Serif" font-size="10.00" fill="#ffffff">numpy</text>
</g>
<!-- numpy&#45;&gt;src_drone_controller_calculation_layer_thrust_calculator -->
<g id="edge7" class="edge">
<title>numpy&#45;&gt;src_drone_controller_calculation_layer_thrust_calculator</title><style>.edge>path:hover{stroke-width:8}</style>
<path fill="none" stroke="#000000" d="M602.5,-475.6564C642.7118,-423.2907 705.9531,-491.2631 746.5,-439.1564 766.5721,-413.3619 756.7331,-396.6581 746.5,-365.6173 740.1824,-346.4536 702.6001,-340.1425 719.5,-329.1173"/>
</g>
<!-- numpy&#45;&gt;src_drone_controller_input_layer_drone_state_mapper -->
<g id="edge8" class="edge">
<title>numpy&#45;&gt;src_drone_controller_input_layer_drone_state_mapper</title><style>.edge>path:hover{stroke-width:8}</style>
<path fill="none" stroke="#000000" d="M428.6822,-543.0444C478.6791,-531.6156 582.0023,-504.9455 602.5,-475.6564"/>
<path fill="none" stroke="#000000" d="M602.5,-475.6564C640.3565,-421.5635 499.0469,-491.2631 458.5,-439.1564 438.4279,-413.3619 441.3941,-393.4675 458.5,-365.6173 477.2771,-335.0464 512.1497,-359.9463 530.5,-329.1173"/>
<path fill="none" stroke="#000000" d="M530.5,-329.1173C549.4258,-295.2313 648.6984,-275.3414 722.5699,-265.0313"/>
<polygon fill="#309157" stroke="#000000" points="723.3761,-268.454 732.8139,-263.6396 722.4337,-261.5177 723.3761,-268.454"/>
</g>
<!-- numpy&#45;&gt;pytest -->
<g id="edge6" class="edge">
<title>numpy&#45;&gt;pytest</title><style>.edge>path:hover{stroke-width:8}</style>
<path fill="none" stroke="#000000" d="M402.164,-520.2851C402.2026,-483.5587 399.5082,-418.3221 382.5,-365.6173 372.6546,-335.1085 353.5687,-303.721 338.9727,-282.3658"/>
<polygon fill="#309157" stroke="#000000" points="398.6606,-520.6933 402.0771,-530.7221 405.6603,-520.7517 398.6606,-520.6933"/>
<polygon fill="#309157" stroke="#000000" points="341.8244,-280.3363 333.2312,-274.1388 336.084,-284.3423 341.8244,-280.3363"/>
</g>
<!-- packaging -->
<g id="node18" class="node">
<title>packaging</title><style>.edge>path:hover{stroke-width:8}</style>
<polygon fill="#40c0a6" stroke="#000000" points="191,-420.3869 188,-424.3869 167,-424.3869 164,-420.3869 130,-420.3869 130,-384.3869 191,-384.3869 191,-420.3869"/>
<text text-anchor="middle" x="160.5" y="-399.8869" font-family="Helvetica,sans-Serif" font-size="10.00" fill="#000000">packaging</text>
</g>
<!-- packaging&#45;&gt;pytest -->
<g id="edge9" class="edge">
<title>packaging&#45;&gt;pytest</title><style>.edge>path:hover{stroke-width:8}</style>
<path fill="none" stroke="#000000" d="M180.303,-384.3494C199.5645,-366.6193 227.2359,-340.5998 236.5,-329.1173"/>
</g>
<!-- py -->
<g id="node21" class="node">
<title>py</title><style>.edge>path:hover{stroke-width:8}</style>
<polygon fill="#5353b6" stroke="#000000" points="194.5,-694.6955 191.5,-698.6955 170.5,-698.6955 167.5,-694.6955 140.5,-694.6955 140.5,-658.6955 194.5,-658.6955 194.5,-694.6955"/>
<text text-anchor="middle" x="167.5" y="-674.1955" font-family="Helvetica,sans-Serif" font-size="10.00" fill="#ffffff">py</text>
</g>
<!-- pkgresources&#45;&gt;py -->
<g id="edge10" class="edge">
<title>pkgresources&#45;&gt;py</title><style>.edge>path:hover{stroke-width:8}</style>
<path fill="none" stroke="#000000" d="M303.8362,-876.2323C298.6742,-865.994 293.2241,-852.8129 291.5,-840.1955"/>
<path fill="none" stroke="#000000" d="M291.5,-840.1955C288.2859,-816.6737 267.8693,-821.7894 252.5,-803.6955 225.151,-771.4983 198.9401,-730.2222 183.0317,-703.6166"/>
<polygon fill="#33aecc" stroke="#000000" points="185.9535,-701.6813 177.8494,-694.8567 179.9288,-705.2455 185.9535,-701.6813"/>
</g>
<!-- pkgresources&#45;&gt;pygments -->
<g id="edge11" class="edge">
<title>pkgresources&#45;&gt;pygments</title><style>.edge>path:hover{stroke-width:8}</style>
<path fill="none" stroke="#000000" d="M291.5,-840.1955C290.3471,-831.7583 290.0049,-822.5175 290.0457,-814.081"/>
<polygon fill="#33aecc" stroke="#000000" points="293.5478,-814.0209 290.2703,-803.9458 286.5496,-813.8658 293.5478,-814.0209"/>
</g>
<!-- setuptools -->
<g id="node24" class="node">
<title>setuptools</title><style>.edge>path:hover{stroke-width:8}</style>
<polygon fill="#8a0f71" stroke="#000000" points="401.5,-803.6955 398.5,-807.6955 377.5,-807.6955 374.5,-803.6955 339.5,-803.6955 339.5,-767.6955 401.5,-767.6955 401.5,-803.6955"/>
<text text-anchor="middle" x="370.5" y="-783.1955" font-family="Helvetica,sans-Serif" font-size="10.00" fill="#ffffff">setuptools</text>
</g>
<!-- pkgresources&#45;&gt;setuptools -->
<g id="edge12" class="edge">
<title>pkgresources&#45;&gt;setuptools</title><style>.edge>path:hover{stroke-width:8}</style>
<path fill="none" stroke="#000000" d="M291.5,-840.1955C290.0459,-829.5537 310.0919,-815.8084 330.3518,-804.7843"/>
<polygon fill="#33aecc" stroke="#000000" points="332.0663,-807.8372 339.2912,-800.0879 328.8107,-801.6404 332.0663,-807.8372"/>
</g>
<!-- pluggy -->
<g id="node20" class="node">
<title>pluggy</title><style>.edge>path:hover{stroke-width:8}</style>
<polygon fill="#3b76ce" stroke="#000000" points="263.5,-420.3869 260.5,-424.3869 239.5,-424.3869 236.5,-420.3869 209.5,-420.3869 209.5,-384.3869 263.5,-384.3869 263.5,-420.3869"/>
<text text-anchor="middle" x="236.5" y="-399.8869" font-family="Helvetica,sans-Serif" font-size="10.00" fill="#ffffff">pluggy</text>
</g>
<!-- pluggy&#45;&gt;pytest -->
<g id="edge13" class="edge">
<title>pluggy&#45;&gt;pytest</title><style>.edge>path:hover{stroke-width:8}</style>
<path fill="none" stroke="#000000" d="M230.7188,-384.3372C226.7311,-368.0856 224.1196,-344.4624 236.5,-329.1173"/>
</g>
<!-- py&#45;&gt;pytest -->
<g id="edge14" class="edge">
<title>py&#45;&gt;pytest</title><style>.edge>path:hover{stroke-width:8}</style>
<path fill="none" stroke="#000000" d="M150.8454,-658.3244C131.2935,-634.7845 101.5,-591.869 101.5,-548.926 101.5,-548.926 101.5,-548.926 101.5,-475.6564 101.5,-426.0265 87.8321,-402.9796 120.5,-365.6173 156.0757,-324.9294 202.5626,-371.1814 236.5,-329.1173"/>
</g>
<!-- pygments&#45;&gt;pytest -->
<g id="edge15" class="edge">
<title>pygments&#45;&gt;pytest</title><style>.edge>path:hover{stroke-width:8}</style>
<path fill="none" stroke="#000000" d="M291.5,-767.5663C291.5,-745.9354 291.5,-708.6764 291.5,-676.6955 291.5,-676.6955 291.5,-676.6955 291.5,-475.6564 291.5,-426.0265 295.1862,-409.7587 272.5,-365.6173 262.0848,-345.352 222.3327,-346.9624 236.5,-329.1173"/>
</g>
<!-- setuptools&#45;&gt;numpy -->
<g id="edge17" class="edge">
<title>setuptools&#45;&gt;numpy</title><style>.edge>path:hover{stroke-width:8}</style>
<path fill="none" stroke="#000000" d="M372.881,-767.5098C378.257,-726.45 391.3666,-626.3218 397.8066,-577.1348"/>
<polygon fill="#8a0f71" stroke="#000000" points="401.2829,-577.5435 399.1108,-567.1737 394.3422,-576.6347 401.2829,-577.5435"/>
</g>
</g>
</svg>
