<?xml version="1.0" encoding="UTF-8" standalone="no"?>
<!DOCTYPE svg PUBLIC "-//W3C//DTD SVG 1.1//EN"
 "http://www.w3.org/Graphics/SVG/1.1/DTD/svg11.dtd">
<!-- Generated by graphviz version 2.40.1 (20161225.0304)
 -->
<!-- Title: G Pages: 1 -->
<svg width="1292pt" height="1028pt"
 viewBox="0.00 0.00 1291.93 1027.70" xmlns="http://www.w3.org/2000/svg" xmlns:xlink="http://www.w3.org/1999/xlink">
<g id="graph0" class="graph" transform="scale(1 1) rotate(0) translate(4 1023.6955)">
<title>G</title><style>.edge>path:hover{stroke-width:8}</style>
<polygon fill="#ffffff" stroke="transparent" points="-4,4 -4,-1023.6955 1287.9325,-1023.6955 1287.9325,4 -4,4"/>
<!-- src_drone_controller_util -->
<g id="node1" class="node">
<title>src_drone_controller_util</title><style>.edge>path:hover{stroke-width:8}</style>
<ellipse fill="#ce3b76" stroke="#000000" cx="647.9325" cy="-402.3869" rx="62.8651" ry="28.9828"/>
<text text-anchor="middle" x="647.9325" y="-410.8869" font-family="Helvetica,sans-Serif" font-size="10.00" fill="#ffffff">src.</text>
<text text-anchor="middle" x="647.9325" y="-399.8869" font-family="Helvetica,sans-Serif" font-size="10.00" fill="#ffffff">drone_controller.</text>
<text text-anchor="middle" x="647.9325" y="-388.8869" font-family="Helvetica,sans-Serif" font-size="10.00" fill="#ffffff">util</text>
</g>
<!-- src_drone_controller_calculation_layer_thrust_calculator -->
<g id="node6" class="node">
<title>src_drone_controller_calculation_layer_thrust_calculator</title><style>.edge>path:hover{stroke-width:8}</style>
<ellipse fill="#913057" stroke="#000000" cx="647.9325" cy="-255.8478" rx="65.1077" ry="36.5405"/>
<text text-anchor="middle" x="647.9325" y="-269.8478" font-family="Helvetica,sans-Serif" font-size="10.00" fill="#ffffff">src.</text>
<text text-anchor="middle" x="647.9325" y="-258.8478" font-family="Helvetica,sans-Serif" font-size="10.00" fill="#ffffff">drone_controller.</text>
<text text-anchor="middle" x="647.9325" y="-247.8478" font-family="Helvetica,sans-Serif" font-size="10.00" fill="#ffffff">calculation_layer.</text>
<text text-anchor="middle" x="647.9325" y="-236.8478" font-family="Helvetica,sans-Serif" font-size="10.00" fill="#ffffff">thrust_calculator</text>
</g>
<!-- src_drone_controller_util&#45;&gt;src_drone_controller_calculation_layer_thrust_calculator -->
<g id="edge30" class="edge">
<title>src_drone_controller_util&#45;&gt;src_drone_controller_calculation_layer_thrust_calculator</title><style>.edge>path:hover{stroke-width:8}</style>
<path fill="none" stroke="#000000" d="M647.9325,-329.1173C644.3965,-320.9799 642.7873,-311.8376 642.3175,-302.842"/>
<polygon fill="#ce3b76" stroke="#000000" points="645.8172,-302.7783 642.2292,-292.8095 638.8174,-302.84 645.8172,-302.7783"/>
</g>
<!-- src_drone_controller_input_layer_drone_state_mapper -->
<g id="node9" class="node">
<title>src_drone_controller_input_layer_drone_state_mapper</title><style>.edge>path:hover{stroke-width:8}</style>
<ellipse fill="#913057" stroke="#000000" cx="490.9325" cy="-255.8478" rx="74.4932" ry="36.5405"/>
<text text-anchor="middle" x="490.9325" y="-269.8478" font-family="Helvetica,sans-Serif" font-size="10.00" fill="#ffffff">src.</text>
<text text-anchor="middle" x="490.9325" y="-258.8478" font-family="Helvetica,sans-Serif" font-size="10.00" fill="#ffffff">drone_controller.</text>
<text text-anchor="middle" x="490.9325" y="-247.8478" font-family="Helvetica,sans-Serif" font-size="10.00" fill="#ffffff">input_layer.</text>
<text text-anchor="middle" x="490.9325" y="-236.8478" font-family="Helvetica,sans-Serif" font-size="10.00" fill="#ffffff">drone_state_mapper</text>
</g>
<!-- src_drone_controller_util&#45;&gt;src_drone_controller_input_layer_drone_state_mapper -->
<g id="edge31" class="edge">
<title>src_drone_controller_util&#45;&gt;src_drone_controller_input_layer_drone_state_mapper</title><style>.edge>path:hover{stroke-width:8}</style>
<path fill="none" stroke="#000000" d="M653.1475,-373.4689C654.382,-359.5264 653.9146,-342.8838 647.9325,-329.1173"/>
<path fill="none" stroke="#000000" d="M647.9325,-329.1173C646.8645,-326.6596 598.3116,-304.2233 555.4841,-284.8185"/>
<polygon fill="#ce3b76" stroke="#000000" points="556.7239,-281.5379 546.1702,-280.605 553.8387,-287.9157 556.7239,-281.5379"/>
</g>
<!-- src_drone_controller_exception -->
<g id="node2" class="node">
<title>src_drone_controller_exception</title><style>.edge>path:hover{stroke-width:8}</style>
<ellipse fill="#ce3b76" stroke="#000000" cx="62.9325" cy="-548.926" rx="62.8651" ry="28.9828"/>
<text text-anchor="middle" x="62.9325" y="-557.426" font-family="Helvetica,sans-Serif" font-size="10.00" fill="#ffffff">src.</text>
<text text-anchor="middle" x="62.9325" y="-546.426" font-family="Helvetica,sans-Serif" font-size="10.00" fill="#ffffff">drone_controller.</text>
<text text-anchor="middle" x="62.9325" y="-535.426" font-family="Helvetica,sans-Serif" font-size="10.00" fill="#ffffff">exception</text>
</g>
<!-- src_drone_controller_input_layer_drone_state -->
<g id="node3" class="node">
<title>src_drone_controller_input_layer_drone_state</title><style>.edge>path:hover{stroke-width:8}</style>
<ellipse fill="#bf2160" stroke="#000000" cx="244.9325" cy="-402.3869" rx="62.8651" ry="36.5405"/>
<text text-anchor="middle" x="244.9325" y="-416.3869" font-family="Helvetica,sans-Serif" font-size="10.00" fill="#ffffff">src.</text>
<text text-anchor="middle" x="244.9325" y="-405.3869" font-family="Helvetica,sans-Serif" font-size="10.00" fill="#ffffff">drone_controller.</text>
<text text-anchor="middle" x="244.9325" y="-394.3869" font-family="Helvetica,sans-Serif" font-size="10.00" fill="#ffffff">input_layer.</text>
<text text-anchor="middle" x="244.9325" y="-383.3869" font-family="Helvetica,sans-Serif" font-size="10.00" fill="#ffffff">drone_state</text>
</g>
<!-- src_drone_controller_exception&#45;&gt;src_drone_controller_input_layer_drone_state -->
<g id="edge20" class="edge">
<title>src_drone_controller_exception&#45;&gt;src_drone_controller_input_layer_drone_state</title><style>.edge>path:hover{stroke-width:8}</style>
<path fill="none" stroke="#000000" d="M115.9325,-475.6564C126.8518,-463.6592 158.2597,-445.7282 187.3488,-430.6078"/>
<polygon fill="#ce3b76" stroke="#000000" points="188.9853,-433.702 196.2767,-426.0152 185.7833,-427.4773 188.9853,-433.702"/>
</g>
<!-- src_drone_controller_input_layer_request_handler -->
<g id="node10" class="node">
<title>src_drone_controller_input_layer_request_handler</title><style>.edge>path:hover{stroke-width:8}</style>
<ellipse fill="#72314b" stroke="#000000" cx="244.9325" cy="-36.7696" rx="62.8651" ry="36.5405"/>
<text text-anchor="middle" x="244.9325" y="-50.7696" font-family="Helvetica,sans-Serif" font-size="10.00" fill="#ffffff">src.</text>
<text text-anchor="middle" x="244.9325" y="-39.7696" font-family="Helvetica,sans-Serif" font-size="10.00" fill="#ffffff">drone_controller.</text>
<text text-anchor="middle" x="244.9325" y="-28.7696" font-family="Helvetica,sans-Serif" font-size="10.00" fill="#ffffff">input_layer.</text>
<text text-anchor="middle" x="244.9325" y="-17.7696" font-family="Helvetica,sans-Serif" font-size="10.00" fill="#ffffff">request_handler</text>
</g>
<!-- src_drone_controller_exception&#45;&gt;src_drone_controller_input_layer_request_handler -->
<g id="edge21" class="edge">
<title>src_drone_controller_exception&#45;&gt;src_drone_controller_input_layer_request_handler</title><style>.edge>path:hover{stroke-width:8}</style>
<path fill="none" stroke="#000000" d="M80.9367,-521.0095C90.6063,-506.8422 103.146,-489.7052 115.9325,-475.6564"/>
<path fill="none" stroke="#000000" d="M115.9325,-475.6564C140.6241,-448.5273 149.2912,-438.7754 153.9325,-402.3869"/>
<path fill="none" stroke="#000000" d="M153.9325,-402.3869C170.4348,-273.0068 119.4591,-228.5018 172.9325,-109.5391 178.9711,-96.105 188.6456,-83.7426 198.9691,-73.1659"/>
<polygon fill="#ce3b76" stroke="#000000" points="201.4628,-75.6229 206.1832,-66.1377 196.578,-70.609 201.4628,-75.6229"/>
</g>
<!-- src_drone_controller_input_layer_drone_state&#45;&gt;src_drone_controller_calculation_layer_thrust_calculator -->
<g id="edge26" class="edge">
<title>src_drone_controller_input_layer_drone_state&#45;&gt;src_drone_controller_calculation_layer_thrust_calculator</title><style>.edge>path:hover{stroke-width:8}</style>
<path fill="none" stroke="#000000" d="M305.8528,-392.8749C360.2077,-382.6337 440.7365,-363.0513 503.9325,-329.1173"/>
<path fill="none" stroke="#000000" d="M503.9325,-329.1173C531.897,-314.1014 563.275,-298.0445 589.585,-284.8007"/>
<polygon fill="#bf2160" stroke="#000000" points="591.3005,-287.8558 598.6659,-280.2399 588.1588,-281.6004 591.3005,-287.8558"/>
</g>
<!-- src_drone_controller_input_layer_drone_state&#45;&gt;src_drone_controller_input_layer_drone_state_mapper -->
<g id="edge27" class="edge">
<title>src_drone_controller_input_layer_drone_state&#45;&gt;src_drone_controller_input_layer_drone_state_mapper</title><style>.edge>path:hover{stroke-width:8}</style>
<path fill="none" stroke="#000000" d="M244.9325,-329.1173C281.6123,-264.5731 337.4314,-315.8757 407.9325,-292.6173 414.3683,-290.4941 420.9838,-288.0468 427.537,-285.4442"/>
<polygon fill="#bf2160" stroke="#000000" points="429.1396,-288.57 437.0656,-281.5395 426.4852,-282.0928 429.1396,-288.57"/>
</g>
<!-- src_drone_controller_input_layer_drone_state&#45;&gt;src_drone_controller_input_layer_request_handler -->
<g id="edge28" class="edge">
<title>src_drone_controller_input_layer_drone_state&#45;&gt;src_drone_controller_input_layer_request_handler</title><style>.edge>path:hover{stroke-width:8}</style>
<path fill="none" stroke="#000000" d="M237.894,-365.4939C237.3297,-353.233 238.7733,-339.9555 244.9325,-329.1173"/>
<path fill="none" stroke="#000000" d="M244.9325,-329.1173C269.4537,-285.9682 237.0438,-260.7931 263.9325,-219.0782 279.3602,-195.1439 298.0378,-204.382 316.9325,-183.0782 329.1382,-169.3163 347.7998,-160.3635 335.9325,-146.3087"/>
<path fill="none" stroke="#000000" d="M335.9325,-146.3087C323.9384,-132.3619 327.7476,-124.4187 316.9325,-109.5391 308.1879,-97.5081 297.4662,-85.5664 286.9945,-74.9414"/>
<polygon fill="#bf2160" stroke="#000000" points="289.3749,-72.3726 279.8123,-67.8111 284.4431,-77.3403 289.3749,-72.3726"/>
</g>
<!-- src_drone_controller_util_list_operators -->
<g id="node4" class="node">
<title>src_drone_controller_util_list_operators</title><style>.edge>path:hover{stroke-width:8}</style>
<ellipse fill="#ce3b76" stroke="#000000" cx="503.9325" cy="-402.3869" rx="62.8651" ry="36.5405"/>
<text text-anchor="middle" x="503.9325" y="-416.3869" font-family="Helvetica,sans-Serif" font-size="10.00" fill="#ffffff">src.</text>
<text text-anchor="middle" x="503.9325" y="-405.3869" font-family="Helvetica,sans-Serif" font-size="10.00" fill="#ffffff">drone_controller.</text>
<text text-anchor="middle" x="503.9325" y="-394.3869" font-family="Helvetica,sans-Serif" font-size="10.00" fill="#ffffff">util.</text>
<text text-anchor="middle" x="503.9325" y="-383.3869" font-family="Helvetica,sans-Serif" font-size="10.00" fill="#ffffff">list_operators</text>
</g>
<!-- src_drone_controller_util_list_operators&#45;&gt;src_drone_controller_calculation_layer_thrust_calculator -->
<g id="edge32" class="edge">
<title>src_drone_controller_util_list_operators&#45;&gt;src_drone_controller_calculation_layer_thrust_calculator</title><style>.edge>path:hover{stroke-width:8}</style>
<path fill="none" stroke="#000000" d="M492.1399,-366.0979C489.7592,-351.2575 491.1566,-335.9775 503.9325,-329.1173"/>
</g>
<!-- src_drone_controller_util_list_operators&#45;&gt;src_drone_controller_input_layer_drone_state_mapper -->
<g id="edge33" class="edge">
<title>src_drone_controller_util_list_operators&#45;&gt;src_drone_controller_input_layer_drone_state_mapper</title><style>.edge>path:hover{stroke-width:8}</style>
<path fill="none" stroke="#000000" d="M475.3854,-369.5173C467.9979,-357.3577 462.8696,-343.1156 465.9325,-329.1173"/>
</g>
<!-- src_drone_controller_input_layer_drone_physics -->
<g id="node5" class="node">
<title>src_drone_controller_input_layer_drone_physics</title><style>.edge>path:hover{stroke-width:8}</style>
<ellipse fill="#c24778" stroke="#000000" cx="244.9325" cy="-146.3087" rx="62.8651" ry="36.5405"/>
<text text-anchor="middle" x="244.9325" y="-160.3087" font-family="Helvetica,sans-Serif" font-size="10.00" fill="#ffffff">src.</text>
<text text-anchor="middle" x="244.9325" y="-149.3087" font-family="Helvetica,sans-Serif" font-size="10.00" fill="#ffffff">drone_controller.</text>
<text text-anchor="middle" x="244.9325" y="-138.3087" font-family="Helvetica,sans-Serif" font-size="10.00" fill="#ffffff">input_layer.</text>
<text text-anchor="middle" x="244.9325" y="-127.3087" font-family="Helvetica,sans-Serif" font-size="10.00" fill="#ffffff">drone_physics</text>
</g>
<!-- src_drone_controller_input_layer_drone_physics&#45;&gt;src_drone_controller_input_layer_request_handler -->
<g id="edge25" class="edge">
<title>src_drone_controller_input_layer_drone_physics&#45;&gt;src_drone_controller_input_layer_request_handler</title><style>.edge>path:hover{stroke-width:8}</style>
<path fill="none" stroke="#000000" d="M244.9325,-109.529C244.9325,-101.3103 244.9325,-92.4835 244.9325,-83.911"/>
<polygon fill="#c24778" stroke="#000000" points="248.4326,-83.6386 244.9325,-73.6386 241.4326,-83.6386 248.4326,-83.6386"/>
</g>
<!-- src_drone_controller_calculation_layer_thrust_calculator&#45;&gt;src_drone_controller_input_layer_request_handler -->
<g id="edge19" class="edge">
<title>src_drone_controller_calculation_layer_thrust_calculator&#45;&gt;src_drone_controller_input_layer_request_handler</title><style>.edge>path:hover{stroke-width:8}</style>
<path fill="none" stroke="#000000" d="M600.2892,-230.7465C591.6303,-226.5961 582.5957,-222.5278 573.9325,-219.0782 471.1679,-178.1589 407.2926,-230.823 335.9325,-146.3087"/>
</g>
<!-- src_drone_controller_calculation_layer -->
<g id="node7" class="node">
<title>src_drone_controller_calculation_layer</title><style>.edge>path:hover{stroke-width:8}</style>
<ellipse fill="#c24778" stroke="#000000" cx="335.9325" cy="-255.8478" rx="62.8651" ry="28.9828"/>
<text text-anchor="middle" x="335.9325" y="-264.3478" font-family="Helvetica,sans-Serif" font-size="10.00" fill="#ffffff">src.</text>
<text text-anchor="middle" x="335.9325" y="-253.3478" font-family="Helvetica,sans-Serif" font-size="10.00" fill="#ffffff">drone_controller.</text>
<text text-anchor="middle" x="335.9325" y="-242.3478" font-family="Helvetica,sans-Serif" font-size="10.00" fill="#ffffff">calculation_layer</text>
</g>
<!-- src_drone_controller_calculation_layer&#45;&gt;src_drone_controller_input_layer_request_handler -->
<g id="edge18" class="edge">
<title>src_drone_controller_calculation_layer&#45;&gt;src_drone_controller_input_layer_request_handler</title><style>.edge>path:hover{stroke-width:8}</style>
<path fill="none" stroke="#000000" d="M345.2822,-226.7546C351.1295,-202.4174 354.4584,-168.2495 335.9325,-146.3087"/>
</g>
<!-- src_drone_controller_input_layer -->
<g id="node8" class="node">
<title>src_drone_controller_input_layer</title><style>.edge>path:hover{stroke-width:8}</style>
<ellipse fill="#db2f73" stroke="#000000" cx="791.9325" cy="-402.3869" rx="62.8651" ry="28.9828"/>
<text text-anchor="middle" x="791.9325" y="-410.8869" font-family="Helvetica,sans-Serif" font-size="10.00" fill="#ffffff">src.</text>
<text text-anchor="middle" x="791.9325" y="-399.8869" font-family="Helvetica,sans-Serif" font-size="10.00" fill="#ffffff">drone_controller.</text>
<text text-anchor="middle" x="791.9325" y="-388.8869" font-family="Helvetica,sans-Serif" font-size="10.00" fill="#ffffff">input_layer</text>
</g>
<!-- src_drone_controller_input_layer&#45;&gt;src_drone_controller_calculation_layer_thrust_calculator -->
<g id="edge24" class="edge">
<title>src_drone_controller_input_layer&#45;&gt;src_drone_controller_calculation_layer_thrust_calculator</title><style>.edge>path:hover{stroke-width:8}</style>
<path fill="none" stroke="#000000" d="M800.9963,-373.6469C803.9239,-358.1624 803.831,-340.0447 791.9325,-329.1173"/>
<path fill="none" stroke="#000000" d="M791.9325,-329.1173C769.1089,-308.1565 739.1671,-291.6418 712.5011,-279.6393"/>
<polygon fill="#db2f73" stroke="#000000" points="713.7874,-276.3818 703.2227,-275.5821 710.9828,-282.7954 713.7874,-276.3818"/>
</g>
<!-- src_drone_controller_input_layer_drone_state_mapper&#45;&gt;src_drone_controller_input_layer_request_handler -->
<g id="edge29" class="edge">
<title>src_drone_controller_input_layer_drone_state_mapper&#45;&gt;src_drone_controller_input_layer_request_handler</title><style>.edge>path:hover{stroke-width:8}</style>
<path fill="none" stroke="#000000" d="M440.1095,-228.991C407.0904,-209.5355 364.95,-180.6751 335.9325,-146.3087"/>
</g>
<!-- src_drone_controller_exception_exceptions -->
<g id="node11" class="node">
<title>src_drone_controller_exception_exceptions</title><style>.edge>path:hover{stroke-width:8}</style>
<ellipse fill="#ce3b76" stroke="#000000" cx="206.9325" cy="-548.926" rx="62.8651" ry="36.5405"/>
<text text-anchor="middle" x="206.9325" y="-562.926" font-family="Helvetica,sans-Serif" font-size="10.00" fill="#ffffff">src.</text>
<text text-anchor="middle" x="206.9325" y="-551.926" font-family="Helvetica,sans-Serif" font-size="10.00" fill="#ffffff">drone_controller.</text>
<text text-anchor="middle" x="206.9325" y="-540.926" font-family="Helvetica,sans-Serif" font-size="10.00" fill="#ffffff">exception.</text>
<text text-anchor="middle" x="206.9325" y="-529.926" font-family="Helvetica,sans-Serif" font-size="10.00" fill="#ffffff">exceptions</text>
</g>
<!-- src_drone_controller_exception_exceptions&#45;&gt;src_drone_controller_input_layer_drone_state -->
<g id="edge22" class="edge">
<title>src_drone_controller_exception_exceptions&#45;&gt;src_drone_controller_input_layer_drone_state</title><style>.edge>path:hover{stroke-width:8}</style>
<path fill="none" stroke="#000000" d="M153.9325,-475.6564C153.2167,-455.3622 166.9788,-439.7351 184.0042,-428.2286"/>
<polygon fill="#ce3b76" stroke="#000000" points="185.9246,-431.1561 192.5751,-422.9086 182.233,-425.2087 185.9246,-431.1561"/>
</g>
<!-- src_drone_controller_exception_exceptions&#45;&gt;src_drone_controller_input_layer_request_handler -->
<g id="edge23" class="edge">
<title>src_drone_controller_exception_exceptions&#45;&gt;src_drone_controller_input_layer_request_handler</title><style>.edge>path:hover{stroke-width:8}</style>
<path fill="none" stroke="#000000" d="M172.4924,-517.9407C162.6941,-505.9583 154.4859,-491.3462 153.9325,-475.6564"/>
<path fill="none" stroke="#000000" d="M153.9325,-475.6564C152.7846,-443.1124 149.8124,-434.6894 153.9325,-402.3869"/>
</g>
<!-- attr -->
<g id="node12" class="node">
<title>attr</title><style>.edge>path:hover{stroke-width:8}</style>
<polygon fill="#98ac49" stroke="#000000" points="1002.9325,-420.3869 999.9325,-424.3869 978.9325,-424.3869 975.9325,-420.3869 948.9325,-420.3869 948.9325,-384.3869 1002.9325,-384.3869 1002.9325,-420.3869"/>
<text text-anchor="middle" x="975.9325" y="-399.8869" font-family="Helvetica,sans-Serif" font-size="10.00" fill="#000000">attr</text>
</g>
<!-- pytest -->
<g id="node23" class="node">
<title>pytest</title><style>.edge>path:hover{stroke-width:8}</style>
<polygon fill="#c2a947" stroke="#000000" points="1035.9325,-273.8478 1032.9325,-277.8478 1011.9325,-277.8478 1008.9325,-273.8478 981.9325,-273.8478 981.9325,-237.8478 1035.9325,-237.8478 1035.9325,-273.8478"/>
<text text-anchor="middle" x="1008.9325" y="-253.3478" font-family="Helvetica,sans-Serif" font-size="10.00" fill="#000000">pytest</text>
</g>
<!-- attr&#45;&gt;pytest -->
<g id="edge1" class="edge">
<title>attr&#45;&gt;pytest</title><style>.edge>path:hover{stroke-width:8}</style>
<path fill="none" stroke="#000000" d="M993.7478,-384.2969C1000.6215,-377.9037 1008.7853,-370.9776 1016.9325,-365.6173 1049.2438,-344.3587 1115.081,-362.7222 1095.9325,-329.1173"/>
<path fill="none" stroke="#000000" d="M1095.9325,-329.1173C1083.8343,-307.8854 1063.1029,-290.0592 1044.912,-277.3075"/>
<polygon fill="#98ac49" stroke="#000000" points="1046.4841,-274.1465 1036.2349,-271.4625 1042.5733,-279.9522 1046.4841,-274.1465"/>
</g>
<!-- chardet -->
<g id="node13" class="node">
<title>chardet</title><style>.edge>path:hover{stroke-width:8}</style>
<polygon fill="#507934" stroke="#000000" points="1072.9325,-947.6955 1069.9325,-951.6955 1048.9325,-951.6955 1045.9325,-947.6955 1018.9325,-947.6955 1018.9325,-911.6955 1072.9325,-911.6955 1072.9325,-947.6955"/>
<text text-anchor="middle" x="1045.9325" y="-927.1955" font-family="Helvetica,sans-Serif" font-size="10.00" fill="#ffffff">chardet</text>
</g>
<!-- pygments -->
<g id="node22" class="node">
<title>pygments</title><style>.edge>path:hover{stroke-width:8}</style>
<polygon fill="#7b53b6" stroke="#000000" points="1063.4325,-838.6955 1060.4325,-842.6955 1039.4325,-842.6955 1036.4325,-838.6955 1004.4325,-838.6955 1004.4325,-802.6955 1063.4325,-802.6955 1063.4325,-838.6955"/>
<text text-anchor="middle" x="1033.9325" y="-818.1955" font-family="Helvetica,sans-Serif" font-size="10.00" fill="#ffffff">pygments</text>
</g>
<!-- chardet&#45;&gt;pygments -->
<g id="edge2" class="edge">
<title>chardet&#45;&gt;pygments</title><style>.edge>path:hover{stroke-width:8}</style>
<path fill="none" stroke="#000000" d="M1043.8969,-911.2052C1042.0237,-894.1908 1039.2175,-868.7011 1037.0599,-849.1032"/>
<polygon fill="#507934" stroke="#000000" points="1040.5115,-848.4697 1035.9381,-838.9128 1033.5535,-849.2358 1040.5115,-848.4697"/>
</g>
<!-- imp -->
<g id="node14" class="node">
<title>imp</title><style>.edge>path:hover{stroke-width:8}</style>
<polygon fill="#b67b53" stroke="#000000" points="953.9325,-1019.6955 950.9325,-1023.6955 929.9325,-1023.6955 926.9325,-1019.6955 899.9325,-1019.6955 899.9325,-983.6955 953.9325,-983.6955 953.9325,-1019.6955"/>
<text text-anchor="middle" x="926.9325" y="-999.1955" font-family="Helvetica,sans-Serif" font-size="10.00" fill="#000000">imp</text>
</g>
<!-- pkgresources -->
<g id="node19" class="node">
<title>pkgresources</title><style>.edge>path:hover{stroke-width:8}</style>
<polygon fill="#47a9c2" stroke="#000000" points="1000.4325,-947.6955 997.4325,-951.6955 976.4325,-951.6955 973.4325,-947.6955 925.4325,-947.6955 925.4325,-911.6955 1000.4325,-911.6955 1000.4325,-947.6955"/>
<text text-anchor="middle" x="962.9325" y="-927.1955" font-family="Helvetica,sans-Serif" font-size="10.00" fill="#000000">pkgresources</text>
</g>
<!-- imp&#45;&gt;pkgresources -->
<g id="edge3" class="edge">
<title>imp&#45;&gt;pkgresources</title><style>.edge>path:hover{stroke-width:8}</style>
<path fill="none" stroke="#000000" d="M936.0168,-983.5269C939.994,-975.5726 944.748,-966.0646 949.1464,-957.2678"/>
<polygon fill="#b67b53" stroke="#000000" points="952.3842,-958.6183 953.7259,-948.1088 946.1232,-955.4878 952.3842,-958.6183"/>
</g>
<!-- main -->
<g id="node15" class="node">
<title>main</title><style>.edge>path:hover{stroke-width:8}</style>
<polygon fill="#6b2e2e" stroke="#000000" points="1025.9325,-1019.6955 1022.9325,-1023.6955 1001.9325,-1023.6955 998.9325,-1019.6955 971.9325,-1019.6955 971.9325,-983.6955 1025.9325,-983.6955 1025.9325,-1019.6955"/>
<text text-anchor="middle" x="998.9325" y="-999.1955" font-family="Helvetica,sans-Serif" font-size="10.00" fill="#ffffff">main</text>
</g>
<!-- main&#45;&gt;pkgresources -->
<g id="edge4" class="edge">
<title>main&#45;&gt;pkgresources</title><style>.edge>path:hover{stroke-width:8}</style>
<path fill="none" stroke="#000000" d="M989.8482,-983.5269C985.8711,-975.5726 981.117,-966.0646 976.7186,-957.2678"/>
<polygon fill="#6b2e2e" stroke="#000000" points="979.7418,-955.4878 972.1391,-948.1088 973.4808,-958.6183 979.7418,-955.4878"/>
</g>
<!-- moreitertools -->
<g id="node16" class="node">
<title>moreitertools</title><style>.edge>path:hover{stroke-width:8}</style>
<polygon fill="#49ac49" stroke="#000000" points="1132.4325,-420.3869 1129.4325,-424.3869 1108.4325,-424.3869 1105.4325,-420.3869 1059.4325,-420.3869 1059.4325,-384.3869 1132.4325,-384.3869 1132.4325,-420.3869"/>
<text text-anchor="middle" x="1095.9325" y="-399.8869" font-family="Helvetica,sans-Serif" font-size="10.00" fill="#000000">moreitertools</text>
</g>
<!-- moreitertools&#45;&gt;pytest -->
<g id="edge5" class="edge">
<title>moreitertools&#45;&gt;pytest</title><style>.edge>path:hover{stroke-width:8}</style>
<path fill="none" stroke="#000000" d="M1100.672,-384.2524C1103.7101,-368.597 1105.5049,-345.9165 1095.9325,-329.1173"/>
</g>
<!-- numpy -->
<g id="node17" class="node">
<title>numpy</title><style>.edge>path:hover{stroke-width:8}</style>
<polygon fill="#3d8f5e" stroke="#000000" points="943.9325,-566.926 940.9325,-570.926 919.9325,-570.926 916.9325,-566.926 889.9325,-566.926 889.9325,-530.926 943.9325,-530.926 943.9325,-566.926"/>
<text text-anchor="middle" x="916.9325" y="-546.426" font-family="Helvetica,sans-Serif" font-size="10.00" fill="#ffffff">numpy</text>
</g>
<!-- numpy&#45;&gt;src_drone_controller_calculation_layer_thrust_calculator -->
<g id="edge7" class="edge">
<title>numpy&#45;&gt;src_drone_controller_calculation_layer_thrust_calculator</title><style>.edge>path:hover{stroke-width:8}</style>
<path fill="none" stroke="#000000" d="M882.9325,-475.6564C845.5969,-442.958 893.4236,-405.5348 863.9325,-365.6173 842.6137,-336.7613 818.3568,-353.3849 791.9325,-329.1173"/>
</g>
<!-- numpy&#45;&gt;src_drone_controller_input_layer_drone_state_mapper -->
<g id="edge8" class="edge">
<title>numpy&#45;&gt;src_drone_controller_input_layer_drone_state_mapper</title><style>.edge>path:hover{stroke-width:8}</style>
<path fill="none" stroke="#000000" d="M912.9822,-530.6869C908.4614,-514.0713 899.4488,-490.0015 882.9325,-475.6564"/>
<path fill="none" stroke="#000000" d="M882.9325,-475.6564C807.0185,-409.7219 500.104,-513.068 431.9325,-439.1564 409.7731,-415.1312 419.962,-396.0304 431.9325,-365.6173 440.0522,-344.9878 461.1937,-350.7749 465.9325,-329.1173"/>
<path fill="none" stroke="#000000" d="M465.9325,-329.1173C467.4967,-320.0721 470.0056,-310.6383 472.8438,-301.6669"/>
<polygon fill="#3d8f5e" stroke="#000000" points="476.1729,-302.7477 476.0238,-292.1539 469.534,-300.5284 476.1729,-302.7477"/>
</g>
<!-- numpy&#45;&gt;pytest -->
<g id="edge6" class="edge">
<title>numpy&#45;&gt;pytest</title><style>.edge>path:hover{stroke-width:8}</style>
<path fill="none" stroke="#000000" d="M916.7275,-520.4416C917.3034,-483.6286 921.2123,-418.0383 939.9325,-365.6173 950.9773,-334.6893 971.8444,-303.3604 987.7506,-282.1331"/>
<polygon fill="#3d8f5e" stroke="#000000" points="913.224,-520.868 916.643,-530.896 920.2238,-520.9247 913.224,-520.868"/>
<polygon fill="#3d8f5e" stroke="#000000" points="990.7059,-284.0304 994.004,-273.9619 985.147,-279.7761 990.7059,-284.0304"/>
</g>
<!-- packaging -->
<g id="node18" class="node">
<title>packaging</title><style>.edge>path:hover{stroke-width:8}</style>
<polygon fill="#53b6a2" stroke="#000000" points="1211.4325,-420.3869 1208.4325,-424.3869 1187.4325,-424.3869 1184.4325,-420.3869 1150.4325,-420.3869 1150.4325,-384.3869 1211.4325,-384.3869 1211.4325,-420.3869"/>
<text text-anchor="middle" x="1180.9325" y="-399.8869" font-family="Helvetica,sans-Serif" font-size="10.00" fill="#000000">packaging</text>
</g>
<!-- packaging&#45;&gt;pytest -->
<g id="edge9" class="edge">
<title>packaging&#45;&gt;pytest</title><style>.edge>path:hover{stroke-width:8}</style>
<path fill="none" stroke="#000000" d="M1162.1885,-384.102C1155.8608,-378.0953 1148.6876,-371.4631 1141.9325,-365.6173 1122.1976,-348.539 1108.8534,-351.793 1095.9325,-329.1173"/>
</g>
<!-- py -->
<g id="node21" class="node">
<title>py</title><style>.edge>path:hover{stroke-width:8}</style>
<polygon fill="#5353b6" stroke="#000000" points="1002.9325,-694.6955 999.9325,-698.6955 978.9325,-698.6955 975.9325,-694.6955 948.9325,-694.6955 948.9325,-658.6955 1002.9325,-658.6955 1002.9325,-694.6955"/>
<text text-anchor="middle" x="975.9325" y="-674.1955" font-family="Helvetica,sans-Serif" font-size="10.00" fill="#ffffff">py</text>
</g>
<!-- pkgresources&#45;&gt;py -->
<g id="edge10" class="edge">
<title>pkgresources&#45;&gt;py</title><style>.edge>path:hover{stroke-width:8}</style>
<path fill="none" stroke="#000000" d="M975.9325,-820.6955C968.1803,-781.3275 970.1484,-734.7227 972.6957,-705.4288"/>
<polygon fill="#47a9c2" stroke="#000000" points="976.2155,-705.3877 973.6813,-695.1004 969.2471,-704.7227 976.2155,-705.3877"/>
</g>
<!-- pkgresources&#45;&gt;pygments -->
<g id="edge11" class="edge">
<title>pkgresources&#45;&gt;pygments</title><style>.edge>path:hover{stroke-width:8}</style>
<path fill="none" stroke="#000000" d="M975.9325,-875.1955C980.2858,-863.6852 988.6301,-853.5873 997.6615,-845.3123"/>
<polygon fill="#47a9c2" stroke="#000000" points="999.9768,-847.938 1005.337,-838.7991 995.4477,-842.6006 999.9768,-847.938"/>
</g>
<!-- setuptools -->
<g id="node24" class="node">
<title>setuptools</title><style>.edge>path:hover{stroke-width:8}</style>
<polygon fill="#8f3d7e" stroke="#000000" points="947.9325,-766.6955 944.9325,-770.6955 923.9325,-770.6955 920.9325,-766.6955 885.9325,-766.6955 885.9325,-730.6955 947.9325,-730.6955 947.9325,-766.6955"/>
<text text-anchor="middle" x="916.9325" y="-746.1955" font-family="Helvetica,sans-Serif" font-size="10.00" fill="#ffffff">setuptools</text>
</g>
<!-- pkgresources&#45;&gt;setuptools -->
<g id="edge12" class="edge">
<title>pkgresources&#45;&gt;setuptools</title><style>.edge>path:hover{stroke-width:8}</style>
<path fill="none" stroke="#000000" d="M966.0292,-911.6799C968.1767,-900.8926 971.4591,-887.0233 975.9325,-875.1955"/>
<path fill="none" stroke="#000000" d="M975.9325,-875.1955C984.5012,-852.5395 980.6124,-844.4614 975.9325,-820.6955"/>
<path fill="none" stroke="#000000" d="M975.9325,-820.6955C972.3567,-802.5364 960.1726,-786.2152 947.7978,-773.7218"/>
<polygon fill="#47a9c2" stroke="#000000" points="950.2089,-771.1846 940.5534,-766.8232 945.3816,-776.2539 950.2089,-771.1846"/>
</g>
<!-- pluggy -->
<g id="node20" class="node">
<title>pluggy</title><style>.edge>path:hover{stroke-width:8}</style>
<polygon fill="#4073c0" stroke="#000000" points="1283.9325,-420.3869 1280.9325,-424.3869 1259.9325,-424.3869 1256.9325,-420.3869 1229.9325,-420.3869 1229.9325,-384.3869 1283.9325,-384.3869 1283.9325,-420.3869"/>
<text text-anchor="middle" x="1256.9325" y="-399.8869" font-family="Helvetica,sans-Serif" font-size="10.00" fill="#ffffff">pluggy</text>
</g>
<!-- pluggy&#45;&gt;pytest -->
<g id="edge13" class="edge">
<title>pluggy&#45;&gt;pytest</title><style>.edge>path:hover{stroke-width:8}</style>
<path fill="none" stroke="#000000" d="M1242.7032,-384.3239C1236.6228,-377.6273 1229.0547,-370.4864 1220.9325,-365.6173 1171.2932,-335.8596 1124.5856,-379.4023 1095.9325,-329.1173"/>
</g>
<!-- py&#45;&gt;pytest -->
<g id="edge14" class="edge">
<title>py&#45;&gt;pytest</title><style>.edge>path:hover{stroke-width:8}</style>
<path fill="none" stroke="#000000" d="M1003.1459,-659.9467C1015.0839,-650.628 1027.2287,-637.7575 1030.9325,-622.1955"/>
<path fill="none" stroke="#000000" d="M1030.9325,-622.1955C1057.4156,-510.923 997.7536,-466.884 1050.9325,-365.6173 1062.9053,-342.8179 1108.6818,-351.4918 1095.9325,-329.1173"/>
</g>
<!-- pygments&#45;&gt;pytest -->
<g id="edge15" class="edge">
<title>pygments&#45;&gt;pytest</title><style>.edge>path:hover{stroke-width:8}</style>
<path fill="none" stroke="#000000" d="M1030.3287,-802.4786C1024.0321,-767.0072 1013.2903,-686.5109 1030.9325,-622.1955"/>
</g>
<!-- setuptools&#45;&gt;numpy -->
<g id="edge17" class="edge">
<title>setuptools&#45;&gt;numpy</title><style>.edge>path:hover{stroke-width:8}</style>
<path fill="none" stroke="#000000" d="M916.9325,-730.615C916.9325,-695.7152 916.9325,-618.8391 916.9325,-577.1467"/>
<polygon fill="#8f3d7e" stroke="#000000" points="920.4326,-577.1096 916.9325,-567.1096 913.4326,-577.1096 920.4326,-577.1096"/>
</g>
</g>
</svg>
