<?xml version="1.0" encoding="UTF-8" standalone="no"?>
<!DOCTYPE svg PUBLIC "-//W3C//DTD SVG 1.1//EN"
 "http://www.w3.org/Graphics/SVG/1.1/DTD/svg11.dtd">
<!-- Generated by graphviz version 2.40.1 (20161225.0304)
 -->
<!-- Title: G Pages: 1 -->
<svg width="1232pt" height="1063pt"
 viewBox="0.00 0.00 1231.88 1062.70" xmlns="http://www.w3.org/2000/svg" xmlns:xlink="http://www.w3.org/1999/xlink">
<g id="graph0" class="graph" transform="scale(1 1) rotate(0) translate(4 1058.6955)">
<title>G</title><style>.edge>path:hover{stroke-width:8}</style>
<polygon fill="#ffffff" stroke="transparent" points="-4,4 -4,-1058.6955 1227.8782,-1058.6955 1227.8782,4 -4,4"/>
<!-- src_drone_controller_input_layer -->
<g id="node1" class="node">
<title>src_drone_controller_input_layer</title><style>.edge>path:hover{stroke-width:8}</style>
<ellipse fill="#db2f73" stroke="#000000" cx="716.9325" cy="-402.3869" rx="62.8651" ry="28.9828"/>
<text text-anchor="middle" x="716.9325" y="-410.8869" font-family="Helvetica,sans-Serif" font-size="10.00" fill="#ffffff">src.</text>
<text text-anchor="middle" x="716.9325" y="-399.8869" font-family="Helvetica,sans-Serif" font-size="10.00" fill="#ffffff">drone_controller.</text>
<text text-anchor="middle" x="716.9325" y="-388.8869" font-family="Helvetica,sans-Serif" font-size="10.00" fill="#ffffff">input_layer</text>
</g>
<!-- src_drone_controller_calculation_layer_thrust_calculator -->
<g id="node9" class="node">
<title>src_drone_controller_calculation_layer_thrust_calculator</title><style>.edge>path:hover{stroke-width:8}</style>
<ellipse fill="#913057" stroke="#000000" cx="453.9325" cy="-255.8478" rx="65.1077" ry="36.5405"/>
<text text-anchor="middle" x="453.9325" y="-269.8478" font-family="Helvetica,sans-Serif" font-size="10.00" fill="#ffffff">src.</text>
<text text-anchor="middle" x="453.9325" y="-258.8478" font-family="Helvetica,sans-Serif" font-size="10.00" fill="#ffffff">drone_controller.</text>
<text text-anchor="middle" x="453.9325" y="-247.8478" font-family="Helvetica,sans-Serif" font-size="10.00" fill="#ffffff">calculation_layer.</text>
<text text-anchor="middle" x="453.9325" y="-236.8478" font-family="Helvetica,sans-Serif" font-size="10.00" fill="#ffffff">thrust_calculator</text>
</g>
<!-- src_drone_controller_input_layer&#45;&gt;src_drone_controller_calculation_layer_thrust_calculator -->
<g id="edge24" class="edge">
<title>src_drone_controller_input_layer&#45;&gt;src_drone_controller_calculation_layer_thrust_calculator</title><style>.edge>path:hover{stroke-width:8}</style>
<path fill="none" stroke="#000000" d="M726.6257,-373.4496C729.9585,-357.4893 730.061,-338.9615 716.9325,-329.1173"/>
<path fill="none" stroke="#000000" d="M716.9325,-329.1173C648.4852,-277.7935 608.9797,-320.0129 527.9325,-292.6173 522.0462,-290.6276 516.0334,-288.2587 510.1055,-285.6957"/>
<polygon fill="#db2f73" stroke="#000000" points="511.4447,-282.4602 500.8903,-281.5352 508.5642,-288.8401 511.4447,-282.4602"/>
</g>
<!-- src_drone_controller_exception_exceptions -->
<g id="node2" class="node">
<title>src_drone_controller_exception_exceptions</title><style>.edge>path:hover{stroke-width:8}</style>
<ellipse fill="#ce3b76" stroke="#000000" cx="62.9325" cy="-583.926" rx="62.8651" ry="36.5405"/>
<text text-anchor="middle" x="62.9325" y="-597.926" font-family="Helvetica,sans-Serif" font-size="10.00" fill="#ffffff">src.</text>
<text text-anchor="middle" x="62.9325" y="-586.926" font-family="Helvetica,sans-Serif" font-size="10.00" fill="#ffffff">drone_controller.</text>
<text text-anchor="middle" x="62.9325" y="-575.926" font-family="Helvetica,sans-Serif" font-size="10.00" fill="#ffffff">exception.</text>
<text text-anchor="middle" x="62.9325" y="-564.926" font-family="Helvetica,sans-Serif" font-size="10.00" fill="#ffffff">exceptions</text>
</g>
<!-- src_drone_controller_input_layer_drone_state -->
<g id="node5" class="node">
<title>src_drone_controller_input_layer_drone_state</title><style>.edge>path:hover{stroke-width:8}</style>
<ellipse fill="#bf2160" stroke="#000000" cx="246.9325" cy="-402.3869" rx="62.8651" ry="36.5405"/>
<text text-anchor="middle" x="246.9325" y="-416.3869" font-family="Helvetica,sans-Serif" font-size="10.00" fill="#ffffff">src.</text>
<text text-anchor="middle" x="246.9325" y="-405.3869" font-family="Helvetica,sans-Serif" font-size="10.00" fill="#ffffff">drone_controller.</text>
<text text-anchor="middle" x="246.9325" y="-394.3869" font-family="Helvetica,sans-Serif" font-size="10.00" fill="#ffffff">input_layer.</text>
<text text-anchor="middle" x="246.9325" y="-383.3869" font-family="Helvetica,sans-Serif" font-size="10.00" fill="#ffffff">drone_state</text>
</g>
<!-- src_drone_controller_exception_exceptions&#45;&gt;src_drone_controller_input_layer_drone_state -->
<g id="edge22" class="edge">
<title>src_drone_controller_exception_exceptions&#45;&gt;src_drone_controller_input_layer_drone_state</title><style>.edge>path:hover{stroke-width:8}</style>
<path fill="none" stroke="#000000" d="M115.9325,-493.1564C133.4118,-466.2895 161.896,-445.1513 187.8464,-430.0586"/>
<polygon fill="#ce3b76" stroke="#000000" points="189.894,-432.9228 196.8975,-424.9728 186.4649,-426.8202 189.894,-432.9228"/>
</g>
<!-- src_drone_controller_input_layer_request_handler -->
<g id="node8" class="node">
<title>src_drone_controller_input_layer_request_handler</title><style>.edge>path:hover{stroke-width:8}</style>
<ellipse fill="#72314b" stroke="#000000" cx="206.9325" cy="-36.7696" rx="62.8651" ry="36.5405"/>
<text text-anchor="middle" x="206.9325" y="-50.7696" font-family="Helvetica,sans-Serif" font-size="10.00" fill="#ffffff">src.</text>
<text text-anchor="middle" x="206.9325" y="-39.7696" font-family="Helvetica,sans-Serif" font-size="10.00" fill="#ffffff">drone_controller.</text>
<text text-anchor="middle" x="206.9325" y="-28.7696" font-family="Helvetica,sans-Serif" font-size="10.00" fill="#ffffff">input_layer.</text>
<text text-anchor="middle" x="206.9325" y="-17.7696" font-family="Helvetica,sans-Serif" font-size="10.00" fill="#ffffff">request_handler</text>
</g>
<!-- src_drone_controller_exception_exceptions&#45;&gt;src_drone_controller_input_layer_request_handler -->
<g id="edge23" class="edge">
<title>src_drone_controller_exception_exceptions&#45;&gt;src_drone_controller_input_layer_request_handler</title><style>.edge>path:hover{stroke-width:8}</style>
<path fill="none" stroke="#000000" d="M82.5424,-548.5336C92.2183,-531.5505 104.2894,-511.0528 115.9325,-493.1564"/>
<path fill="none" stroke="#000000" d="M115.9325,-493.1564C155.6908,-432.045 115.9325,-402.0236 115.9325,-329.1173 115.9325,-329.1173 115.9325,-329.1173 115.9325,-255.8478 115.9325,-190.2757 106.139,-168.4512 134.9325,-109.5391 141.4001,-96.3062 151.2259,-84.0148 161.5578,-73.442"/>
<polygon fill="#ce3b76" stroke="#000000" points="164.0511,-75.8992 168.7564,-66.4066 159.1584,-70.893 164.0511,-75.8992"/>
</g>
<!-- src_drone_controller_input_layer_drone_physics -->
<g id="node3" class="node">
<title>src_drone_controller_input_layer_drone_physics</title><style>.edge>path:hover{stroke-width:8}</style>
<ellipse fill="#c24778" stroke="#000000" cx="206.9325" cy="-146.3087" rx="62.8651" ry="36.5405"/>
<text text-anchor="middle" x="206.9325" y="-160.3087" font-family="Helvetica,sans-Serif" font-size="10.00" fill="#ffffff">src.</text>
<text text-anchor="middle" x="206.9325" y="-149.3087" font-family="Helvetica,sans-Serif" font-size="10.00" fill="#ffffff">drone_controller.</text>
<text text-anchor="middle" x="206.9325" y="-138.3087" font-family="Helvetica,sans-Serif" font-size="10.00" fill="#ffffff">input_layer.</text>
<text text-anchor="middle" x="206.9325" y="-127.3087" font-family="Helvetica,sans-Serif" font-size="10.00" fill="#ffffff">drone_physics</text>
</g>
<!-- src_drone_controller_input_layer_drone_physics&#45;&gt;src_drone_controller_input_layer_request_handler -->
<g id="edge25" class="edge">
<title>src_drone_controller_input_layer_drone_physics&#45;&gt;src_drone_controller_input_layer_request_handler</title><style>.edge>path:hover{stroke-width:8}</style>
<path fill="none" stroke="#000000" d="M206.9325,-109.529C206.9325,-101.3103 206.9325,-92.4835 206.9325,-83.911"/>
<polygon fill="#c24778" stroke="#000000" points="210.4326,-83.6386 206.9325,-73.6386 203.4326,-83.6386 210.4326,-83.6386"/>
</g>
<!-- src_drone_controller_util_list_operators -->
<g id="node4" class="node">
<title>src_drone_controller_util_list_operators</title><style>.edge>path:hover{stroke-width:8}</style>
<ellipse fill="#ce3b76" stroke="#000000" cx="572.9325" cy="-402.3869" rx="62.8651" ry="36.5405"/>
<text text-anchor="middle" x="572.9325" y="-416.3869" font-family="Helvetica,sans-Serif" font-size="10.00" fill="#ffffff">src.</text>
<text text-anchor="middle" x="572.9325" y="-405.3869" font-family="Helvetica,sans-Serif" font-size="10.00" fill="#ffffff">drone_controller.</text>
<text text-anchor="middle" x="572.9325" y="-394.3869" font-family="Helvetica,sans-Serif" font-size="10.00" fill="#ffffff">util.</text>
<text text-anchor="middle" x="572.9325" y="-383.3869" font-family="Helvetica,sans-Serif" font-size="10.00" fill="#ffffff">list_operators</text>
</g>
<!-- src_drone_controller_input_layer_drone_state_mapper -->
<g id="node7" class="node">
<title>src_drone_controller_input_layer_drone_state_mapper</title><style>.edge>path:hover{stroke-width:8}</style>
<ellipse fill="#913057" stroke="#000000" cx="296.9325" cy="-255.8478" rx="74.4932" ry="36.5405"/>
<text text-anchor="middle" x="296.9325" y="-269.8478" font-family="Helvetica,sans-Serif" font-size="10.00" fill="#ffffff">src.</text>
<text text-anchor="middle" x="296.9325" y="-258.8478" font-family="Helvetica,sans-Serif" font-size="10.00" fill="#ffffff">drone_controller.</text>
<text text-anchor="middle" x="296.9325" y="-247.8478" font-family="Helvetica,sans-Serif" font-size="10.00" fill="#ffffff">input_layer.</text>
<text text-anchor="middle" x="296.9325" y="-236.8478" font-family="Helvetica,sans-Serif" font-size="10.00" fill="#ffffff">drone_state_mapper</text>
</g>
<!-- src_drone_controller_util_list_operators&#45;&gt;src_drone_controller_input_layer_drone_state_mapper -->
<g id="edge33" class="edge">
<title>src_drone_controller_util_list_operators&#45;&gt;src_drone_controller_input_layer_drone_state_mapper</title><style>.edge>path:hover{stroke-width:8}</style>
<path fill="none" stroke="#000000" d="M527.1791,-377.1015C504.4493,-363.8289 476.9883,-346.6961 453.9325,-329.1173"/>
<path fill="none" stroke="#000000" d="M453.9325,-329.1173C445.7391,-322.8703 401.3424,-302.3217 361.8427,-284.5699"/>
<polygon fill="#ce3b76" stroke="#000000" points="363.0152,-281.26 352.4583,-280.3632 360.1518,-287.6476 363.0152,-281.26"/>
</g>
<!-- src_drone_controller_util_list_operators&#45;&gt;src_drone_controller_calculation_layer_thrust_calculator -->
<g id="edge32" class="edge">
<title>src_drone_controller_util_list_operators&#45;&gt;src_drone_controller_calculation_layer_thrust_calculator</title><style>.edge>path:hover{stroke-width:8}</style>
<path fill="none" stroke="#000000" d="M453.9325,-329.1173C445.5769,-322.7466 442.6134,-312.8589 442.4322,-302.3871"/>
<polygon fill="#ce3b76" stroke="#000000" points="445.9343,-302.4516 443.0258,-292.2638 438.9463,-302.0417 445.9343,-302.4516"/>
</g>
<!-- src_drone_controller_input_layer_drone_state&#45;&gt;src_drone_controller_input_layer_drone_state_mapper -->
<g id="edge27" class="edge">
<title>src_drone_controller_input_layer_drone_state&#45;&gt;src_drone_controller_input_layer_drone_state_mapper</title><style>.edge>path:hover{stroke-width:8}</style>
<path fill="none" stroke="#000000" d="M194.9325,-329.1173C194.8379,-308.4127 208.8485,-292.9868 226.5128,-281.7723"/>
<polygon fill="#bf2160" stroke="#000000" points="228.5367,-284.6446 235.432,-276.6006 225.0254,-278.5889 228.5367,-284.6446"/>
</g>
<!-- src_drone_controller_input_layer_drone_state&#45;&gt;src_drone_controller_input_layer_request_handler -->
<g id="edge28" class="edge">
<title>src_drone_controller_input_layer_drone_state&#45;&gt;src_drone_controller_input_layer_request_handler</title><style>.edge>path:hover{stroke-width:8}</style>
<path fill="none" stroke="#000000" d="M212.6167,-371.2997C202.9539,-359.3077 195.0037,-344.7155 194.9325,-329.1173"/>
<path fill="none" stroke="#000000" d="M194.9325,-329.1173C194.7838,-296.5534 179.2009,-284.36 194.9325,-255.8478"/>
</g>
<!-- src_drone_controller_input_layer_drone_state&#45;&gt;src_drone_controller_calculation_layer_thrust_calculator -->
<g id="edge26" class="edge">
<title>src_drone_controller_input_layer_drone_state&#45;&gt;src_drone_controller_calculation_layer_thrust_calculator</title><style>.edge>path:hover{stroke-width:8}</style>
<path fill="none" stroke="#000000" d="M293.9745,-377.8334C302.2476,-373.6673 310.8092,-369.4519 318.9325,-365.6173 355.7429,-348.2411 375.763,-359.4283 402.9325,-329.1173"/>
<path fill="none" stroke="#000000" d="M402.9325,-329.1173C411.176,-319.9207 419.229,-309.3501 426.4115,-299.1519"/>
<polygon fill="#bf2160" stroke="#000000" points="429.435,-300.9324 432.225,-290.7115 423.6702,-296.9617 429.435,-300.9324"/>
</g>
<!-- src_drone_controller_util -->
<g id="node6" class="node">
<title>src_drone_controller_util</title><style>.edge>path:hover{stroke-width:8}</style>
<ellipse fill="#ce3b76" stroke="#000000" cx="390.9325" cy="-402.3869" rx="62.8651" ry="28.9828"/>
<text text-anchor="middle" x="390.9325" y="-410.8869" font-family="Helvetica,sans-Serif" font-size="10.00" fill="#ffffff">src.</text>
<text text-anchor="middle" x="390.9325" y="-399.8869" font-family="Helvetica,sans-Serif" font-size="10.00" fill="#ffffff">drone_controller.</text>
<text text-anchor="middle" x="390.9325" y="-388.8869" font-family="Helvetica,sans-Serif" font-size="10.00" fill="#ffffff">util</text>
</g>
<!-- src_drone_controller_util&#45;&gt;src_drone_controller_input_layer_drone_state_mapper -->
<g id="edge31" class="edge">
<title>src_drone_controller_util&#45;&gt;src_drone_controller_input_layer_drone_state_mapper</title><style>.edge>path:hover{stroke-width:8}</style>
<path fill="none" stroke="#000000" d="M386.4388,-373.3448C382.8269,-358.5277 376.3777,-341.1437 364.9325,-329.1173"/>
<path fill="none" stroke="#000000" d="M364.9325,-329.1173C355.1127,-318.7989 344.5995,-307.5652 334.8471,-297.0638"/>
<polygon fill="#ce3b76" stroke="#000000" points="337.2661,-294.5249 327.9011,-289.5702 332.1323,-299.2835 337.2661,-294.5249"/>
</g>
<!-- src_drone_controller_util&#45;&gt;src_drone_controller_calculation_layer_thrust_calculator -->
<g id="edge30" class="edge">
<title>src_drone_controller_util&#45;&gt;src_drone_controller_calculation_layer_thrust_calculator</title><style>.edge>path:hover{stroke-width:8}</style>
<path fill="none" stroke="#000000" d="M388.7149,-373.1663C389.1666,-358.2987 392.3501,-340.9233 402.9325,-329.1173"/>
</g>
<!-- src_drone_controller_input_layer_drone_state_mapper&#45;&gt;src_drone_controller_input_layer_request_handler -->
<g id="edge29" class="edge">
<title>src_drone_controller_input_layer_drone_state_mapper&#45;&gt;src_drone_controller_input_layer_request_handler</title><style>.edge>path:hover{stroke-width:8}</style>
<path fill="none" stroke="#000000" d="M308.1906,-219.3945C313.0173,-195.9803 314.324,-166.3159 297.9325,-146.3087"/>
</g>
<!-- src_drone_controller_calculation_layer_thrust_calculator&#45;&gt;src_drone_controller_input_layer_request_handler -->
<g id="edge19" class="edge">
<title>src_drone_controller_calculation_layer_thrust_calculator&#45;&gt;src_drone_controller_input_layer_request_handler</title><style>.edge>path:hover{stroke-width:8}</style>
<path fill="none" stroke="#000000" d="M405.3163,-231.0392C371.5106,-211.7574 327.3991,-182.2752 297.9325,-146.3087"/>
</g>
<!-- src_drone_controller_exception -->
<g id="node10" class="node">
<title>src_drone_controller_exception</title><style>.edge>path:hover{stroke-width:8}</style>
<ellipse fill="#ce3b76" stroke="#000000" cx="206.9325" cy="-583.926" rx="62.8651" ry="28.9828"/>
<text text-anchor="middle" x="206.9325" y="-592.426" font-family="Helvetica,sans-Serif" font-size="10.00" fill="#ffffff">src.</text>
<text text-anchor="middle" x="206.9325" y="-581.426" font-family="Helvetica,sans-Serif" font-size="10.00" fill="#ffffff">drone_controller.</text>
<text text-anchor="middle" x="206.9325" y="-570.426" font-family="Helvetica,sans-Serif" font-size="10.00" fill="#ffffff">exception</text>
</g>
<!-- src_drone_controller_exception&#45;&gt;src_drone_controller_input_layer_drone_state -->
<g id="edge20" class="edge">
<title>src_drone_controller_exception&#45;&gt;src_drone_controller_input_layer_drone_state</title><style>.edge>path:hover{stroke-width:8}</style>
<path fill="none" stroke="#000000" d="M155.9325,-493.1564C155.3488,-468.4519 172.2991,-448.1353 191.7226,-433.0332"/>
<polygon fill="#ce3b76" stroke="#000000" points="193.845,-435.8172 199.8524,-427.0902 189.7139,-430.1661 193.845,-435.8172"/>
</g>
<!-- src_drone_controller_exception&#45;&gt;src_drone_controller_input_layer_request_handler -->
<g id="edge21" class="edge">
<title>src_drone_controller_exception&#45;&gt;src_drone_controller_input_layer_request_handler</title><style>.edge>path:hover{stroke-width:8}</style>
<path fill="none" stroke="#000000" d="M182.7288,-557.0684C169.8333,-540.0427 156.4918,-516.8289 155.9325,-493.1564"/>
<path fill="none" stroke="#000000" d="M155.9325,-493.1564C153.408,-386.3009 143.2969,-349.4332 194.9325,-255.8478"/>
<path fill="none" stroke="#000000" d="M194.9325,-255.8478C203.5054,-239.5728 201.1143,-232.2716 213.9325,-219.0782 236.9446,-195.3925 255.9204,-206.7639 278.9325,-183.0782 291.7507,-169.8848 309.5902,-160.5378 297.9325,-146.3087"/>
<path fill="none" stroke="#000000" d="M297.9325,-146.3087C286.2748,-132.0795 289.7476,-124.4187 278.9325,-109.5391 270.1879,-97.5081 259.4662,-85.5664 248.9945,-74.9414"/>
<polygon fill="#ce3b76" stroke="#000000" points="251.3749,-72.3726 241.8123,-67.8111 246.4431,-77.3403 251.3749,-72.3726"/>
</g>
<!-- src_drone_controller_calculation_layer -->
<g id="node11" class="node">
<title>src_drone_controller_calculation_layer</title><style>.edge>path:hover{stroke-width:8}</style>
<ellipse fill="#c24778" stroke="#000000" cx="599.9325" cy="-255.8478" rx="62.8651" ry="28.9828"/>
<text text-anchor="middle" x="599.9325" y="-264.3478" font-family="Helvetica,sans-Serif" font-size="10.00" fill="#ffffff">src.</text>
<text text-anchor="middle" x="599.9325" y="-253.3478" font-family="Helvetica,sans-Serif" font-size="10.00" fill="#ffffff">drone_controller.</text>
<text text-anchor="middle" x="599.9325" y="-242.3478" font-family="Helvetica,sans-Serif" font-size="10.00" fill="#ffffff">calculation_layer</text>
</g>
<!-- src_drone_controller_calculation_layer&#45;&gt;src_drone_controller_input_layer_request_handler -->
<g id="edge18" class="edge">
<title>src_drone_controller_calculation_layer&#45;&gt;src_drone_controller_input_layer_request_handler</title><style>.edge>path:hover{stroke-width:8}</style>
<path fill="none" stroke="#000000" d="M559.3621,-233.6491C549.2478,-228.5287 538.3209,-223.3398 527.9325,-219.0782 428.7381,-178.3858 365.8805,-229.2451 297.9325,-146.3087"/>
</g>
<!-- attr -->
<g id="node12" class="node">
<title>attr</title><style>.edge>path:hover{stroke-width:8}</style>
<polygon fill="#9eb34c" stroke="#000000" points="944.9325,-511.1564 941.9325,-515.1564 920.9325,-515.1564 917.9325,-511.1564 890.9325,-511.1564 890.9325,-475.1564 944.9325,-475.1564 944.9325,-511.1564"/>
<text text-anchor="middle" x="917.9325" y="-490.6564" font-family="Helvetica,sans-Serif" font-size="10.00" fill="#000000">attr</text>
</g>
<!-- pytest -->
<g id="node23" class="node">
<title>pytest</title><style>.edge>path:hover{stroke-width:8}</style>
<polygon fill="#968540" stroke="#000000" points="999.9325,-273.8478 996.9325,-277.8478 975.9325,-277.8478 972.9325,-273.8478 945.9325,-273.8478 945.9325,-237.8478 999.9325,-237.8478 999.9325,-273.8478"/>
<text text-anchor="middle" x="972.9325" y="-253.3478" font-family="Helvetica,sans-Serif" font-size="10.00" fill="#000000">pytest</text>
</g>
<!-- attr&#45;&gt;pytest -->
<g id="edge1" class="edge">
<title>attr&#45;&gt;pytest</title><style>.edge>path:hover{stroke-width:8}</style>
<path fill="none" stroke="#000000" d="M912.6153,-475.0281C904.3883,-443.2334 892.057,-376.315 917.9325,-329.1173"/>
</g>
<!-- chardet -->
<g id="node13" class="node">
<title>chardet</title><style>.edge>path:hover{stroke-width:8}</style>
<polygon fill="#78c247" stroke="#000000" points="1117.9325,-982.6955 1114.9325,-986.6955 1093.9325,-986.6955 1090.9325,-982.6955 1063.9325,-982.6955 1063.9325,-946.6955 1117.9325,-946.6955 1117.9325,-982.6955"/>
<text text-anchor="middle" x="1090.9325" y="-962.1955" font-family="Helvetica,sans-Serif" font-size="10.00" fill="#000000">chardet</text>
</g>
<!-- pygments -->
<g id="node22" class="node">
<title>pygments</title><style>.edge>path:hover{stroke-width:8}</style>
<polygon fill="#7b53b6" stroke="#000000" points="1114.4325,-873.6955 1111.4325,-877.6955 1090.4325,-877.6955 1087.4325,-873.6955 1055.4325,-873.6955 1055.4325,-837.6955 1114.4325,-837.6955 1114.4325,-873.6955"/>
<text text-anchor="middle" x="1084.9325" y="-853.1955" font-family="Helvetica,sans-Serif" font-size="10.00" fill="#ffffff">pygments</text>
</g>
<!-- chardet&#45;&gt;pygments -->
<g id="edge2" class="edge">
<title>chardet&#45;&gt;pygments</title><style>.edge>path:hover{stroke-width:8}</style>
<path fill="none" stroke="#000000" d="M1089.9147,-946.2052C1088.9781,-929.1908 1087.575,-903.7011 1086.4962,-884.1032"/>
<polygon fill="#78c247" stroke="#000000" points="1089.9797,-883.7053 1085.9353,-873.9128 1082.9903,-884.0901 1089.9797,-883.7053"/>
</g>
<!-- imp -->
<g id="node14" class="node">
<title>imp</title><style>.edge>path:hover{stroke-width:8}</style>
<polygon fill="#b67b53" stroke="#000000" points="998.9325,-1054.6955 995.9325,-1058.6955 974.9325,-1058.6955 971.9325,-1054.6955 944.9325,-1054.6955 944.9325,-1018.6955 998.9325,-1018.6955 998.9325,-1054.6955"/>
<text text-anchor="middle" x="971.9325" y="-1034.1955" font-family="Helvetica,sans-Serif" font-size="10.00" fill="#000000">imp</text>
</g>
<!-- pkgresources -->
<g id="node19" class="node">
<title>pkgresources</title><style>.edge>path:hover{stroke-width:8}</style>
<polygon fill="#47a9c2" stroke="#000000" points="1045.4325,-982.6955 1042.4325,-986.6955 1021.4325,-986.6955 1018.4325,-982.6955 970.4325,-982.6955 970.4325,-946.6955 1045.4325,-946.6955 1045.4325,-982.6955"/>
<text text-anchor="middle" x="1007.9325" y="-962.1955" font-family="Helvetica,sans-Serif" font-size="10.00" fill="#000000">pkgresources</text>
</g>
<!-- imp&#45;&gt;pkgresources -->
<g id="edge3" class="edge">
<title>imp&#45;&gt;pkgresources</title><style>.edge>path:hover{stroke-width:8}</style>
<path fill="none" stroke="#000000" d="M981.0168,-1018.5269C984.994,-1010.5726 989.748,-1001.0646 994.1464,-992.2678"/>
<polygon fill="#b67b53" stroke="#000000" points="997.3842,-993.6183 998.7259,-983.1088 991.1232,-990.4878 997.3842,-993.6183"/>
</g>
<!-- main -->
<g id="node15" class="node">
<title>main</title><style>.edge>path:hover{stroke-width:8}</style>
<polygon fill="#6b2e2e" stroke="#000000" points="1070.9325,-1054.6955 1067.9325,-1058.6955 1046.9325,-1058.6955 1043.9325,-1054.6955 1016.9325,-1054.6955 1016.9325,-1018.6955 1070.9325,-1018.6955 1070.9325,-1054.6955"/>
<text text-anchor="middle" x="1043.9325" y="-1034.1955" font-family="Helvetica,sans-Serif" font-size="10.00" fill="#ffffff">main</text>
</g>
<!-- main&#45;&gt;pkgresources -->
<g id="edge4" class="edge">
<title>main&#45;&gt;pkgresources</title><style>.edge>path:hover{stroke-width:8}</style>
<path fill="none" stroke="#000000" d="M1034.8482,-1018.5269C1030.8711,-1010.5726 1026.117,-1001.0646 1021.7186,-992.2678"/>
<polygon fill="#6b2e2e" stroke="#000000" points="1024.7418,-990.4878 1017.1391,-983.1088 1018.4808,-993.6183 1024.7418,-990.4878"/>
</g>
<!-- moreitertools -->
<g id="node16" class="node">
<title>moreitertools</title><style>.edge>path:hover{stroke-width:8}</style>
<polygon fill="#49ac49" stroke="#000000" points="1112.4325,-420.3869 1109.4325,-424.3869 1088.4325,-424.3869 1085.4325,-420.3869 1039.4325,-420.3869 1039.4325,-384.3869 1112.4325,-384.3869 1112.4325,-420.3869"/>
<text text-anchor="middle" x="1075.9325" y="-399.8869" font-family="Helvetica,sans-Serif" font-size="10.00" fill="#000000">moreitertools</text>
</g>
<!-- moreitertools&#45;&gt;pytest -->
<g id="edge5" class="edge">
<title>moreitertools&#45;&gt;pytest</title><style>.edge>path:hover{stroke-width:8}</style>
<path fill="none" stroke="#000000" d="M1098.0536,-384.1785C1113.381,-369.2664 1129.1753,-347.6776 1117.9325,-329.1173"/>
</g>
<!-- numpy -->
<g id="node17" class="node">
<title>numpy</title><style>.edge>path:hover{stroke-width:8}</style>
<polygon fill="#3d8f5e" stroke="#000000" points="982.9325,-601.926 979.9325,-605.926 958.9325,-605.926 955.9325,-601.926 928.9325,-601.926 928.9325,-565.926 982.9325,-565.926 982.9325,-601.926"/>
<text text-anchor="middle" x="955.9325" y="-581.426" font-family="Helvetica,sans-Serif" font-size="10.00" fill="#ffffff">numpy</text>
</g>
<!-- numpy&#45;&gt;src_drone_controller_input_layer_drone_state_mapper -->
<g id="edge8" class="edge">
<title>numpy&#45;&gt;src_drone_controller_input_layer_drone_state_mapper</title><style>.edge>path:hover{stroke-width:8}</style>
<path fill="none" stroke="#000000" d="M928.6767,-566.5337C899.2034,-547.8863 850.6934,-517.656 807.9325,-493.1564"/>
<path fill="none" stroke="#000000" d="M807.9325,-493.1564C687.7254,-424.2845 612.5499,-521.2213 500.9325,-439.1564 471.292,-417.3637 490.4649,-390.0192 462.9325,-365.6173 428.1493,-334.7891 396.9742,-362.7859 364.9325,-329.1173"/>
</g>
<!-- numpy&#45;&gt;src_drone_controller_calculation_layer_thrust_calculator -->
<g id="edge7" class="edge">
<title>numpy&#45;&gt;src_drone_controller_calculation_layer_thrust_calculator</title><style>.edge>path:hover{stroke-width:8}</style>
<path fill="none" stroke="#000000" d="M807.9325,-493.1564C758.46,-464.2278 822.4525,-412.1018 788.9325,-365.6173 767.9483,-336.5171 745.6365,-350.6404 716.9325,-329.1173"/>
</g>
<!-- numpy&#45;&gt;pytest -->
<g id="edge6" class="edge">
<title>numpy&#45;&gt;pytest</title><style>.edge>path:hover{stroke-width:8}</style>
<path fill="none" stroke="#000000" d="M957.3909,-555.78C960.6017,-493.8165 968.251,-346.1947 971.4677,-284.1174"/>
<polygon fill="#3d8f5e" stroke="#000000" points="953.893,-555.652 956.8707,-565.8197 960.8836,-556.0143 953.893,-555.652"/>
<polygon fill="#3d8f5e" stroke="#000000" points="974.9749,-284.0658 971.9972,-273.898 967.9843,-283.7035 974.9749,-284.0658"/>
</g>
<!-- packaging -->
<g id="node18" class="node">
<title>packaging</title><style>.edge>path:hover{stroke-width:8}</style>
<polygon fill="#53b6a2" stroke="#000000" points="1191.4325,-420.3869 1188.4325,-424.3869 1167.4325,-424.3869 1164.4325,-420.3869 1130.4325,-420.3869 1130.4325,-384.3869 1191.4325,-384.3869 1191.4325,-420.3869"/>
<text text-anchor="middle" x="1160.9325" y="-399.8869" font-family="Helvetica,sans-Serif" font-size="10.00" fill="#000000">packaging</text>
</g>
<!-- packaging&#45;&gt;pytest -->
<g id="edge9" class="edge">
<title>packaging&#45;&gt;pytest</title><style>.edge>path:hover{stroke-width:8}</style>
<path fill="none" stroke="#000000" d="M1150.4692,-384.2374C1141.8468,-369.3594 1129.2421,-347.7879 1117.9325,-329.1173"/>
</g>
<!-- py -->
<g id="node21" class="node">
<title>py</title><style>.edge>path:hover{stroke-width:8}</style>
<polygon fill="#0505d1" stroke="#000000" points="1039.9325,-729.6955 1036.9325,-733.6955 1015.9325,-733.6955 1012.9325,-729.6955 985.9325,-729.6955 985.9325,-693.6955 1039.9325,-693.6955 1039.9325,-729.6955"/>
<text text-anchor="middle" x="1012.9325" y="-709.1955" font-family="Helvetica,sans-Serif" font-size="10.00" fill="#ffffff">py</text>
</g>
<!-- pkgresources&#45;&gt;py -->
<g id="edge10" class="edge">
<title>pkgresources&#45;&gt;py</title><style>.edge>path:hover{stroke-width:8}</style>
<path fill="none" stroke="#000000" d="M1014.9325,-855.6955C1007.1795,-816.3237 1008.3617,-769.7199 1010.3228,-740.4273"/>
<polygon fill="#47a9c2" stroke="#000000" points="1013.8396,-740.3326 1011.0955,-730.0993 1006.8591,-739.8103 1013.8396,-740.3326"/>
</g>
<!-- pkgresources&#45;&gt;pygments -->
<g id="edge11" class="edge">
<title>pkgresources&#45;&gt;pygments</title><style>.edge>path:hover{stroke-width:8}</style>
<path fill="none" stroke="#000000" d="M1014.9325,-910.1955C1020.5105,-894.8815 1033.4378,-882.9157 1046.6854,-874.1467"/>
<polygon fill="#47a9c2" stroke="#000000" points="1048.656,-877.0442 1055.3632,-868.8427 1045.0054,-871.0715 1048.656,-877.0442"/>
</g>
<!-- setuptools -->
<g id="node24" class="node">
<title>setuptools</title><style>.edge>path:hover{stroke-width:8}</style>
<polygon fill="#b34c9e" stroke="#000000" points="986.9325,-801.6955 983.9325,-805.6955 962.9325,-805.6955 959.9325,-801.6955 924.9325,-801.6955 924.9325,-765.6955 986.9325,-765.6955 986.9325,-801.6955"/>
<text text-anchor="middle" x="955.9325" y="-781.1955" font-family="Helvetica,sans-Serif" font-size="10.00" fill="#ffffff">setuptools</text>
</g>
<!-- pkgresources&#45;&gt;setuptools -->
<g id="edge12" class="edge">
<title>pkgresources&#45;&gt;setuptools</title><style>.edge>path:hover{stroke-width:8}</style>
<path fill="none" stroke="#000000" d="M1008.2659,-946.5525C1008.9494,-935.72 1010.6882,-921.848 1014.9325,-910.1955"/>
<path fill="none" stroke="#000000" d="M1014.9325,-910.1955C1023.2225,-887.4361 1019.6124,-879.4614 1014.9325,-855.6955"/>
<path fill="none" stroke="#000000" d="M1014.9325,-855.6955C1011.3567,-837.5364 999.1726,-821.2152 986.7978,-808.7218"/>
<polygon fill="#47a9c2" stroke="#000000" points="989.2089,-806.1846 979.5534,-801.8232 984.3816,-811.2539 989.2089,-806.1846"/>
</g>
<!-- pluggy -->
<g id="node20" class="node">
<title>pluggy</title><style>.edge>path:hover{stroke-width:8}</style>
<polygon fill="#537bb6" stroke="#000000" points="889.9325,-420.3869 886.9325,-424.3869 865.9325,-424.3869 862.9325,-420.3869 835.9325,-420.3869 835.9325,-384.3869 889.9325,-384.3869 889.9325,-420.3869"/>
<text text-anchor="middle" x="862.9325" y="-399.8869" font-family="Helvetica,sans-Serif" font-size="10.00" fill="#ffffff">pluggy</text>
</g>
<!-- pluggy&#45;&gt;pytest -->
<g id="edge13" class="edge">
<title>pluggy&#45;&gt;pytest</title><style>.edge>path:hover{stroke-width:8}</style>
<path fill="none" stroke="#000000" d="M878.9806,-384.1178C890.8959,-369.8735 906.9219,-349.201 917.9325,-329.1173"/>
<path fill="none" stroke="#000000" d="M917.9325,-329.1173C927.0507,-312.4855 939.6084,-295.4499 950.4226,-281.9956"/>
<polygon fill="#537bb6" stroke="#000000" points="953.2491,-284.0685 956.8844,-274.1168 947.8366,-279.6294 953.2491,-284.0685"/>
</g>
<!-- py&#45;&gt;pytest -->
<g id="edge14" class="edge">
<title>py&#45;&gt;pytest</title><style>.edge>path:hover{stroke-width:8}</style>
<path fill="none" stroke="#000000" d="M1012.4686,-693.5006C1011.8778,-668.7205 1010.9325,-622.9715 1010.9325,-583.926 1010.9325,-583.926 1010.9325,-583.926 1010.9325,-493.1564 1010.9325,-435.7797 995.5478,-410.7839 1030.9325,-365.6173 1056.7921,-332.609 1139.6575,-364.9823 1117.9325,-329.1173"/>
<path fill="none" stroke="#000000" d="M1117.9325,-329.1173C1094.2709,-291.2319 1044.394,-272.1802 1009.7916,-263.1588"/>
<polygon fill="#0505d1" stroke="#000000" points="1010.5762,-259.7476 1000.031,-260.772 1008.9134,-266.5473 1010.5762,-259.7476"/>
</g>
<!-- pygments&#45;&gt;pytest -->
<g id="edge15" class="edge">
<title>pygments&#45;&gt;pytest</title><style>.edge>path:hover{stroke-width:8}</style>
<path fill="none" stroke="#000000" d="M1114.5588,-840.9122C1154.2983,-818.7412 1219.9325,-772.8644 1219.9325,-711.6955 1219.9325,-711.6955 1219.9325,-711.6955 1219.9325,-493.1564 1219.9325,-435.8468 1235.7153,-411.1645 1200.9325,-365.6173 1176.4744,-333.59 1139.2796,-363.297 1117.9325,-329.1173"/>
</g>
<!-- setuptools&#45;&gt;numpy -->
<g id="edge17" class="edge">
<title>setuptools&#45;&gt;numpy</title><style>.edge>path:hover{stroke-width:8}</style>
<path fill="none" stroke="#000000" d="M955.9325,-765.615C955.9325,-730.7152 955.9325,-653.8391 955.9325,-612.1467"/>
<polygon fill="#b34c9e" stroke="#000000" points="959.4326,-612.1096 955.9325,-602.1096 952.4326,-612.1096 959.4326,-612.1096"/>
</g>
</g>
</svg>
