<?xml version="1.0" encoding="UTF-8" standalone="no"?>
<!DOCTYPE svg PUBLIC "-//W3C//DTD SVG 1.1//EN"
 "http://www.w3.org/Graphics/SVG/1.1/DTD/svg11.dtd">
<!-- Generated by graphviz version 2.40.1 (20161225.0304)
 -->
<!-- Title: G Pages: 1 -->
<svg width="1127pt" height="948pt"
 viewBox="0.00 0.00 1127.43 947.91" xmlns="http://www.w3.org/2000/svg" xmlns:xlink="http://www.w3.org/1999/xlink">
<g id="graph0" class="graph" transform="scale(1 1) rotate(0) translate(4 943.9138)">
<title>G</title><style>.edge>path:hover{stroke-width:8}</style>
<polygon fill="#ffffff" stroke="transparent" points="-4,4 -4,-943.9138 1123.4325,-943.9138 1123.4325,4 -4,4"/>
<!-- drone_controller_input_layer_request_handler -->
<g id="node1" class="node">
<title>drone_controller_input_layer_request_handler</title><style>.edge>path:hover{stroke-width:8}</style>
<ellipse fill="#347934" stroke="#000000" cx="249.9325" cy="-28.9914" rx="62.8651" ry="28.9828"/>
<text text-anchor="middle" x="249.9325" y="-37.4914" font-family="Helvetica,sans-Serif" font-size="10.00" fill="#ffffff">drone_controller.</text>
<text text-anchor="middle" x="249.9325" y="-26.4914" font-family="Helvetica,sans-Serif" font-size="10.00" fill="#ffffff">input_layer.</text>
<text text-anchor="middle" x="249.9325" y="-15.4914" font-family="Helvetica,sans-Serif" font-size="10.00" fill="#ffffff">request_handler</text>
</g>
<!-- drone_controller_util_list_operators -->
<g id="node2" class="node">
<title>drone_controller_util_list_operators</title><style>.edge>path:hover{stroke-width:8}</style>
<ellipse fill="#3bce3b" stroke="#000000" cx="517.9325" cy="-382.9396" rx="62.8651" ry="28.9828"/>
<text text-anchor="middle" x="517.9325" y="-391.4396" font-family="Helvetica,sans-Serif" font-size="10.00" fill="#000000">drone_controller.</text>
<text text-anchor="middle" x="517.9325" y="-380.4396" font-family="Helvetica,sans-Serif" font-size="10.00" fill="#000000">util.</text>
<text text-anchor="middle" x="517.9325" y="-369.4396" font-family="Helvetica,sans-Serif" font-size="10.00" fill="#000000">list_operators</text>
</g>
<!-- drone_controller_calculation_layer_thrust_calculator -->
<g id="node8" class="node">
<title>drone_controller_calculation_layer_thrust_calculator</title><style>.edge>path:hover{stroke-width:8}</style>
<ellipse fill="#339933" stroke="#000000" cx="503.9325" cy="-216.9569" rx="65.1077" ry="28.9828"/>
<text text-anchor="middle" x="503.9325" y="-225.4569" font-family="Helvetica,sans-Serif" font-size="10.00" fill="#ffffff">drone_controller.</text>
<text text-anchor="middle" x="503.9325" y="-214.4569" font-family="Helvetica,sans-Serif" font-size="10.00" fill="#ffffff">calculation_layer.</text>
<text text-anchor="middle" x="503.9325" y="-203.4569" font-family="Helvetica,sans-Serif" font-size="10.00" fill="#ffffff">thrust_calculator</text>
</g>
<!-- drone_controller_util_list_operators&#45;&gt;drone_controller_calculation_layer_thrust_calculator -->
<g id="edge17" class="edge">
<title>drone_controller_util_list_operators&#45;&gt;drone_controller_calculation_layer_thrust_calculator</title><style>.edge>path:hover{stroke-width:8}</style>
<path fill="none" stroke="#000000" d="M562.5988,-362.2663C605.5004,-341.6753 663.6114,-311.5132 661.9325,-299.9483"/>
</g>
<!-- drone_controller_input_layer_drone_state_mapper -->
<g id="node9" class="node">
<title>drone_controller_input_layer_drone_state_mapper</title><style>.edge>path:hover{stroke-width:8}</style>
<ellipse fill="#339933" stroke="#000000" cx="346.9325" cy="-216.9569" rx="74.4932" ry="28.9828"/>
<text text-anchor="middle" x="346.9325" y="-225.4569" font-family="Helvetica,sans-Serif" font-size="10.00" fill="#ffffff">drone_controller.</text>
<text text-anchor="middle" x="346.9325" y="-214.4569" font-family="Helvetica,sans-Serif" font-size="10.00" fill="#ffffff">input_layer.</text>
<text text-anchor="middle" x="346.9325" y="-203.4569" font-family="Helvetica,sans-Serif" font-size="10.00" fill="#ffffff">drone_state_mapper</text>
</g>
<!-- drone_controller_util_list_operators&#45;&gt;drone_controller_input_layer_drone_state_mapper -->
<g id="edge18" class="edge">
<title>drone_controller_util_list_operators&#45;&gt;drone_controller_input_layer_drone_state_mapper</title><style>.edge>path:hover{stroke-width:8}</style>
<path fill="none" stroke="#000000" d="M490.837,-356.6392C461.4557,-328.1199 414.4483,-282.4918 382.2054,-251.1949"/>
<polygon fill="#3bce3b" stroke="#000000" points="384.3655,-248.4139 374.7522,-243.9603 379.49,-253.4368 384.3655,-248.4139"/>
</g>
<!-- drone_controller_input_layer -->
<g id="node3" class="node">
<title>drone_controller_input_layer</title><style>.edge>path:hover{stroke-width:8}</style>
<ellipse fill="#2fdb2f" stroke="#000000" cx="661.9325" cy="-382.9396" rx="62.8651" ry="21.4286"/>
<text text-anchor="middle" x="661.9325" y="-385.9396" font-family="Helvetica,sans-Serif" font-size="10.00" fill="#000000">drone_controller.</text>
<text text-anchor="middle" x="661.9325" y="-374.9396" font-family="Helvetica,sans-Serif" font-size="10.00" fill="#000000">input_layer</text>
</g>
<!-- drone_controller_input_layer&#45;&gt;drone_controller_calculation_layer_thrust_calculator -->
<g id="edge9" class="edge">
<title>drone_controller_input_layer&#45;&gt;drone_controller_calculation_layer_thrust_calculator</title><style>.edge>path:hover{stroke-width:8}</style>
<path fill="none" stroke="#000000" d="M663.6064,-361.6701C664.5296,-344.832 664.9546,-320.7661 661.9325,-299.9483"/>
</g>
<!-- drone_controller_calculation_layer -->
<g id="node4" class="node">
<title>drone_controller_calculation_layer</title><style>.edge>path:hover{stroke-width:8}</style>
<ellipse fill="#47c247" stroke="#000000" cx="153.9325" cy="-216.9569" rx="62.8651" ry="21.4286"/>
<text text-anchor="middle" x="153.9325" y="-219.9569" font-family="Helvetica,sans-Serif" font-size="10.00" fill="#000000">drone_controller.</text>
<text text-anchor="middle" x="153.9325" y="-208.9569" font-family="Helvetica,sans-Serif" font-size="10.00" fill="#000000">calculation_layer</text>
</g>
<!-- drone_controller_calculation_layer&#45;&gt;drone_controller_input_layer_request_handler -->
<g id="edge3" class="edge">
<title>drone_controller_calculation_layer&#45;&gt;drone_controller_input_layer_request_handler</title><style>.edge>path:hover{stroke-width:8}</style>
<path fill="none" stroke="#000000" d="M149.3552,-195.5C146.198,-175.8234 144.1303,-146.2878 153.9325,-122.9741"/>
</g>
<!-- drone_controller_util -->
<g id="node5" class="node">
<title>drone_controller_util</title><style>.edge>path:hover{stroke-width:8}</style>
<ellipse fill="#3bce3b" stroke="#000000" cx="373.9325" cy="-382.9396" rx="62.8651" ry="21.4286"/>
<text text-anchor="middle" x="373.9325" y="-385.9396" font-family="Helvetica,sans-Serif" font-size="10.00" fill="#000000">drone_controller.</text>
<text text-anchor="middle" x="373.9325" y="-374.9396" font-family="Helvetica,sans-Serif" font-size="10.00" fill="#000000">util</text>
</g>
<!-- drone_controller_util&#45;&gt;drone_controller_calculation_layer_thrust_calculator -->
<g id="edge15" class="edge">
<title>drone_controller_util&#45;&gt;drone_controller_calculation_layer_thrust_calculator</title><style>.edge>path:hover{stroke-width:8}</style>
<path fill="none" stroke="#000000" d="M412.8081,-366.1481C423.4407,-361.869 435.0381,-357.4848 445.9325,-353.9483 540.0522,-323.3952 676.1485,-397.8763 661.9325,-299.9483"/>
<path fill="none" stroke="#000000" d="M661.9325,-299.9483C656.1055,-259.8085 614.9237,-239.0192 576.0684,-228.2863"/>
<polygon fill="#3bce3b" stroke="#000000" points="576.8192,-224.8656 566.2629,-225.7686 575.0783,-231.6457 576.8192,-224.8656"/>
</g>
<!-- drone_controller_util&#45;&gt;drone_controller_input_layer_drone_state_mapper -->
<g id="edge16" class="edge">
<title>drone_controller_util&#45;&gt;drone_controller_input_layer_drone_state_mapper</title><style>.edge>path:hover{stroke-width:8}</style>
<path fill="none" stroke="#000000" d="M366.6713,-361.5712C361.8281,-344.884 356.7223,-321.0633 358.9325,-299.9483"/>
</g>
<!-- drone_controller_exception_exceptions -->
<g id="node6" class="node">
<title>drone_controller_exception_exceptions</title><style>.edge>path:hover{stroke-width:8}</style>
<ellipse fill="#3bce3b" stroke="#000000" cx="62.9325" cy="-548.9224" rx="62.8651" ry="28.9828"/>
<text text-anchor="middle" x="62.9325" y="-557.4224" font-family="Helvetica,sans-Serif" font-size="10.00" fill="#000000">drone_controller.</text>
<text text-anchor="middle" x="62.9325" y="-546.4224" font-family="Helvetica,sans-Serif" font-size="10.00" fill="#000000">exception.</text>
<text text-anchor="middle" x="62.9325" y="-535.4224" font-family="Helvetica,sans-Serif" font-size="10.00" fill="#000000">exceptions</text>
</g>
<!-- drone_controller_exception_exceptions&#45;&gt;drone_controller_input_layer_request_handler -->
<g id="edge8" class="edge">
<title>drone_controller_exception_exceptions&#45;&gt;drone_controller_input_layer_request_handler</title><style>.edge>path:hover{stroke-width:8}</style>
<path fill="none" stroke="#000000" d="M59.4219,-519.674C58.3589,-503.5737 58.4636,-483.3781 62.9325,-465.931"/>
<path fill="none" stroke="#000000" d="M62.9325,-465.931C93.658,-345.975 27.806,-299.338 81.9325,-187.9655 100.7756,-149.1933 137.2244,-162.7131 153.9325,-122.9741"/>
<path fill="none" stroke="#000000" d="M153.9325,-122.9741C164.1286,-97.4672 185.2615,-75.538 205.1101,-59.2932"/>
<polygon fill="#3bce3b" stroke="#000000" points="207.5232,-61.8477 213.2092,-52.9079 203.1893,-56.3507 207.5232,-61.8477"/>
</g>
<!-- drone_controller_input_layer_drone_state -->
<g id="node11" class="node">
<title>drone_controller_input_layer_drone_state</title><style>.edge>path:hover{stroke-width:8}</style>
<ellipse fill="#23c823" stroke="#000000" cx="153.9325" cy="-382.9396" rx="62.8651" ry="28.9828"/>
<text text-anchor="middle" x="153.9325" y="-391.4396" font-family="Helvetica,sans-Serif" font-size="10.00" fill="#000000">drone_controller.</text>
<text text-anchor="middle" x="153.9325" y="-380.4396" font-family="Helvetica,sans-Serif" font-size="10.00" fill="#000000">input_layer.</text>
<text text-anchor="middle" x="153.9325" y="-369.4396" font-family="Helvetica,sans-Serif" font-size="10.00" fill="#000000">drone_state</text>
</g>
<!-- drone_controller_exception_exceptions&#45;&gt;drone_controller_input_layer_drone_state -->
<g id="edge7" class="edge">
<title>drone_controller_exception_exceptions&#45;&gt;drone_controller_input_layer_drone_state</title><style>.edge>path:hover{stroke-width:8}</style>
<path fill="none" stroke="#000000" d="M62.9325,-465.931C68.7296,-443.2984 86.156,-424.867 104.2283,-411.1735"/>
<polygon fill="#3bce3b" stroke="#000000" points="106.4492,-413.8878 112.5378,-405.2172 102.3711,-408.1985 106.4492,-413.8878"/>
</g>
<!-- drone_controller_input_layer_drone_physics -->
<g id="node7" class="node">
<title>drone_controller_input_layer_drone_physics</title><style>.edge>path:hover{stroke-width:8}</style>
<ellipse fill="#47c247" stroke="#000000" cx="249.9325" cy="-122.9741" rx="62.8651" ry="28.9828"/>
<text text-anchor="middle" x="249.9325" y="-131.4741" font-family="Helvetica,sans-Serif" font-size="10.00" fill="#000000">drone_controller.</text>
<text text-anchor="middle" x="249.9325" y="-120.4741" font-family="Helvetica,sans-Serif" font-size="10.00" fill="#000000">input_layer.</text>
<text text-anchor="middle" x="249.9325" y="-109.4741" font-family="Helvetica,sans-Serif" font-size="10.00" fill="#000000">drone_physics</text>
</g>
<!-- drone_controller_input_layer_drone_physics&#45;&gt;drone_controller_input_layer_request_handler -->
<g id="edge10" class="edge">
<title>drone_controller_input_layer_drone_physics&#45;&gt;drone_controller_input_layer_request_handler</title><style>.edge>path:hover{stroke-width:8}</style>
<path fill="none" stroke="#000000" d="M249.9325,-93.7526C249.9325,-85.7078 249.9325,-76.8481 249.9325,-68.3329"/>
<polygon fill="#47c247" stroke="#000000" points="253.4326,-68.1948 249.9325,-58.1949 246.4326,-68.1949 253.4326,-68.1948"/>
</g>
<!-- drone_controller_calculation_layer_thrust_calculator&#45;&gt;drone_controller_input_layer_request_handler -->
<g id="edge4" class="edge">
<title>drone_controller_calculation_layer_thrust_calculator&#45;&gt;drone_controller_input_layer_request_handler</title><style>.edge>path:hover{stroke-width:8}</style>
<path fill="none" stroke="#000000" d="M477.612,-190.3416C460.9253,-172.4182 439.7674,-147.6308 424.9325,-122.9741"/>
</g>
<!-- drone_controller_input_layer_drone_state_mapper&#45;&gt;drone_controller_input_layer_request_handler -->
<g id="edge14" class="edge">
<title>drone_controller_input_layer_drone_state_mapper&#45;&gt;drone_controller_input_layer_request_handler</title><style>.edge>path:hover{stroke-width:8}</style>
<path fill="none" stroke="#000000" d="M388.7941,-192.9928C414.7584,-174.8685 440.4551,-148.7739 424.9325,-122.9741"/>
<path fill="none" stroke="#000000" d="M424.9325,-122.9741C401.249,-83.6104 354.8285,-59.7652 315.7464,-45.9468"/>
<polygon fill="#339933" stroke="#000000" points="316.5809,-42.5344 305.9867,-42.6463 314.3384,-49.1655 316.5809,-42.5344"/>
</g>
<!-- drone_controller_exception -->
<g id="node10" class="node">
<title>drone_controller_exception</title><style>.edge>path:hover{stroke-width:8}</style>
<ellipse fill="#3bce3b" stroke="#000000" cx="244.9325" cy="-548.9224" rx="62.8651" ry="21.4286"/>
<text text-anchor="middle" x="244.9325" y="-551.9224" font-family="Helvetica,sans-Serif" font-size="10.00" fill="#000000">drone_controller.</text>
<text text-anchor="middle" x="244.9325" y="-540.9224" font-family="Helvetica,sans-Serif" font-size="10.00" fill="#000000">exception</text>
</g>
<!-- drone_controller_exception&#45;&gt;drone_controller_input_layer_request_handler -->
<g id="edge6" class="edge">
<title>drone_controller_exception&#45;&gt;drone_controller_input_layer_request_handler</title><style>.edge>path:hover{stroke-width:8}</style>
<path fill="none" stroke="#000000" d="M244.9325,-465.931C217.4757,-358.7364 274.6724,-323.5407 244.9325,-216.9569"/>
</g>
<!-- drone_controller_exception&#45;&gt;drone_controller_input_layer_drone_state -->
<g id="edge5" class="edge">
<title>drone_controller_exception&#45;&gt;drone_controller_input_layer_drone_state</title><style>.edge>path:hover{stroke-width:8}</style>
<path fill="none" stroke="#000000" d="M247.8236,-527.4093C249.4181,-510.437 250.1522,-486.3092 244.9325,-465.931"/>
<path fill="none" stroke="#000000" d="M244.9325,-465.931C239.1354,-443.2984 221.709,-424.867 203.6367,-411.1735"/>
<polygon fill="#3bce3b" stroke="#000000" points="205.4939,-408.1985 195.3272,-405.2172 201.4158,-413.8878 205.4939,-408.1985"/>
</g>
<!-- drone_controller_input_layer_drone_state&#45;&gt;drone_controller_input_layer_request_handler -->
<g id="edge13" class="edge">
<title>drone_controller_input_layer_drone_state&#45;&gt;drone_controller_input_layer_request_handler</title><style>.edge>path:hover{stroke-width:8}</style>
<path fill="none" stroke="#000000" d="M169.4766,-354.8286C179.2667,-338.1618 192.7118,-317.0274 206.9325,-299.9483"/>
<path fill="none" stroke="#000000" d="M206.9325,-299.9483C232.8905,-268.7726 255.8356,-256.032 244.9325,-216.9569"/>
<path fill="none" stroke="#000000" d="M244.9325,-216.9569C233.7827,-176.9976 207.9626,-180.5882 177.9325,-151.9655 165.8242,-140.4247 147.4493,-138.3939 153.9325,-122.9741"/>
</g>
<!-- drone_controller_input_layer_drone_state&#45;&gt;drone_controller_calculation_layer_thrust_calculator -->
<g id="edge11" class="edge">
<title>drone_controller_input_layer_drone_state&#45;&gt;drone_controller_calculation_layer_thrust_calculator</title><style>.edge>path:hover{stroke-width:8}</style>
<path fill="none" stroke="#000000" d="M212.3985,-371.7492C257.8338,-361.6198 321.5533,-344.2169 372.9325,-317.9483 408.0018,-300.0184 443.0962,-272.3118 468.1223,-250.4513"/>
<polygon fill="#23c823" stroke="#000000" points="470.716,-252.8295 475.8811,-243.5789 466.0746,-247.5895 470.716,-252.8295"/>
</g>
<!-- drone_controller_input_layer_drone_state&#45;&gt;drone_controller_input_layer_drone_state_mapper -->
<g id="edge12" class="edge">
<title>drone_controller_input_layer_drone_state&#45;&gt;drone_controller_input_layer_drone_state_mapper</title><style>.edge>path:hover{stroke-width:8}</style>
<path fill="none" stroke="#000000" d="M206.9325,-299.9483C227.7241,-274.9775 258.0873,-255.694 285.2271,-242.0271"/>
<polygon fill="#23c823" stroke="#000000" points="286.8352,-245.1369 294.2889,-237.6074 283.7666,-238.8453 286.8352,-245.1369"/>
</g>
<!-- attr -->
<g id="node12" class="node">
<title>attr</title><style>.edge>path:hover{stroke-width:8}</style>
<polygon fill="#98ac49" stroke="#000000" points="910.9325,-317.9483 907.9325,-321.9483 886.9325,-321.9483 883.9325,-317.9483 856.9325,-317.9483 856.9325,-281.9483 910.9325,-281.9483 910.9325,-317.9483"/>
<text text-anchor="middle" x="883.9325" y="-297.4483" font-family="Helvetica,sans-Serif" font-size="10.00" fill="#000000">attr</text>
</g>
<!-- pytest -->
<g id="node23" class="node">
<title>pytest</title><style>.edge>path:hover{stroke-width:8}</style>
<polygon fill="#9d8b43" stroke="#000000" points="817.9325,-140.9741 814.9325,-144.9741 793.9325,-144.9741 790.9325,-140.9741 763.9325,-140.9741 763.9325,-104.9741 817.9325,-104.9741 817.9325,-140.9741"/>
<text text-anchor="middle" x="790.9325" y="-120.4741" font-family="Helvetica,sans-Serif" font-size="10.00" fill="#000000">pytest</text>
</g>
<!-- attr&#45;&gt;pytest -->
<g id="edge1" class="edge">
<title>attr&#45;&gt;pytest</title><style>.edge>path:hover{stroke-width:8}</style>
<path fill="none" stroke="#000000" d="M909.9295,-281.6463C930.3411,-264.9337 953.1278,-239.475 938.9325,-216.9569"/>
</g>
<!-- chardet -->
<g id="node13" class="node">
<title>chardet</title><style>.edge>path:hover{stroke-width:8}</style>
<polygon fill="#7bb653" stroke="#000000" points="935.9325,-867.9138 932.9325,-871.9138 911.9325,-871.9138 908.9325,-867.9138 881.9325,-867.9138 881.9325,-831.9138 935.9325,-831.9138 935.9325,-867.9138"/>
<text text-anchor="middle" x="908.9325" y="-847.4138" font-family="Helvetica,sans-Serif" font-size="10.00" fill="#000000">chardet</text>
</g>
<!-- pygments -->
<g id="node22" class="node">
<title>pygments</title><style>.edge>path:hover{stroke-width:8}</style>
<polygon fill="#9246a4" stroke="#000000" points="932.4325,-758.9138 929.4325,-762.9138 908.4325,-762.9138 905.4325,-758.9138 873.4325,-758.9138 873.4325,-722.9138 932.4325,-722.9138 932.4325,-758.9138"/>
<text text-anchor="middle" x="902.9325" y="-738.4138" font-family="Helvetica,sans-Serif" font-size="10.00" fill="#ffffff">pygments</text>
</g>
<!-- chardet&#45;&gt;pygments -->
<g id="edge2" class="edge">
<title>chardet&#45;&gt;pygments</title><style>.edge>path:hover{stroke-width:8}</style>
<path fill="none" stroke="#000000" d="M907.9147,-831.4234C906.9781,-814.409 905.575,-788.9193 904.4962,-769.3214"/>
<polygon fill="#7bb653" stroke="#000000" points="907.9797,-768.9236 903.9353,-759.1311 900.9903,-769.3084 907.9797,-768.9236"/>
</g>
<!-- imp -->
<g id="node14" class="node">
<title>imp</title><style>.edge>path:hover{stroke-width:8}</style>
<polygon fill="#b67b53" stroke="#000000" points="816.9325,-939.9138 813.9325,-943.9138 792.9325,-943.9138 789.9325,-939.9138 762.9325,-939.9138 762.9325,-903.9138 816.9325,-903.9138 816.9325,-939.9138"/>
<text text-anchor="middle" x="789.9325" y="-919.4138" font-family="Helvetica,sans-Serif" font-size="10.00" fill="#000000">imp</text>
</g>
<!-- pkgresources -->
<g id="node19" class="node">
<title>pkgresources</title><style>.edge>path:hover{stroke-width:8}</style>
<polygon fill="#0557d1" stroke="#000000" points="863.4325,-867.9138 860.4325,-871.9138 839.4325,-871.9138 836.4325,-867.9138 788.4325,-867.9138 788.4325,-831.9138 863.4325,-831.9138 863.4325,-867.9138"/>
<text text-anchor="middle" x="825.9325" y="-847.4138" font-family="Helvetica,sans-Serif" font-size="10.00" fill="#ffffff">pkgresources</text>
</g>
<!-- imp&#45;&gt;pkgresources -->
<g id="edge19" class="edge">
<title>imp&#45;&gt;pkgresources</title><style>.edge>path:hover{stroke-width:8}</style>
<path fill="none" stroke="#000000" d="M799.0168,-903.7451C802.994,-895.7909 807.748,-886.2828 812.1464,-877.4861"/>
<polygon fill="#b67b53" stroke="#000000" points="815.3842,-878.8366 816.7259,-868.327 809.1232,-875.7061 815.3842,-878.8366"/>
</g>
<!-- main -->
<g id="node15" class="node">
<title>main</title><style>.edge>path:hover{stroke-width:8}</style>
<polygon fill="#6b2e2e" stroke="#000000" points="888.9325,-939.9138 885.9325,-943.9138 864.9325,-943.9138 861.9325,-939.9138 834.9325,-939.9138 834.9325,-903.9138 888.9325,-903.9138 888.9325,-939.9138"/>
<text text-anchor="middle" x="861.9325" y="-919.4138" font-family="Helvetica,sans-Serif" font-size="10.00" fill="#ffffff">main</text>
</g>
<!-- main&#45;&gt;pkgresources -->
<g id="edge20" class="edge">
<title>main&#45;&gt;pkgresources</title><style>.edge>path:hover{stroke-width:8}</style>
<path fill="none" stroke="#000000" d="M852.8482,-903.7451C848.8711,-895.7909 844.117,-886.2828 839.7186,-877.4861"/>
<polygon fill="#6b2e2e" stroke="#000000" points="842.7418,-875.7061 835.1391,-868.327 836.4808,-878.8366 842.7418,-875.7061"/>
</g>
<!-- moreitertools -->
<g id="node16" class="node">
<title>moreitertools</title><style>.edge>path:hover{stroke-width:8}</style>
<polygon fill="#49ac71" stroke="#000000" points="1040.4325,-317.9483 1037.4325,-321.9483 1016.4325,-321.9483 1013.4325,-317.9483 967.4325,-317.9483 967.4325,-281.9483 1040.4325,-281.9483 1040.4325,-317.9483"/>
<text text-anchor="middle" x="1003.9325" y="-297.4483" font-family="Helvetica,sans-Serif" font-size="10.00" fill="#000000">moreitertools</text>
</g>
<!-- moreitertools&#45;&gt;pytest -->
<g id="edge21" class="edge">
<title>moreitertools&#45;&gt;pytest</title><style>.edge>path:hover{stroke-width:8}</style>
<path fill="none" stroke="#000000" d="M987.811,-281.6378C973.9008,-265.3347 953.7673,-240.4894 938.9325,-216.9569"/>
</g>
<!-- numpy -->
<g id="node17" class="node">
<title>numpy</title><style>.edge>path:hover{stroke-width:8}</style>
<polygon fill="#05e5b8" stroke="#000000" points="800.9325,-483.931 797.9325,-487.931 776.9325,-487.931 773.9325,-483.931 746.9325,-483.931 746.9325,-447.931 800.9325,-447.931 800.9325,-483.931"/>
<text text-anchor="middle" x="773.9325" y="-463.431" font-family="Helvetica,sans-Serif" font-size="10.00" fill="#000000">numpy</text>
</g>
<!-- numpy&#45;&gt;drone_controller_calculation_layer_thrust_calculator -->
<g id="edge22" class="edge">
<title>numpy&#45;&gt;drone_controller_calculation_layer_thrust_calculator</title><style>.edge>path:hover{stroke-width:8}</style>
<path fill="none" stroke="#000000" d="M770.8098,-447.7233C766.0652,-424.2054 755.2456,-382.8637 733.9325,-353.9483 710.1995,-321.7498 667.679,-339.5333 661.9325,-299.9483"/>
</g>
<!-- numpy&#45;&gt;drone_controller_input_layer_drone_state_mapper -->
<g id="edge23" class="edge">
<title>numpy&#45;&gt;drone_controller_input_layer_drone_state_mapper</title><style>.edge>path:hover{stroke-width:8}</style>
<path fill="none" stroke="#000000" d="M746.8128,-464.8915C650.8843,-460.9403 331.7538,-445.3586 301.9325,-411.931 284.7771,-392.7011 291.75,-377.6213 301.9325,-353.9483 315.7212,-321.8913 355.2996,-334.6553 358.9325,-299.9483"/>
<path fill="none" stroke="#000000" d="M358.9325,-299.9483C359.8837,-285.5946 358.3127,-269.957 356.025,-256.1652"/>
<polygon fill="#05e5b8" stroke="#000000" points="359.4127,-255.2345 354.1657,-246.0302 352.5276,-256.4976 359.4127,-255.2345"/>
</g>
<!-- numpy&#45;&gt;pytest -->
<g id="edge24" class="edge">
<title>numpy&#45;&gt;pytest</title><style>.edge>path:hover{stroke-width:8}</style>
<path fill="none" stroke="#000000" d="M775.3446,-437.4439C778.5474,-372.8307 786.3321,-215.7819 789.5278,-151.3117"/>
<polygon fill="#05e5b8" stroke="#000000" points="771.846,-437.3311 774.8465,-447.4922 778.8374,-437.6777 771.846,-437.3311"/>
<polygon fill="#05e5b8" stroke="#000000" points="793.0352,-151.249 790.0346,-141.0879 786.0437,-150.9024 793.0352,-151.249"/>
</g>
<!-- packaging -->
<g id="node18" class="node">
<title>packaging</title><style>.edge>path:hover{stroke-width:8}</style>
<polygon fill="#40a6c0" stroke="#000000" points="1119.4325,-317.9483 1116.4325,-321.9483 1095.4325,-321.9483 1092.4325,-317.9483 1058.4325,-317.9483 1058.4325,-281.9483 1119.4325,-281.9483 1119.4325,-317.9483"/>
<text text-anchor="middle" x="1088.9325" y="-297.4483" font-family="Helvetica,sans-Serif" font-size="10.00" fill="#000000">packaging</text>
</g>
<!-- packaging&#45;&gt;pytest -->
<g id="edge25" class="edge">
<title>packaging&#45;&gt;pytest</title><style>.edge>path:hover{stroke-width:8}</style>
<path fill="none" stroke="#000000" d="M1058.3124,-284.9982C1016.5411,-264.3095 946.0349,-228.2235 938.9325,-216.9569"/>
</g>
<!-- py -->
<g id="node21" class="node">
<title>py</title><style>.edge>path:hover{stroke-width:8}</style>
<polygon fill="#754cb3" stroke="#000000" points="857.9325,-649.9138 854.9325,-653.9138 833.9325,-653.9138 830.9325,-649.9138 803.9325,-649.9138 803.9325,-613.9138 857.9325,-613.9138 857.9325,-649.9138"/>
<text text-anchor="middle" x="830.9325" y="-629.4138" font-family="Helvetica,sans-Serif" font-size="10.00" fill="#ffffff">py</text>
</g>
<!-- pkgresources&#45;&gt;py -->
<g id="edge26" class="edge">
<title>pkgresources&#45;&gt;py</title><style>.edge>path:hover{stroke-width:8}</style>
<path fill="none" stroke="#000000" d="M832.9325,-795.4138C837.5485,-748.2007 835.2859,-692.9573 833.1581,-660.2854"/>
<polygon fill="#0557d1" stroke="#000000" points="836.6362,-659.8484 832.4518,-650.115 829.6531,-660.3334 836.6362,-659.8484"/>
</g>
<!-- pkgresources&#45;&gt;pygments -->
<g id="edge27" class="edge">
<title>pkgresources&#45;&gt;pygments</title><style>.edge>path:hover{stroke-width:8}</style>
<path fill="none" stroke="#000000" d="M832.9325,-795.4138C834.6614,-777.7307 849.0463,-764.9176 864.3301,-756.1761"/>
<polygon fill="#0557d1" stroke="#000000" points="866.0833,-759.2096 873.3439,-751.4938 862.8564,-752.9977 866.0833,-759.2096"/>
</g>
<!-- setuptools -->
<g id="node24" class="node">
<title>setuptools</title><style>.edge>path:hover{stroke-width:8}</style>
<polygon fill="#b6537b" stroke="#000000" points="804.9325,-758.9138 801.9325,-762.9138 780.9325,-762.9138 777.9325,-758.9138 742.9325,-758.9138 742.9325,-722.9138 804.9325,-722.9138 804.9325,-758.9138"/>
<text text-anchor="middle" x="773.9325" y="-738.4138" font-family="Helvetica,sans-Serif" font-size="10.00" fill="#ffffff">setuptools</text>
</g>
<!-- pkgresources&#45;&gt;setuptools -->
<g id="edge28" class="edge">
<title>pkgresources&#45;&gt;setuptools</title><style>.edge>path:hover{stroke-width:8}</style>
<path fill="none" stroke="#000000" d="M828.5414,-831.7783C829.9944,-821.1914 831.7444,-807.5664 832.9325,-795.4138"/>
<path fill="none" stroke="#000000" d="M832.9325,-795.4138C834.3326,-781.0932 825.0183,-769.4625 813.3995,-760.68"/>
<polygon fill="#0557d1" stroke="#000000" points="815.3342,-757.7632 805.0909,-755.0568 811.4107,-763.5603 815.3342,-757.7632"/>
</g>
<!-- pluggy -->
<g id="node20" class="node">
<title>pluggy</title><style>.edge>path:hover{stroke-width:8}</style>
<polygon fill="#4040c0" stroke="#000000" points="762.9325,-317.9483 759.9325,-321.9483 738.9325,-321.9483 735.9325,-317.9483 708.9325,-317.9483 708.9325,-281.9483 762.9325,-281.9483 762.9325,-317.9483"/>
<text text-anchor="middle" x="735.9325" y="-297.4483" font-family="Helvetica,sans-Serif" font-size="10.00" fill="#ffffff">pluggy</text>
</g>
<!-- pluggy&#45;&gt;pytest -->
<g id="edge29" class="edge">
<title>pluggy&#45;&gt;pytest</title><style>.edge>path:hover{stroke-width:8}</style>
<path fill="none" stroke="#000000" d="M741.6113,-281.6755C751.27,-250.5967 770.9518,-187.2662 782.3153,-150.7017"/>
<polygon fill="#4040c0" stroke="#000000" points="785.659,-151.7357 785.2846,-141.1475 778.9744,-149.6582 785.659,-151.7357"/>
</g>
<!-- py&#45;&gt;pytest -->
<g id="edge30" class="edge">
<title>py&#45;&gt;pytest</title><style>.edge>path:hover{stroke-width:8}</style>
<path fill="none" stroke="#000000" d="M830.5657,-613.4932C829.9883,-582.866 828.9325,-519.5335 828.9325,-465.931 828.9325,-465.931 828.9325,-465.931 828.9325,-382.9396 828.9325,-337.2671 823.3521,-320.4422 847.9325,-281.9483 874.6805,-240.0598 965.4365,-259.0002 938.9325,-216.9569"/>
<path fill="none" stroke="#000000" d="M938.9325,-216.9569C912.7092,-176.4306 862.1782,-150.0479 827.52,-135.838"/>
<polygon fill="#754cb3" stroke="#000000" points="828.7853,-132.5747 818.199,-132.1512 826.2106,-139.084 828.7853,-132.5747"/>
</g>
<!-- pygments&#45;&gt;pytest -->
<g id="edge31" class="edge">
<title>pygments&#45;&gt;pytest</title><style>.edge>path:hover{stroke-width:8}</style>
<path fill="none" stroke="#000000" d="M912.9605,-722.6189C923.6126,-701.44 938.9325,-665.1952 938.9325,-631.9138 938.9325,-631.9138 938.9325,-631.9138 938.9325,-382.9396 938.9325,-309.1695 979.0086,-278.8918 938.9325,-216.9569"/>
</g>
<!-- setuptools&#45;&gt;numpy -->
<g id="edge33" class="edge">
<title>setuptools&#45;&gt;numpy</title><style>.edge>path:hover{stroke-width:8}</style>
<path fill="none" stroke="#000000" d="M773.9325,-722.8714C773.9325,-676.0629 773.9325,-550.4614 773.9325,-494.0459"/>
<polygon fill="#b6537b" stroke="#000000" points="777.4326,-494.0398 773.9325,-484.0398 770.4326,-494.0399 777.4326,-494.0398"/>
</g>
</g>
</svg>
